<svg xmlns="http://www.w3.org/2000/svg" width="265" height="67" viewBox="0 0 66.25 16.75" xmlns:v="https://vecta.io/nano"><path fill="#eb1000" d="M9.057 5.43l-2.988 7.423h3.593l1.258 3.593H.025L6.794.272h4.711l6.747 16.174h-4.794zm49.586 3.694l.021-.082a2.78 2.78 0 0 1 .146-.431c.2-.445.462-.78.781-.995s.679-.326 1.063-.326c.336 0 .66.086.964.253s.563.431.771.782c.119.203.203.446.248.722l.014.077zm7.11-1.542c-.157-.355-.342-.685-.553-.986s-.45-.576-.713-.821c-.527-.488-1.131-.864-1.796-1.116a5.85 5.85 0 0 0-2.084-.38 5.91 5.91 0 0 0-2.926.749 5.69 5.69 0 0 0-2.141 2.119c-.535.909-.807 1.999-.807 3.239 0 .98.179 1.868.53 2.639s.843 1.43 1.462 1.957 1.345.936 2.156 1.211 1.706.416 2.658.416a8.98 8.98 0 0 0 2.035-.231 8.28 8.28 0 0 0 1.859-.674V12.54c-.603.274-1.185.492-1.733.647a6.55 6.55 0 0 1-1.789.248c-.658 0-1.243-.112-1.739-.332s-.901-.563-1.194-1.015a2.48 2.48 0 0 1-.233-.467l-.034-.091h7.425l.054-.684.035-.787c0-.933-.159-1.766-.472-2.477m-16.17 4.399c-.123.206-.266.388-.428.547s-.343.29-.541.398c-.397.213-.823.322-1.267.322-.258 0-.522-.034-.785-.101l-.05-.013v-5.34l.051-.012a4.07 4.07 0 0 1 .9-.096c.444 0 .858.096 1.231.287s.681.491.913.889.346.91.346 1.524c0 .646-.125 1.183-.37 1.595m3.819-4.329c-.329-.756-.782-1.391-1.347-1.887s-1.196-.868-1.876-1.105a6.31 6.31 0 0 0-2.086-.358c-.537 0-1.041.056-1.499.165l-.082.02V.094h-4.037v15.584c.725.329 1.484.576 2.253.734.785.162 1.65.244 2.573.244a7.57 7.57 0 0 0 2.436-.404 6.6 6.6 0 0 0 2.133-1.199 5.61 5.61 0 0 0 1.485-1.969c.359-.78.542-1.703.542-2.745 0-1.026-.167-1.931-.495-2.687M37.37 11.999a2.59 2.59 0 0 1-.346.543 1.91 1.91 0 0 1-.436.382 1.98 1.98 0 0 1-1.061.301 1.98 1.98 0 0 1-1.06-.301c-.321-.201-.583-.511-.782-.925s-.297-.937-.297-1.567c0-.644.099-1.175.297-1.578s.461-.713.782-.913a1.98 1.98 0 0 1 1.06-.301 1.98 1.98 0 0 1 1.061.301c.32.2.583.507.782.913s.298.935.298 1.578c0 .629-.101 1.156-.298 1.567m3.412-4.957c-.55-.917-1.293-1.621-2.21-2.095-.46-.237-.945-.415-1.453-.535s-1.04-.18-1.592-.18c-1.101 0-2.126.241-3.044.715s-1.664 1.178-2.222 2.096-.84 2.056-.84 3.389.282 2.474.84 3.39 1.306 1.626 2.222 2.108 1.942.726 3.044.726c1.087 0 2.107-.244 3.033-.726s1.672-1.191 2.222-2.107.829-2.058.829-3.391-.279-2.473-.829-3.39m-16.239 6.071l-.051.013c-.284.066-.578.099-.878.099a2.61 2.61 0 0 1-1.218-.299c-.383-.199-.694-.506-.925-.911s-.346-.929-.346-1.559c0-.645.112-1.181.334-1.593a2.08 2.08 0 0 1 .927-.913c.387-.191.824-.287 1.299-.287.275 0 .547.032.807.095l.051.013zm0-13.019v4.31l-.079-.015a6.25 6.25 0 0 0-1.175-.11c-.765 0-1.527.131-2.261.392a5.72 5.72 0 0 0-1.97 1.186c-.572.528-1.042 1.183-1.393 1.948s-.53 1.663-.53 2.674c0 1.072.193 2.01.575 2.789s.89 1.427 1.508 1.924a6.28 6.28 0 0 0 2.098 1.106 8.02 8.02 0 0 0 2.345.358c.953 0 1.834-.086 2.619-.255.769-.166 1.535-.417 2.276-.746V.094z"/></svg>