<svg xmlns="http://www.w3.org/2000/svg" height="113.137" viewBox="0 0 1000 128.113" width="883.883" fill="#ff5a00" xmlns:v="https://vecta.io/nano"><path d="M133.3.005c-17.533.23-35.139 5.247-47.024 9.669-41.015 15.041-65.244 39.169-79.25 65.865-15.073 26.466-6.472 51.763 31.393 52.574 25.437-1.022 42.409-7.379 58.798-15.743.888-.454.391-1.806-.58-1.563-15.156 3.757-50.397 10.952-66.754 2.134-2.179-1.163-4.605-2.812-5.653-7.291-1.131-9.45 13.53-19.236 21.977-22.379l-1.75-16.37c6.741 2.524 13.936 3.903 21.303 3.903 13.968 0 26.234-4.976 35.333-13.244a18.48 18.48 0 0 1 1.264 4.511h3.969c.051-4.198-2.649-7.535-2.649-7.535-4.166-5.648-10.371-5.55-10.371-5.55s2.944 1.395 5.513 4.699c-21.041 18.607-47.361 9.453-47.361 9.453l10.829-12.046-4.577-9.332c25.022-9.092 46.109-16.085 81.028-22.258l-8.686-6.655 3.884-2.565c22.064 6.045 36.57 10.492 37.075 21.828-.16 1.885-.563 4.072-1.451 6.589-4.914 12.357-21.305 32.997-27.892 41.623-4.351 5.712-8.609 11.312-11.503 16.679-3.003 5.361-4.661 10.365-4.259 15.144-.224 28.018 49.854 4.587 72.473-10.492.728-.486.166-1.604-.665-1.329-63.526 21.111-48.549-2.443-48.549-2.443 13.431-18.907 36.706-47.167 35.633-65.818C183.814 7.699 158.462-.237 133.3.005zm580.775 86.828c0 12.332-6.249 18.498-18.741 18.498-8.006 0-12.006-2.926-12.006-8.799 0-5.323 4.217-8.715 12.62-10.185 3.105-.543 9.144-.818 18.127-.818zm35.239-16.99c0-21.399-16.204-31.45-47.941-32.108-33.079-.684-47.053 7.93-49.833 26.019h34.3c1.655-5.891 5.616-9.188 13.827-8.901 8.07.288 14.076 4.383 14.377 15.105-18.46.275-32.057 1.348-41.392 3.585-18.012 4.319-26.964 14.14-26.964 27.501 0 9.003 3.987 15.578 11.936 19.706 5.987 3.093 13.757 4.978 23.303 4.645 15.642-.543 26.913-5.003 33.897-14.23v12.358h34.504zm215.441 16.99c0 12.332-6.255 18.498-18.741 18.498-8.006 0-12.006-2.926-12.006-8.799 0-5.323 4.211-8.715 12.62-10.185 3.105-.543 9.137-.818 18.127-.818zm35.239-16.99c0-21.399-16.21-31.45-47.941-32.108-33.086-.684-47.06 7.93-49.833 26.019h34.3c1.655-5.891 5.616-9.188 13.827-8.901 8.064.288 14.07 4.383 14.37 15.105-18.453.275-32.057 1.348-41.392 3.585-18.006 4.319-26.958 14.14-26.958 27.501 0 9.003 3.981 15.578 11.929 19.706 5.993 3.093 13.763 4.978 23.303 4.645 15.648-.543 26.92-5.003 33.897-14.23v12.358H1000zm-713.688 6.166l19.571-43.565 18.536 43.565zm.141-72.005L226.73 123.656h38.772l9.476-21.565h59.718l8.818 21.565h43.028L329.576 4.005zm111.195 119.649h37.577V4.007h-37.577zM459.066 4.008V27.77h37.576V4.008zm0 36.689v82.955h37.576V40.697zM591.618 95.51c-6.894 9.489-15.495 11.591-25.789 6.326a25.41 25.41 0 0 1-1.565-1.125c-3.24-3.01-5.303-6.703-6.185-11.086a40.52 40.52 0 0 1 .613-19.131c1.233-4.281 3.623-7.655 7.182-10.102 4.089-2.358 8.441-3.208 13.035-2.556 6.428 1.016 10.958 4.613 13.61 10.792 1.636 4.051 2.422 8.294 2.358 12.709a30.23 30.23 0 0 1-3.259 14.172m-71.085 28.185h36.689v-14.741-.345c9.719 12.402 22 17.603 36.919 17.067 8.313-.422 15.961-3.303 22.888-8.14 9.386-7.495 14.46-17.367 15.214-29.629 1.067-12.626-1.987-24.07-9.169-34.344-6.99-8.658-15.897-13.635-26.728-14.907-15.06-1.994-28.306 2.971-38.83 14.396V4.119h-36.945zM842.205 95.51c-6.894 9.489-15.495 11.591-25.789 6.326a25.65 25.65 0 0 1-1.565-1.125c-3.24-3.01-5.303-6.703-6.185-11.086a40.52 40.52 0 0 1 .613-19.131c1.233-4.281 3.623-7.655 7.182-10.102 4.089-2.358 8.441-3.208 13.035-2.556 6.428 1.016 10.958 4.613 13.604 10.792 1.642 4.051 2.428 8.294 2.364 12.709a30.23 30.23 0 0 1-3.259 14.172m-71.085 28.185h36.689v-14.741-.345c9.719 12.402 22 17.603 36.919 17.067 8.313-.422 15.961-3.303 22.888-8.14 9.386-7.495 14.46-17.367 15.214-29.629 1.067-12.626-1.987-24.07-9.169-34.344-6.99-8.658-15.897-13.635-26.728-14.907-15.06-1.994-28.306 2.971-38.83 14.396V4.119h-36.945z"/></svg>