<svg width="600" height="600" viewBox="0 0 600 600" fill="none" xmlns="http://www.w3.org/2000/svg">
<g clip-path="url(#clip0_103_44)">
<path d="M495.012 510.123C521.748 530.176 561.853 516.808 525.09 480.045C414.803 373.099 438.197 79 301.173 79C164.15 79 187.544 373.099 77.2563 480.045C37.1519 520.149 80.5982 530.176 107.335 510.123C210.938 439.94 204.254 316.285 301.173 316.285C398.092 316.285 391.409 439.94 495.012 510.123Z" fill="#3186FF"/>
<mask id="mask0_103_44" style="mask-type:luminance" maskUnits="userSpaceOnUse" x="61" y="79" width="479" height="442">
<path d="M495.012 510.123C521.748 530.176 561.853 516.808 525.09 480.045C414.803 373.1 438.197 79 301.173 79C164.15 79 187.544 373.1 77.2563 480.045C37.1519 520.15 80.5982 530.176 107.335 510.123C210.938 439.941 204.254 316.285 301.173 316.285C398.092 316.285 391.409 439.941 495.012 510.123Z" fill="white"/>
</mask>
<g mask="url(#mask0_103_44)">
<g filter="url(#filter0_f_103_44)">
<path d="M40.6883 -20.601C32.5563 51.0416 94.2939 116.875 178.583 126.442C262.872 136.01 337.795 85.6877 345.927 14.0451C354.059 -57.5975 292.321 -123.431 208.032 -132.998C123.743 -142.566 48.8204 -92.2436 40.6883 -20.601Z" fill="#FFE432"/>
</g>
<g filter="url(#filter1_f_103_44)">
<path d="M365.671 213.631C386.789 304.555 479.238 360.768 572.161 339.186C665.084 317.604 723.294 226.399 702.176 135.474C681.058 44.5493 588.609 -11.6637 495.685 9.91873C402.762 31.5011 344.552 122.706 365.671 213.631Z" fill="#FC413D"/>
</g>
<g filter="url(#filter2_f_103_44)">
<path d="M-187.268 274.623C-160.583 368.46 -40.4054 416.506 81.1567 381.937C202.719 347.368 279.632 243.275 252.948 149.438C226.263 55.6011 106.085 7.55492 -15.4769 42.1239C-137.039 76.6928 -213.952 180.786 -187.268 274.623Z" fill="#00B95C"/>
</g>
<g filter="url(#filter3_f_103_44)">
<path d="M-187.268 274.623C-160.583 368.46 -40.4054 416.506 81.1567 381.937C202.719 347.368 279.632 243.275 252.948 149.438C226.263 55.6011 106.085 7.55492 -15.4769 42.1239C-137.039 76.6928 -213.952 180.786 -187.268 274.623Z" fill="#00B95C"/>
</g>
<g filter="url(#filter4_f_103_44)">
<path d="M-90.8051 352.405C-23.9105 420.731 91.2969 416.42 166.518 342.775C241.739 269.13 248.488 154.039 181.594 85.7133C114.699 17.3873 -0.508329 21.6991 -75.7292 95.3441C-150.95 168.989 -157.7 284.079 -90.8051 352.405Z" fill="#00B95C"/>
</g>
<g filter="url(#filter5_f_103_44)">
<path d="M259.179 610.091C279.952 699.527 366.608 755.813 452.732 735.81C538.855 715.807 591.833 627.089 571.061 537.653C550.288 448.217 463.632 391.931 377.508 411.934C291.385 431.937 238.407 520.655 259.179 610.091Z" fill="#3186FF"/>
</g>
<g filter="url(#filter6_f_103_44)">
<path d="M112.334 -104.272C68.8379 -7.37885 116.426 108.36 218.626 154.239C320.825 200.117 438.935 158.761 482.432 61.8679C525.928 -35.0253 478.34 -150.764 376.14 -196.643C273.941 -242.521 155.831 -201.165 112.334 -104.272Z" fill="#FBBC04"/>
</g>
<g filter="url(#filter7_f_103_44)">
<path d="M-4.18143 830.959C-109.482 789.623 70.4741 449.516 115.223 335.527C159.972 221.539 281.611 162.645 386.912 203.983C492.213 245.321 617.026 473.005 572.275 586.992C527.525 700.981 101.12 872.296 -4.18143 830.959Z" fill="#3186FF"/>
</g>
<g filter="url(#filter8_f_103_44)">
<path d="M633.858 407.644C605.664 440.547 532.098 423.769 469.538 370.168C406.978 316.568 379.116 246.443 407.308 213.539C435.499 180.636 509.067 197.415 571.627 251.015C634.184 304.616 662.051 374.741 633.858 407.644Z" fill="#749BFF"/>
</g>
<g filter="url(#filter9_f_103_44)">
<path d="M423.412 240.166C539.361 318.599 672.882 323.752 721.639 251.675C770.395 179.597 715.925 57.5838 599.976 -20.8497C484.027 -99.2833 350.506 -104.436 301.75 -32.3584C252.993 39.7191 307.463 161.732 423.412 240.166Z" fill="#FC413D"/>
</g>
<g filter="url(#filter10_f_103_44)">
<path d="M42.746 112.597C14.0204 181.892 23.4022 251.609 63.7008 268.314C103.999 285.02 159.955 242.388 188.68 173.093C217.406 103.798 208.024 34.0806 167.725 17.3752C127.427 0.669821 71.4716 43.3021 42.746 112.597Z" fill="#FFEE48"/>
</g>
</g>
</g>
<defs>
<filter id="filter0_f_103_44" x="-4.60843" y="-178.742" width="395.832" height="350.929" filterUnits="userSpaceOnUse" color-interpolation-filters="sRGB">
<feFlood flood-opacity="0" result="BackgroundImageFix"/>
<feBlend mode="normal" in="SourceGraphic" in2="BackgroundImageFix" result="shape"/>
<feGaussianBlur stdDeviation="22.2886" result="effect1_foregroundBlur_103_44"/>
</filter>
<filter id="filter1_f_103_44" x="145.834" y="-210.202" width="776.177" height="769.508" filterUnits="userSpaceOnUse" color-interpolation-filters="sRGB">
<feFlood flood-opacity="0" result="BackgroundImageFix"/>
<feBlend mode="normal" in="SourceGraphic" in2="BackgroundImageFix" result="shape"/>
<feGaussianBlur stdDeviation="107.754" result="effect1_foregroundBlur_103_44"/>
</filter>
<filter id="filter2_f_103_44" x="-375.758" y="-152.29" width="817.196" height="728.641" filterUnits="userSpaceOnUse" color-interpolation-filters="sRGB">
<feFlood flood-opacity="0" result="BackgroundImageFix"/>
<feBlend mode="normal" in="SourceGraphic" in2="BackgroundImageFix" result="shape"/>
<feGaussianBlur stdDeviation="91.601" result="effect1_foregroundBlur_103_44"/>
</filter>
<filter id="filter3_f_103_44" x="-375.758" y="-152.29" width="817.196" height="728.641" filterUnits="userSpaceOnUse" color-interpolation-filters="sRGB">
<feFlood flood-opacity="0" result="BackgroundImageFix"/>
<feBlend mode="normal" in="SourceGraphic" in2="BackgroundImageFix" result="shape"/>
<feGaussianBlur stdDeviation="91.601" result="effect1_foregroundBlur_103_44"/>
</filter>
<filter id="filter4_f_103_44" x="-320.076" y="-146.041" width="730.941" height="730.2" filterUnits="userSpaceOnUse" color-interpolation-filters="sRGB">
<feFlood flood-opacity="0" result="BackgroundImageFix"/>
<feBlend mode="normal" in="SourceGraphic" in2="BackgroundImageFix" result="shape"/>
<feGaussianBlur stdDeviation="91.601" result="effect1_foregroundBlur_103_44"/>
</filter>
<filter id="filter5_f_103_44" x="80.575" y="233.802" width="669.09" height="680.142" filterUnits="userSpaceOnUse" color-interpolation-filters="sRGB">
<feFlood flood-opacity="0" result="BackgroundImageFix"/>
<feBlend mode="normal" in="SourceGraphic" in2="BackgroundImageFix" result="shape"/>
<feGaussianBlur stdDeviation="87.048" result="effect1_foregroundBlur_103_44"/>
</filter>
<filter id="filter6_f_103_44" x="-61.5605" y="-373.142" width="717.887" height="703.879" filterUnits="userSpaceOnUse" color-interpolation-filters="sRGB">
<feFlood flood-opacity="0" result="BackgroundImageFix"/>
<feBlend mode="normal" in="SourceGraphic" in2="BackgroundImageFix" result="shape"/>
<feGaussianBlur stdDeviation="78.8901" result="effect1_foregroundBlur_103_44"/>
</filter>
<filter id="filter7_f_103_44" x="-177.642" y="49.8658" width="900.17" height="928.298" filterUnits="userSpaceOnUse" color-interpolation-filters="sRGB">
<feFlood flood-opacity="0" result="BackgroundImageFix"/>
<feBlend mode="normal" in="SourceGraphic" in2="BackgroundImageFix" result="shape"/>
<feGaussianBlur stdDeviation="70.4521" result="effect1_foregroundBlur_103_44"/>
</filter>
<filter id="filter8_f_103_44" x="270.223" y="70.6123" width="500.72" height="479.959" filterUnits="userSpaceOnUse" color-interpolation-filters="sRGB">
<feFlood flood-opacity="0" result="BackgroundImageFix"/>
<feBlend mode="normal" in="SourceGraphic" in2="BackgroundImageFix" result="shape"/>
<feGaussianBlur stdDeviation="63.042" result="effect1_foregroundBlur_103_44"/>
</filter>
<filter id="filter9_f_103_44" x="177.391" y="-189.711" width="668.605" height="598.739" filterUnits="userSpaceOnUse" color-interpolation-filters="sRGB">
<feFlood flood-opacity="0" result="BackgroundImageFix"/>
<feBlend mode="normal" in="SourceGraphic" in2="BackgroundImageFix" result="shape"/>
<feGaussianBlur stdDeviation="53.2465" result="effect1_foregroundBlur_103_44"/>
</filter>
<filter id="filter10_f_103_44" x="-105.704" y="-118.052" width="442.834" height="521.793" filterUnits="userSpaceOnUse" color-interpolation-filters="sRGB">
<feFlood flood-opacity="0" result="BackgroundImageFix"/>
<feBlend mode="normal" in="SourceGraphic" in2="BackgroundImageFix" result="shape"/>
<feGaussianBlur stdDeviation="65.9014" result="effect1_foregroundBlur_103_44"/>
</filter>
<clipPath id="clip0_103_44">
<rect width="478.882" height="441.15" fill="white" transform="translate(61 79)"/>
</clipPath>
</defs>
</svg>
