<svg xmlns="http://www.w3.org/2000/svg" viewBox="0 0 512 512" fill="none" xmlns:v="https://vecta.io/nano"><path d="M128.773 201.438c-32.892-39.569-47.084-64.372-50.479-122.126l73.143 77.606-22.664 44.52z" fill="#824b2e"/><path d="M139.075 94.152l-60.781-14.84c14.617 30.45 64.129 84.661 71.598 80.039s51.251-55.954 51.251-55.954l-62.068-9.245z" fill="#0a0a0a"/><path d="M511.485 217.251C510.453 90.784 497.013 42.694 448.644.247c2.348 98.247 15.195 169.078 15.195 169.078s36.121 38.282 47.646 47.926z" fill="#824b2e"/><path d="M128.515 202.654l21.119-43.304 49.706-56.684 7.984-3.892 7.211-4.865s2.833-3.892 0-3.892-5.923.973-5.923.973l-7.727 1.946-7.726 2.433s-1.288.487-1.803 0 0-2.433 0-2.433l1.03-1.703s2.318-1.946 3.863-2.676 26.013-9.245 32.194-10.948 13.134-1.946 20.861-2.189 16.225 0 16.74 0 .515-.973.515-.973 0-.486-.515-.973-22.664-.486-23.179-.73-2.318-.487-2.318-.487-3.09-.487-3.348-.73-.772-1.703 0-2.676 2.318-.73 2.833-1.46 4.121-1.46 4.121-1.46l52.797 1.46 19.573 4.136 23.952 8.028 23.436 11.434h7.212l17.77-8.758 20.861-17.029 18.801-28.464S446.326.246 448.386.003s10.044 14.84 10.044 14.84l10.045 24.814 6.696 45.736 2.06 36.735 2.318 57.9L512 216.764v1.46h-1.288L495.517 204.6l9.529 34.789L512 273.934l-5.151 5.109-26.012 16.786v1.217l8.499-1.946 6.181-.974h7.726c3.606 0 0 6.326 0 6.326s-100.028 98.745-125.682 113.854-67.436 22.46-111.259 33.086h-12.878c-18.784-1.815-29-4.013-46.615-10.218-33.478-16.062-53.074-29.401-89.111-58.873l-18.801-23.598-13.135-20.436c-5.718-10.214-6.439-14.353-6.181-15.569s4.893-6.326 10.559-16.3l8.757-15.813 29.618-83.931z" fill="#000"/><path d="M352.322 321.86c64.55 9.996 92.827 28.774 136.499 74.444-45.926-44.597-74.557-63.553-137.014-73.471l.515-.973zm-17.867 15.327c52.416 9.995 75.378 28.774 110.841 74.443-37.293-44.597-60.542-63.552-111.259-73.47l.418-.973zm-2.204 25.788c34.459 7.316 49.554 21.063 72.868 54.494-24.517-32.646-39.801-46.522-73.143-53.782l.275-.712z" fill="#fff"/><path d="M393.529 238.416c0-31.383-42.237-63.591-72.885-56.928-32.451 7.055-51.328 51.254-50.479 73.714-.084 25.493 16.998 36.83 50.479 37.951 36.314 1.217 72.885-23.355 72.885-54.737z" fill="#c9f180"/><path d="M328.565 180.994c-39.252 5.326-43.009 96.558-11.112 94.856s50.364-100.183 11.112-94.856z" fill="#000"/><ellipse cx="333.846" cy="254.286" rx="3.606" ry="3.406" fill="#fff"/><path d="M178.994 190.49c-22.922 0-40.435 33.572-36.056 68.361 3.349 19.072 15.226 29.172 36.056 26.274 37.05-10.565 33.055-94.635 0-94.635z" fill="#c9f180"/><path d="M177.706 190.49c-28.33 2.919-34.51 85.147-11.589 85.147s39.92-88.067 11.589-85.147z" fill="#000"/><g fill="#fff"><ellipse cx="177.449" cy="254.229" rx="3.606" ry="3.406"/><path d="M136.499 310.913C71.949 320.908 43.672 339.687 0 385.356c45.926-44.597 74.557-63.553 137.014-73.47l-.515-.973zm17.868 15.326c-52.417 9.995-75.378 28.774-110.842 74.443 37.293-44.597 60.543-63.552 111.26-73.47l-.418-.973zm2.203 25.788c-34.459 7.316-49.554 21.063-72.867 54.494 24.516-32.646 39.801-46.522 73.143-53.782l-.275-.712z"/></g><path opacity=".07" d="M280.802 355.453c-12.666 5.672-28.167 48.313-54.867 48.313-35.844 0-52.763-58.387-59.072-63.375.636-.049 1.223-.098 1.859-.098 2.64 0 5.281.441 7.97.441.538 0 1.076 0 1.614-.049 5.966 13.839 38.485 19.804 48.656 19.951 9.731.147 35.404-5.086 39.365-13.594.734 2.102 11.981 8.313 14.475 8.411z" fill="#091427"/><path d="M261.682 376.431c-9.683 13.497-22.397 26.113-37.067 26.113-2.054 0-4.792-.734-8.02-2.152.489-6.063.685-12.763 3.179-18.289 12.127-6.699 35.453-11.002 41.908-5.672z" fill="#c47499"/><path d="M220.85 382.641c-2.494 5.526-3.717 11.688-4.206 17.751-2.983-1.32-6.357-3.276-9.878-5.868 3.961-5.037 8.753-8.949 14.084-11.883z" fill="#ad6585"/><path d="M215.519 360.978c4.45.538 9.291.734 14.524.587 14.181-.391 28.02-3.472 38.142-11.785 2.25 1.614 4.695 2.983 7.189 4.108-3.326 6.259-7.971 14.523-13.644 22.543-16.137-2.543-33.643.147-46.553 9.878-6.161-3.227-7.237-21.321.342-25.331z" fill="#6b3f3c"/><g fill="#8d5548"><path d="M215.519 360.978c-4.303 7.629-4.107 17.213-.342 25.331-3.081 2.347-5.868 5.037-8.362 8.166-12.861-9.438-27.824-27.188-33.692-53.35 7.433 7.628 20.391 17.262 42.396 19.853zm67.679-4.645c-1.956-.294-3.717-1.076-5.428-2.005-.44-.196-.831-.44-1.272-.734-.44-.244-.831-.489-1.222-.782-.831-.489-1.614-1.076-2.445-1.614l-1.174-.88-1.124-.929a25.8 25.8 0 0 0-2.299-1.76l-2.347-1.663-2.445-1.712-.196.147c.294 1.027.783 1.956 1.419 2.787.293.441.635.832.978 1.223l1.075 1.125c.734.684 1.565 1.32 2.445 1.858l1.321.782 1.32.734 2.69 1.369 1.369.587 1.418.538 1.467.489 1.467.391c.978.244 2.005.342 3.032.293v-.244h-.049z"/><path d="M180.653 339.902l-4.89.44-2.396.049-2.347-.244c-1.565-.196-3.081-.832-4.646-1.027-1.564-.245-3.129-.391-4.841-.489l-.098.195c.587.685 1.321 1.223 2.054 1.663s1.565.782 2.347 1.027c1.614.538 3.375.44 5.037.489l2.543-.098c.88-.098 1.663-.244 2.494-.44l4.792-1.32-.049-.245z"/></g><path d="M238.749 311.419c-6.177-.216-18.016 5.943-20.828 5.358s-13.774-10.22-17.005-6.682 1.43 9.545 1.43 9.545c10.247 14.722 8.409 12.404 14.765 17.801l4.633.162s18.549-12.984 21.266-16.54 1.916-9.428-4.261-9.644z" fill="#ffcdcf"/></svg>
