<svg width="2300" height="440" viewBox="0 0 2300 440" fill="none" xmlns="http://www.w3.org/2000/svg">
<g clip-path="url(#clip0_70_29)">
<rect width="2300" height="440" fill="black"/>
<g clip-path="url(#clip1_70_29)">
<path d="M454.16 155.58L458.53 156.09L462.68 156.87L466.61 157.83L470.33 158.99L473.85 160.4L477.11 161.98L480.19 163.81L483.02 165.86L485.69 168.07L488.12 170.52L490.33 173.15L492.32 176.03L494.1 179.13L495.68 182.38L497.04 185.91L498.18 189.56L499.14 193.51L499.88 197.59L500.39 201.96L500.7 206.47L500.81 211.24V212.4L500.77 213.49L500.66 214.54L500.35 216.55L500.14 217.44L499.88 218.33L499.61 219.11L498.87 220.58L498.52 221.21L498.03 221.83L497.56 222.41L497.04 222.88L496.46 223.37L495.89 223.73L495.26 224.11L494.57 224.35L493.83 224.62L493.1 224.84L492.32 224.93L491.47 225.04H402.54V224.31H402.34V242.68L402.38 245.14L402.65 247.54L403.01 249.82L403.59 251.96L404.28 254.01L405.17 255.95L406.15 257.74L407.38 259.45L408.67 261.04L410.21 262.55L411.88 263.91L413.67 265.18L415.65 266.34L417.81 267.39L420.07 268.33L422.54 269.18L425.15 269.84L427.94 270.49L430.88 270.96L433.96 271.32L437.21 271.63L440.63 271.78L444.19 271.85H445.51L446.83 271.78H448.07L449.35 271.74L450.55 271.7L451.75 271.58L452.96 271.54L455.28 271.32L456.37 271.23L457.49 271.05L459.58 270.74L460.56 270.58L461.61 270.38L464.46 269.76L465.4 269.49L466.29 269.26L467.14 269.02L467.97 268.71L468.81 268.44L469.28 268.28L469.75 268.06L470.29 267.9L470.8 267.66L471.38 267.44L471.96 267.17L472.58 266.86L473.21 266.59L475.26 265.5L476.06 265.07L476.77 264.65L478.47 263.71L479.29 263.2L480.19 262.66L481.08 262.08L482.97 260.84L483.98 260.19L485.03 259.52L486.07 258.78L487.32 257.62L488.59 256.58L489.17 256.11L489.69 255.68L490.27 255.26L490.8 254.84L491.74 254.1L492.67 253.48L493.1 253.21L493.52 253.01L493.9 252.74L494.61 252.43L494.95 252.27L495.26 252.16L495.51 252.07L496.04 251.96H496.89L497.94 252.07L498.45 252.16L498.92 252.27L499.41 252.43L499.81 252.58L500.55 253.01L500.92 253.28L501.55 253.9L501.82 254.21L502.08 254.59L502.49 255.42L502.64 255.88L502.75 256.42L502.91 256.96L502.98 257.47L503.07 258.05V258.67L503.13 259.36L503.07 259.99L503.02 260.68L502.91 261.35L502.82 261.97L502.17 264.02L501.86 264.65L501.55 265.34L501.19 266.03L500.77 266.7L500.3 267.39L499.81 268.02L498.76 269.38L497.51 270.74L496.15 272.12L494.57 273.48L493.72 274.15L492.9 274.88L491.43 275.93L489.91 276.98L488.33 277.98L486.7 278.99L485.03 279.88L483.24 280.77L481.41 281.55L479.52 282.33L477.58 283.07L475.53 283.76L473.43 284.38L471.27 284.96L469.08 285.54L466.81 286.01L462.1 286.86L459.63 287.17L457.11 287.48L454.54 287.68L451.87 287.91L449.19 288.02L446.45 288.11H443.61L438.75 288.06L434.07 287.8L429.61 287.37L425.37 286.75L421.32 286.01L417.5 285.08L413.93 283.96L410.52 282.67L407.38 281.24L404.43 279.61L401.69 277.83L399.13 275.84L396.87 273.72L394.78 271.43L392.88 268.91L391.26 266.28L389.85 263.44L388.58 260.46L387.64 257.27L386.86 253.94L386.28 250.44L385.97 246.72L385.86 242.84V195.72L385.97 194.34L386.06 193.09L386.22 191.77L386.44 190.46L386.64 189.21L386.95 187.94L387.26 186.73L387.69 185.48L388.11 184.28L388.58 183.08L389.11 181.92L390.25 179.6L390.94 178.46L391.63 177.34L392.37 176.25L393.15 175.2L394 174.16L394.89 173.11L396.76 171.1L397.77 170.1L399.13 168.8L402.07 166.37L403.63 165.28L405.26 164.23L406.95 163.23L408.74 162.29L410.52 161.4L412.4 160.62L414.34 159.82L416.34 159.15L418.39 158.5L420.53 157.88L422.7 157.36L424.95 156.87L427.2 156.47L429.57 156.16L431.97 155.83L434.38 155.58L436.9 155.42L439.49 155.27L442.1 155.2L444.77 155.16L449.55 155.27L454.16 155.58ZM433.76 171.64L429.72 172.3L425.78 173.31L421.96 174.56L418.33 176.1L414.83 177.88L411.61 180.4L408.89 183.01L406.58 185.84L404.75 188.78L403.43 191.88L402.58 195.14L402.34 198.55V208.21H484.18L483.29 198.4L480.77 190.06L476.53 183.23L470.53 177.92L462.88 174.09L453.43 171.84L442.32 171.06L437.95 171.21L433.76 171.64Z" fill="white"/>
<path d="M2135.67 101.73C2134.5 102.88 2133.34 104.55 2133.34 106.23C2133.33 109.13 2136.73 113.06 2143.03 119.52C2169.26 144.78 2182.46 175.72 2182.37 213.02C2182.27 254.3 2168.39 287.45 2141.41 313.14C2135.74 318.22 2133.41 322.2 2133.4 325.61C2133.4 327.29 2134.55 329.03 2135.71 330.7C2136.8 331.87 2139.12 333.03 2140.79 333.03C2147.03 333.05 2155.77 325.67 2167.17 311.31C2189.38 284.09 2199.42 254.03 2199.98 213.07C2200.5 172.08 2187.66 144.29 2162.5 115.59C2153.45 105.34 2145.91 100.01 2140.75 100C2139.08 100 2137.34 100.57 2135.67 101.73Z" fill="white"/>
<path d="M242.09 165.75C242.09 160.08 245.51 157.83 252.33 157.83C255.63 157.83 282.12 157.83 285.49 157.83C291.15 157.83 293.98 162.92 293.98 172.22C304.22 161.4 315.17 154.93 326.56 154.93C336.22 154.93 343.78 157.83 348.91 163.5C354.59 169.16 356.89 177.3 356.89 186.42C356.89 192.66 354.01 196.08 348.91 196.08C345.5 196.08 343.24 193.78 342.11 189.83C339.83 181.85 338.7 177.88 338.12 177.3C335.86 173.35 331.29 171.06 325.63 171.06C319.38 171.06 313.14 173.35 307.83 177.88C304.42 180.18 299.85 185.26 293.98 192.82C293.98 197.97 293.98 223.53 293.98 269.53C312.49 269.53 322.8 269.53 324.82 269.53C331.65 269.53 335.06 272.43 335.06 277.52C335.06 283.18 331.65 286.06 324.82 286.06C317.53 286.06 258.88 286.06 251.53 286.06C244.72 286.06 241.31 283.18 241.31 278.1C241.31 272.43 244.72 270.11 251.53 270.11C253.22 270.11 261.61 270.11 276.72 270.11C276.72 270.07 276.72 269.82 276.72 269.38C276.74 269.38 276.8 269.38 276.93 269.38C276.93 211.99 276.93 180.11 276.93 173.73C261.61 173.73 253.4 173.73 252.33 173.73C245.51 173.73 242.09 170.9 242.09 165.75Z" fill="white"/>
<path d="M2056.6 220.44C2046.75 217.92 2087.2 170.13 2015.3 112.91C2015.3 112.91 2024.74 142.88 1977.17 209.76C1929.58 276.62 1998.33 316.44 1998.33 316.44C1998.33 316.44 1966.07 299.25 2003.57 238.04C2010.29 226.93 2019.07 216.87 2029.98 194.24C2029.98 194.24 2039.63 207.86 2034.59 237.41C2027.05 282.06 2067.28 269.28 2067.91 269.9C2081.96 286.45 2056.27 315.53 2054.71 316.44C2053.15 317.33 2128.07 271.37 2074.84 202.2C2071.19 205.85 2066.46 222.96 2056.6 220.44Z" fill="white"/>
<path d="M109.66 157.99C110.93 157.99 116.99 157.99 128.08 157.99C128.08 148.33 128.08 142.98 128.08 141.89C128.08 113.86 142.46 100.01 170.47 100.01C181.86 100.01 191.72 102.31 199.05 106.3C208.71 111.96 214.06 121.26 214.06 132.08C214.06 139.41 211.19 142.29 206.1 142.29C202.69 142.29 199.28 139.99 197.54 136C195.29 128.66 193.03 124.67 191.87 122.78C188.46 118.79 181.64 116.53 171.78 116.53C154.57 116.53 146.07 125.03 146.07 142.29C146.07 143.29 146.07 148.49 146.07 157.83C165.96 157.83 176.98 157.83 179.19 157.83C186.57 157.83 189.98 160.66 189.98 165.75C189.98 171.41 186.57 173.73 179.19 173.73C176.98 173.73 165.96 173.73 146.07 173.73C146.07 236.6 146.07 271.47 146.07 278.45C146.07 284.7 143.19 288.11 138.09 288.11C132.42 288.11 130.13 284.7 130.13 278.45C130.13 271.47 130.13 236.78 130.13 173.91C130.1 173.91 110.67 173.89 109.66 173.89C103.41 173.89 100 171.06 100 165.97C100 160.24 103.41 157.99 109.66 157.99Z" fill="white"/>
<path d="M1918.81 101.76C1919.97 102.91 1921.13 104.58 1921.13 106.26C1921.14 109.16 1917.74 113.09 1911.44 119.55C1885.21 144.81 1872.02 175.75 1872.1 213.05C1872.2 254.33 1886.08 287.48 1913.06 313.17C1918.73 318.25 1921.06 322.23 1921.07 325.64C1921.07 327.32 1919.92 329.06 1918.76 330.73C1917.67 331.9 1915.36 333.06 1913.68 333.06C1907.44 333.08 1898.7 325.7 1887.3 311.34C1865.09 284.12 1855.05 254.06 1854.49 213.1C1853.97 172.11 1866.81 144.32 1891.97 115.62C1901.02 105.37 1908.57 100.04 1913.72 100.03C1915.39 100.03 1917.13 100.6 1918.81 101.76Z" fill="white"/>
<path d="M597.93 155.58L602.3 156.09L606.45 156.87L610.37 157.83L614.1 158.99L617.62 160.4L620.87 161.98L623.95 163.81L626.78 165.86L629.46 168.07L631.89 170.52L634.1 173.15L636.08 176.03L637.87 179.13L639.45 182.38L640.81 185.91L641.95 189.56L642.91 193.51L643.64 197.59L644.16 201.96L644.47 206.47L644.58 211.24V212.4L644.53 213.49L644.42 214.54L644.11 216.55L643.91 217.44L643.64 218.33L643.37 219.11L642.64 220.58L642.28 221.21L641.79 221.83L641.32 222.41L640.81 222.88L640.23 223.37L639.65 223.73L639.03 224.11L638.34 224.35L637.6 224.62L636.86 224.84L636.08 224.93L635.24 225.04H546.3V224.31H546.1V242.68L546.19 245.14L546.42 247.54L546.84 249.82L547.35 251.96L548.04 254.01L548.94 255.95L549.92 257.74L551.14 259.45L552.5 261.04L553.98 262.55L555.65 263.91L557.43 265.18L559.42 266.34L561.58 267.39L563.83 268.33L566.31 269.18L568.92 269.84L571.7 270.49L574.65 270.96L577.72 271.32L580.98 271.63L584.39 271.78L587.96 271.85H589.28L590.59 271.78H591.84L593.11 271.74L594.32 271.7L595.52 271.58L596.72 271.54L599.04 271.32L600.14 271.23L601.25 271.05L604.4 270.58L605.38 270.38L606.34 270.16L607.34 269.96L608.23 269.76L609.17 269.49L610.06 269.26L610.91 269.02L611.73 268.71L612.58 268.44L613.05 268.28L613.52 268.06L614.05 267.9L614.56 267.66L615.14 267.44L615.72 267.17L616.35 266.86L616.97 266.59L618.35 265.88L619.09 265.5L619.83 265.07L620.61 264.65L621.39 264.18L622.23 263.71L623.06 263.2L623.95 262.66L624.84 262.08L626.74 260.84L627.74 260.19L628.79 259.52L629.84 258.78L631.09 257.62L632.36 256.58L632.94 256.11L633.45 255.68L634.03 255.26L634.57 254.84L635.5 254.1L636.44 253.48L636.86 253.21L637.29 253.01L637.67 252.74L638.38 252.43L638.71 252.27L639.03 252.16L639.27 252.07L639.81 251.96H640.65L641.7 252.07L642.22 252.16L642.68 252.27L643.17 252.43L643.58 252.58L644.31 253.01L644.69 253.28L645.31 253.9L645.58 254.21L645.85 254.59L646.25 255.42L646.41 255.88L646.52 256.42L646.68 256.96L646.74 257.47L646.83 258.05V258.67L646.9 259.36L646.83 259.99L646.79 260.68L646.68 261.35L646.59 261.97L645.94 264.02L645.63 264.65L645.31 265.34L644.96 266.03L644.11 267.39L643.58 268.02L642.53 269.38L641.28 270.74L639.92 272.12L638.34 273.48L637.49 274.15L636.66 274.88L635.19 275.93L633.67 276.98L632.09 277.98L630.46 278.99L628.79 279.88L627.01 280.77L625.18 281.55L623.28 282.33L621.34 283.07L619.29 283.76L617.2 284.38L615.03 284.96L612.85 285.54L610.57 286.01L605.87 286.86L603.39 287.17L600.87 287.48L598.31 287.68L595.68 287.91L590.21 288.11H587.38L582.52 288.06L577.84 287.8L573.38 287.37L569.14 286.75L565.08 286.01L561.31 285.08L557.7 283.96L554.29 282.67L551.14 281.24L548.2 279.61L545.46 277.83L542.94 275.84L540.64 273.72L538.54 271.43L536.65 268.91L535.02 266.28L533.62 263.44L532.41 260.46L531.41 257.27L530.63 253.94L530.05 250.44L529.74 246.72L529.62 242.84V195.72L529.74 194.34L529.83 193.09L529.98 191.77L530.2 190.46L530.4 189.21L530.72 187.94L531.03 186.73L531.45 185.48L531.88 184.28L532.35 183.08L532.88 181.92L534.02 179.6L534.71 178.46L535.4 177.34L536.14 176.25L536.92 175.2L537.76 174.16L538.66 173.11L540.53 171.1L541.53 170.1L542.89 168.8L545.84 166.37L547.4 165.28L549.03 164.23L550.72 163.23L552.5 162.29L554.29 161.4L556.16 160.62L558.1 159.82L560.11 159.15L562.16 158.5L564.3 157.88L566.46 157.36L568.72 156.87L570.97 156.47L573.33 156.16L575.74 155.83L578.15 155.58L580.67 155.42L583.26 155.27L585.86 155.2L588.54 155.16L593.31 155.27L597.93 155.58ZM577.52 171.64L573.49 172.3L569.54 173.31L565.73 174.56L562.09 176.1L558.59 177.88L555.22 180.4L552.39 183.01L550.07 185.84L548.36 188.78L547.09 191.88L546.35 195.14L546.1 198.55V208.21H627.94L627.05 198.4L624.53 190.06L620.29 183.23L614.3 177.92L606.65 174.09L597.19 171.84L586.09 171.06L581.72 171.21L577.52 171.64Z" fill="white"/>
<path d="M1687.89 154.31L1688.2 154.38L1688.83 154.58L1689.14 154.73L1689.41 154.89L1689.72 155.04L1690.03 155.27L1690.3 155.47L1690.61 155.74L1690.88 155.98L1691.19 156.25L1691.7 156.87L1692.24 157.61L1692.51 158.03L1692.75 158.41L1692.97 158.88L1693.24 159.3L1693.29 159.73L1693.49 160.55L1693.64 161.02L1693.75 161.44L1693.91 161.87L1694.02 162.29L1694.18 162.72L1694.33 163.18L1694.8 164.43L1694.96 164.9L1695.27 165.75L1695.38 166.17L1695.54 166.6L1695.74 167.42L1695.92 167.8L1695.96 168.22L1696.07 168.58L1698.59 167.38L1703.52 165.08L1705.88 164.01L1708.23 163.03L1710.5 162.07L1712.75 161.18L1714.96 160.35L1717.1 159.62L1719.2 158.88L1721.25 158.26L1723.23 157.61L1725.24 157.1L1729.01 156.16L1730.86 155.78L1732.58 155.47L1734.32 155.2L1735.99 155.04L1737.62 154.89L1739.25 154.78H1740.76L1745.44 154.89L1749.84 155.16L1754.05 155.62L1758.02 156.25L1761.81 157.1L1765.38 158.1L1768.68 159.3L1771.82 160.66L1774.72 162.18L1777.4 163.92L1779.85 165.86L1782.1 167.91L1784.16 170.16L1785.99 172.62L1787.61 175.25L1789 178.04L1790.2 180.96L1791.14 184.12L1791.87 187.42L1792.45 190.88L1792.76 194.52L1792.88 198.33V245.87L1792.81 247.77L1792.72 249.55L1792.56 251.34L1792.34 253.05L1792.07 254.79L1791.72 256.42L1791.29 258.05L1790.82 259.63L1790.29 261.15L1789.73 262.62L1789.08 264.09L1788.35 265.5L1787.57 266.92L1786.72 268.28L1785.83 269.6L1784.89 270.85L1783.89 272.12L1782.8 273.32L1781.64 274.53L1780.48 275.69L1779.23 276.78L1777.91 277.87L1776.71 278.83L1775.5 279.66L1774.19 280.5L1772.87 281.28L1771.51 282.02L1770.15 282.71L1768.68 283.38L1767.21 283.96L1765.69 284.54L1762.55 285.59L1759.18 286.44L1757.51 286.79L1755.72 287.13L1753.94 287.37L1750.26 287.8L1748.37 287.95L1746.43 288.06L1744.49 288.11H1740.09L1737.66 288.02L1735.32 287.84L1733 287.68L1730.7 287.44L1728.43 287.13L1726.24 286.75L1721.83 285.81L1719.67 285.23L1717.57 284.65L1715.47 283.96L1713.42 283.22L1711.39 282.4L1709.39 281.55L1707.4 280.62L1705.46 279.61L1703.52 278.56L1701.63 277.47L1699.73 276.31L1697.9 275.04L1696.07 273.72V328.56L1696.01 329.61L1695.92 330.61L1695.81 331.5L1695.65 332.4L1695.43 333.24L1695.23 334.02L1694.96 334.8L1694.69 335.5L1694.33 336.19L1694.02 336.74L1693.6 337.32L1693.24 337.79L1692.75 338.28L1692.28 338.68L1691.77 339.06L1691.23 339.33L1690.65 339.58L1690.07 339.8L1689.45 339.91L1688.78 340H1687.4L1686.77 339.96L1686.15 339.8L1685.57 339.64L1684.99 339.42L1683.94 338.8L1683.47 338.44L1683.01 338.02L1682.58 337.48L1682.2 336.97L1681.85 336.39L1681.53 335.76L1681.27 335.07L1681 334.29L1680.8 333.51L1680.57 332.66L1680.42 331.73L1680.33 330.77L1680.22 329.72L1680.17 328.67V165.64L1680.22 164.59L1680.26 163.65L1680.37 162.72L1680.49 161.82L1680.64 160.98L1680.84 160.2L1681.07 159.46L1681.31 158.72L1681.85 157.45L1682.16 156.94L1682.54 156.41L1682.89 155.94L1683.32 155.58L1683.79 155.2L1684.21 154.89L1684.72 154.62L1685.77 154.31L1686.35 154.2H1687.31L1687.62 154.26L1687.89 154.31ZM1732.85 171.73L1730.48 171.88L1728.18 172.1L1725.98 172.42L1723.88 172.73L1721.83 173.15L1719.89 173.67L1717.99 174.24L1716.17 174.89L1714.43 175.61L1712.91 176.3L1711.33 177.14L1709.77 178.08L1708.14 179.17L1706.51 180.44L1704.84 181.8L1703.1 183.32L1701.31 184.95L1699.48 186.69L1697.52 188.58L1695.49 190.57V255.95H1696.07V255.73L1700.78 258.52L1705.35 261.04L1709.77 263.36L1714 265.34L1718.11 267.08L1722.1 268.48L1725.91 269.69L1729.54 270.65L1733.05 271.32L1736.41 271.7L1739.62 271.85L1742.39 271.78L1745.07 271.7L1747.65 271.43L1750.15 271.12L1752.58 270.74L1754.88 270.22L1757.08 269.64L1759.18 268.91L1761.19 268.13L1763.06 267.17L1764.8 266.19L1766.9 264.87L1768.73 263.44L1770.35 261.93L1771.78 260.3L1772.98 258.56L1773.99 256.73L1774.77 254.79L1775.39 252.81L1775.86 250.64L1776.08 248.39L1776.2 246.07V198.55L1776.08 195.81L1775.82 193.24L1775.3 190.88L1774.61 188.63L1773.68 186.53L1772.56 184.53L1771.2 182.7L1769.68 181.02L1767.9 179.51L1765.89 178.04L1763.71 176.76L1761.92 175.87L1760.03 175.05L1758.02 174.36L1755.93 173.73L1753.67 173.15L1751.31 172.68L1748.86 172.3L1746.27 171.99L1743.59 171.79L1740.83 171.68L1737.93 171.64L1735.36 171.68L1732.85 171.73Z" fill="white"/>
<path d="M773.4 117.63C784.78 126.19 790.66 138.32 790.66 153.06C790.66 159.88 787.83 163.3 782.1 163.3C778.11 163.3 775.28 159.88 773.6 153.06C772.45 147.4 770.19 142.29 767.36 136.94C762.21 127.86 751.26 123.71 734.2 123.71C719.24 123.71 709 127.13 702.76 134.48C697.05 141.31 693.64 151.74 693.64 167.06C693.64 173.04 693.64 220.63 693.64 226.56C693.64 242.1 697.05 252.9 703.29 259.72C710.12 267.12 720.55 271.05 735.36 271.05C757.71 271.05 770.77 263.13 773.6 247.61C774.7 241.88 775.28 239.05 775.28 238.47C776.44 235.06 778.69 233.38 782.1 233.38C787.83 233.38 790.66 236.8 790.66 243.62C790.66 258 784.93 268.8 772.82 277.36C763.17 283.6 751.04 287.02 735.14 287.02C716.79 287.02 702.56 283.02 692.12 274.46C679.99 266.54 674.91 252.9 674.91 235.06C674.91 192.15 674.91 168.27 674.91 163.5C674.91 125.76 694.22 107.41 734.4 107.41C750.46 107.41 763.01 110.82 773.4 117.63Z" fill="white"/>
<path d="M1595.86 169.36C1600.41 163.65 1604.4 160.24 1608.39 158.57C1612.32 156.32 1618.05 155.16 1624.45 155.16C1643.96 155.16 1654.19 164.81 1654.19 183.74C1654.19 193.04 1654.19 267.28 1654.19 276.58C1654.19 284.54 1651.36 287.95 1645.7 287.95C1639.97 287.95 1637.71 284.54 1637.71 276.58C1637.71 267.86 1637.71 198.33 1637.71 189.63C1637.71 177.72 1632.63 171.26 1622.77 171.26C1615.37 171.26 1607.81 175.78 1601.57 184.53C1601.57 193.78 1601.57 268.06 1601.57 277.36C1601.57 285.28 1598.69 288.69 1593.58 288.69C1588.46 288.69 1585.62 285.28 1585.62 277.36C1585.62 268.75 1585.62 200.11 1585.62 191.51C1585.62 178.24 1579.96 171.99 1569.5 171.99C1562.74 171.99 1556.28 176.56 1549.48 185.26C1549.48 194.52 1549.48 268.28 1549.48 277.52C1549.48 285.5 1546.62 288.91 1540.91 288.91C1535.25 288.91 1533 285.5 1533 277.52C1533 266.12 1533 175.05 1533 163.65C1533 157.99 1535.25 155.74 1539.82 155.74C1542.07 155.74 1544.32 157.41 1545.48 160.82C1546.62 162.34 1547.16 165.17 1547.16 168.58C1552.51 162.92 1555.92 159.5 1557.39 158.35C1560.8 156.09 1565.35 154.93 1571.82 154.93C1580.9 154.93 1589.03 159.5 1595.86 169.36Z" fill="white"/>
<path d="M888.05 155.47L894.07 156.32L899.73 157.45L904.88 158.99L909.65 160.82L913.96 163.03L917.79 165.55L921.21 168.42L924.13 171.57L926.65 175.14L928.7 178.97L930.28 183.16L931.44 187.74L932.11 192.55L932.33 197.75V244.78L932.11 249.98L931.44 254.79L930.33 259.36L928.77 263.56L926.76 267.39L924.35 270.89L921.45 274.1L918.15 276.98L914.38 279.5L910.19 281.71L905.51 283.56L900.42 285.08L894.91 286.23L888.94 287.06L882.54 287.6L875.71 287.75L868.47 287.68L861.69 287.28L855.4 286.48L849.62 285.39L844.34 283.92L839.5 282.09L835.15 279.92L831.27 277.4L827.86 274.53L824.87 271.32L822.4 267.75L820.34 263.87L818.78 259.63L817.67 254.99L817 250.06L816.78 244.78V197.75L817 192.55L817.67 187.74L818.83 183.16L820.41 178.97L822.44 175.14L824.96 171.57L827.9 168.42L831.32 165.55L835.15 163.03L839.46 160.82L844.18 158.99L849.38 157.45L855.04 156.32L861.06 155.47L867.58 154.93L874.56 154.78L881.53 154.93L888.05 155.47ZM861.29 171.64L856.02 172.57L851.32 173.89L847.1 175.56L843.45 177.66L840.35 180.07L837.83 182.92L835.82 186.06L834.42 189.56L833.52 193.51L833.26 197.75V244.78L833.52 249.02L834.42 252.9L835.82 256.46L837.87 259.63L840.46 262.4L843.6 264.8L847.33 266.81L851.63 268.48L856.51 269.69L861.96 270.58L868 271L874.56 271.05L881 271L886.89 270.58L892.28 269.8L897.06 268.6L901.31 267.01L904.99 265.03L908.14 262.66L910.7 259.88L912.71 256.69L914.11 253.12L915.01 249.13L915.27 244.78V197.75L915.01 193.51L914.11 189.56L912.71 186.06L910.66 182.92L908.03 180.07L904.88 177.66L901.11 175.56L896.74 173.89L891.77 172.57L886.26 171.64L880.11 171.06L873.4 170.9L867.11 171.06L861.29 171.64Z" fill="white"/>
<path d="M1452.56 153.73L1454.5 153.84L1456.33 154L1458.11 154.11L1459.85 154.31L1461.57 154.46L1463.27 154.73L1464.89 154.93L1466.45 155.27L1467.97 155.51L1469.44 155.89L1470.91 156.2L1472.27 156.56L1473.7 156.98L1475.02 157.41L1476.27 157.83L1477.54 158.3L1478.74 158.84L1479.95 159.3L1481.1 159.88L1482.2 160.4L1483.25 160.98L1484.29 161.6L1485.45 162.45L1486.55 163.34L1487.59 164.23L1488.6 165.24L1489.56 166.22L1490.49 167.33L1491.38 168.42L1492.23 169.58L1493.01 170.79L1493.75 172.04L1494.42 173.31L1495.11 174.62L1496.27 177.46L1496.78 178.93L1497.25 180.4L1497.67 181.96L1498.05 183.54L1498.36 185.17L1498.63 186.84L1498.83 188.58L1499.03 190.37L1499.15 192.15L1499.26 193.98V254.99L1499.3 255.8V256.58L1499.41 258.05L1499.52 259.41L1499.61 260.1L1499.72 260.72L1499.84 261.3L1499.99 261.93L1500.08 262.51L1500.42 263.56L1500.62 264.09L1501.24 265.5L1501.46 265.92L1501.71 266.34L1501.98 266.7L1502.6 267.44L1503.29 268.13L1503.4 268.17L1503.56 268.28L1503.65 268.37L1503.87 268.44L1504.03 268.55L1504.45 268.75L1504.7 268.91L1505.23 269.11L1505.55 269.26L1505.86 269.38L1506.97 269.84L1508.22 270.34L1508.69 270.49L1509.16 270.69L1509.65 270.85L1510.12 271.05L1510.63 271.27L1511.21 271.47L1511.52 271.58L1512.17 271.9L1512.41 272.12L1512.68 272.28L1513.22 272.68L1513.42 272.94L1513.62 273.17L1513.84 273.41L1514 273.72L1514.15 273.99L1514.46 274.62L1514.58 275L1514.69 275.31L1514.78 275.73L1514.89 276.09L1514.93 276.51L1515.04 276.94L1515.09 277.4V277.87L1515.16 278.36V280.46L1515.04 280.97L1515 281.4L1514.89 281.86L1514.78 282.29L1514.62 282.71L1514.46 283.07L1514.26 283.45L1514.04 283.76L1513.53 284.38L1513.26 284.65L1512.95 284.92L1511.83 285.54L1511.01 285.86L1510.54 285.97L1510.01 286.06L1508.96 286.17L1508.38 286.23H1507.33L1507.13 286.17H1506.97L1506.75 286.12H1506.55L1506.33 286.06L1505.28 285.86L1505.03 285.74L1504.7 285.7L1504.39 285.59L1504.07 285.54L1502.98 285.23L1502.56 285.12L1502.2 285.01L1501.78 284.92L1501.31 284.81L1500.88 284.65L1500.42 284.54L1498.94 284.03L1498.25 283.76L1497.58 283.56L1496.94 283.29L1495.69 282.87L1495.11 282.67L1494.53 282.49L1494.02 282.29L1493.53 282.13L1493.01 281.98L1492.59 281.82L1492.12 281.66L1491.7 281.55L1491.34 281.4L1490.96 281.28L1490.34 281.08L1489.56 280.77L1489.33 280.7L1489.18 280.62L1489.02 280.55L1488.66 280.5L1488.33 280.46L1487.97 280.35L1487.66 280.24L1487.35 280.08L1487.08 279.88L1486.77 279.66L1486.5 279.46L1486.23 279.19L1485.99 278.88L1485.72 278.61L1485.5 278.25L1485.3 277.94L1485.03 277.52L1484.83 277.14L1484.67 276.74L1484.45 276.31L1484.25 275.84L1483.94 274.88L1483.31 272.79L1483.13 272.21L1480.84 273.79L1478.63 275.26L1477.58 276L1475.6 277.25L1474.64 277.87L1472.85 279.03L1471.18 280.08L1470.4 280.55L1469.66 280.97L1468.3 281.82L1467.61 282.18L1467.03 282.56L1465.36 283.38L1464.89 283.6L1464.05 284.03L1463.62 284.12L1462.95 284.45L1462.26 284.65L1460.79 285.16L1458.43 285.81L1457.65 285.97L1456.8 286.17L1455.97 286.32L1454.19 286.64L1453.3 286.75L1452.41 286.9L1449.57 287.22L1448.57 287.28L1447.57 287.37L1446.56 287.44L1445.51 287.48L1444.53 287.53H1439.65L1438.02 287.48L1436.44 287.44L1433.29 287.22L1430.26 286.9L1428.79 286.7L1427.32 286.44L1424.49 285.9L1421.77 285.28L1420.45 284.92L1419.13 284.5L1417.86 284.07L1416.61 283.6L1414.21 282.67L1413.05 282.09L1411.89 281.55L1410.79 280.97L1409.68 280.35L1408.63 279.72L1407.58 279.03L1406.38 278.21L1405.22 277.36L1403.03 275.46L1402.03 274.53L1401.07 273.52L1400.13 272.48L1399.29 271.43L1398.46 270.34L1397.68 269.18L1396.99 268.02L1396.3 266.81L1395.67 265.61L1395.1 264.34L1394.58 263.09L1394.11 261.77L1393.27 259.05L1392.95 257.67L1392.69 256.26L1392.26 253.32L1392.06 250.29V247.14L1392.15 245.6L1392.26 244.04L1392.49 242.57L1393 239.63L1393.73 236.8L1394.2 235.44L1395.25 232.8L1395.9 231.49L1396.52 230.24L1397.99 227.83L1398.77 226.67L1399.62 225.56L1400.51 224.46L1401.5 223.42L1402.45 222.41L1403.5 221.43L1404.59 220.47L1406.91 218.69L1408.16 217.86L1410.37 216.28L1411.53 215.54L1413.94 214.18L1416.46 212.91L1417.77 212.36L1420.38 211.29L1421.77 210.82L1424.6 209.99L1426 209.61L1427.47 209.26L1428.95 208.94L1430.42 208.68L1431.93 208.41L1433.45 208.21L1435.03 208.05L1436.55 207.9L1438.18 207.78L1439.76 207.67L1441.39 207.63H1444.38L1445.74 207.67L1447.14 207.72L1449.97 207.94L1451.4 208.1L1452.87 208.25L1454.35 208.45L1455.86 208.72L1457.33 208.94L1458.85 209.26L1460.37 209.5L1461.95 209.84L1465.09 210.57L1469.98 211.82L1471.61 212.29L1473.32 212.76L1475.02 213.29L1476.73 213.8L1478.47 214.38L1480.26 214.96L1482.04 215.59V195.5L1482 194.34L1481.93 193.24L1481.84 192.15L1481.68 191.04L1481.46 190.06L1481.26 188.99L1480.95 188L1480.64 187.05L1480.26 186.11L1479.83 185.22L1479.37 184.32L1478.32 182.65L1477.69 181.8L1477.07 181.07L1476.38 180.29L1474.91 178.93L1474.06 178.24L1472.27 176.99L1471.34 176.41L1470.33 175.87L1469.29 175.36L1468.19 174.82L1467.46 174.51L1465.87 173.89L1462.53 172.84L1459.85 172.22L1458.89 172.04L1458 171.88L1457.02 171.73L1456.06 171.57L1455.13 171.48L1453.14 171.26L1452.09 171.15L1451.09 171.1L1450.04 170.99L1448.99 170.94H1447.95L1446.9 170.9H1442.17L1439.69 170.99L1437.29 171.1L1435.03 171.32L1432.87 171.57L1430.77 171.88L1428.83 172.22L1426.94 172.62L1425.15 173.11L1423.48 173.67L1421.92 174.24L1420.38 174.89L1418.98 175.61L1417.66 176.34L1416.46 177.19L1415.34 178.04L1414.3 178.97L1413.36 179.98L1412.51 181.07L1411.73 182.18L1411.11 183.32L1410.48 184.59L1409.99 185.91L1409.59 187.27L1409.28 188.67L1409.17 189.36L1409.01 189.99L1408.79 191.15L1408.59 192.2L1408.39 193.13L1408.27 193.56L1408.21 193.98L1408.12 194.34L1408.05 194.72L1407.96 195.03L1407.9 195.34L1407.81 195.88L1407.69 196.3V196.5L1407.65 196.66V196.81L1407.58 196.92V197.19L1407.43 197.55L1407.11 198.17L1406.96 198.44L1406.53 198.98L1406.38 199.22L1406.11 199.44L1405.91 199.64L1405.64 199.87L1405.44 200.02L1405.17 200.18L1404.86 200.34L1404.59 200.49L1404.28 200.58L1404.01 200.69L1403.7 200.8L1403.35 200.92L1403.03 200.96L1402.65 201.07L1402.3 201.12H1401.92L1401.56 201.16H1400.09L1399.47 201.12L1398.19 200.92L1397.61 200.8L1396.05 200.18L1395.56 199.87L1395.1 199.6L1394.67 199.22L1394.27 198.91L1393.53 198.08L1393.22 197.59L1392.69 196.66L1392.42 196.08L1392.26 195.5L1392.06 194.92L1391.91 194.29L1391.79 193.67L1391.75 192.98L1391.68 192.24V190.52L1391.75 189.48L1391.79 188.47L1391.95 187.47L1392.06 186.49L1392.49 184.48L1393 182.5L1393.31 181.49L1393.62 180.56L1394 179.55L1394.43 178.62L1394.89 177.61L1395.83 175.72L1397.57 172.88L1398.19 171.99L1398.89 171.06L1401.07 168.38L1401.92 167.49L1402.86 166.37L1405.06 164.39L1406.27 163.45L1408.9 161.67L1410.33 160.87L1411.78 160.08L1413.36 159.35L1414.94 158.66L1416.61 158.03L1418.4 157.41L1420.18 156.87L1422.08 156.36L1424.02 155.89L1426 155.47L1428.05 155.09L1430.15 154.73L1434.57 154.2L1436.86 154L1439.23 153.84L1441.63 153.73L1444.11 153.68L1446.63 153.64H1448.61L1450.62 153.68L1452.56 153.73ZM1428.48 226.83L1421.65 229.24L1416.35 232.69L1412.51 237.11L1410.21 242.5L1409.48 248.93L1409.68 252.27L1410.33 255.42L1411.42 258.4L1412.93 261.15L1414.87 263.56L1417.35 265.61L1420.29 267.28L1422.81 268.64L1425.58 269.8L1428.57 270.74L1431.78 271.47L1435.19 272.01L1438.8 272.32L1442.64 272.43L1446.01 272.32L1449.24 272.12L1452.41 271.7L1455.48 271.05L1458.49 270.27L1461.48 269.18L1464.4 267.86L1466.41 266.7L1468.62 265.23L1471.07 263.6L1473.7 261.77L1476.53 259.72L1479.48 257.51L1482.58 255.17V231.13L1477.22 229.5L1471.87 228.14L1466.57 226.98L1461.37 226.09L1456.29 225.4L1451.36 225L1446.63 224.89L1436.82 225.36L1428.48 226.83Z" fill="white"/>
<path d="M1066.8 100.38L1067.42 100.58L1068 100.89L1068.54 101.2L1069.05 101.58L1069.52 102.01L1070.37 102.94L1070.75 103.52L1071.06 104.15L1071.37 104.84L1071.64 105.51L1072.04 107.09L1072.35 108.88L1072.46 110.86L1072.53 111.91V280.29L1072.46 281.08L1072.42 281.81L1072.35 282.5L1072.04 283.75L1071.88 284.33L1071.64 284.87L1071.42 285.38L1070.79 286.34L1070.06 287.07L1069.63 287.43L1069.21 287.7L1068.7 287.97L1068.23 288.21L1067.69 288.43L1067.11 288.59L1065.86 288.79L1065.22 288.86H1064.08L1062.81 288.7L1062.38 288.59L1062.03 288.43L1061.65 288.32L1061.29 288.12L1060.98 287.97L1060.67 287.74L1060.36 287.48L1059.82 286.96L1059.55 286.65L1058.93 285.54L1058.77 285.13L1058.62 284.64L1058.5 284.17L1058.35 283.71L1058.3 283.19V282.39L1058.26 281.97V281.61L1058.19 281.19V280.83L1058.15 280.41V279.98L1058.08 279.56L1058.04 279.09L1057.99 278.67V278.2L1057.88 277.26V276.73L1057.84 276.26L1057.77 275.68V274.59L1057.72 274.01V272.73L1056.36 273.58L1055.09 274.43L1053.8 275.25L1051.37 276.73L1050.28 277.46L1049.12 278.15L1047.02 279.4L1046.02 279.98L1045.08 280.56L1044.14 281.08L1041.62 282.5L1040.89 282.86L1040.15 283.28L1038.79 283.91L1037.63 284.44L1037.05 284.64L1036.2 284.98L1035.31 285.29L1034.42 285.54L1032.55 286.07L1029.54 286.69L1028.49 286.92L1026.39 287.23L1024.19 287.54L1023.09 287.65L1020.8 287.85L1019.64 287.9L1018.43 287.97L1017.27 288.01L1016.07 288.05H1011.5L1009.4 288.01L1007.42 287.9L1005.41 287.74L1003.47 287.59L1001.53 287.32L999.7 287.07L996.02 286.43L992.56 285.6L990.83 285.13L989.2 284.64L987.57 284.09L984.43 282.93L982.91 282.23L981.44 281.57L980.01 280.83L978.61 280.03L977.24 279.25L975.86 278.4L974.46 277.42L971.74 275.21L970.51 274.05L969.31 272.85L968.17 271.58L967.1 270.28L966.12 268.9L965.16 267.54L963.49 264.62L962.75 263.08L962.13 261.52L961.5 259.89L960.97 258.26L960.5 256.52L960.14 254.74L959.81 252.95L959.56 251.13L959.34 249.23L959.25 247.29V195.24L959.34 193.3L959.56 191.47L959.76 189.69L960.07 187.91L960.5 186.17L960.92 184.49L961.43 182.87L962.01 181.28L962.64 179.77L963.37 178.25L964.11 176.78L964.96 175.35L965.89 173.99L966.85 172.68L967.9 171.36L968.95 170.16L970.11 168.95L971.31 167.79L973.92 165.61L975.35 164.6L976.6 163.76L977.87 162.97L979.23 162.19L980.66 161.46L982.06 160.77L983.53 160.08L986.57 158.94L988.15 158.36L991.41 157.4L994.75 156.57L996.49 156.26L998.27 155.95L1000.06 155.68L1001.89 155.42L1005.57 155.1L1007.46 154.99L1009.4 154.95H1013.91L1016.43 155.06L1017.63 155.1L1018.9 155.15L1020.06 155.26L1021.26 155.37L1022.36 155.46L1023.52 155.62L1025.72 155.95L1026.77 156.11L1028.87 156.51L1029.87 156.73L1030.81 156.93L1033.64 157.73L1034.49 158.05L1035.38 158.36L1036.2 158.67L1037.1 158.98L1037.94 159.36L1038.84 159.72L1039.73 160.14L1040.66 160.57L1042.45 161.5L1045.28 163.09L1046.24 163.64L1049.07 165.54L1051.06 166.9L1052.02 167.64L1053 168.37L1054 169.17L1055.98 170.85V111.91L1056.05 110.86L1056.14 108.88L1056.48 107.09L1056.63 106.31L1056.88 105.51L1057.1 104.84L1057.41 104.15L1057.72 103.52L1058.08 102.94L1058.46 102.48L1058.88 102.01L1059.31 101.58L1059.82 101.2L1060.29 100.89L1060.82 100.58L1061.4 100.38L1062.65 100.07L1063.28 100H1064.75L1065.44 100.07L1066.8 100.38ZM1009.82 172.32L1007.19 172.56L1004.63 172.83L1002.11 173.26L999.75 173.79L997.43 174.35L995.29 175.08L993.23 175.89L991.29 176.82L989.51 177.83L987.46 179.3L985.52 180.86L983.8 182.55L982.26 184.34L980.9 186.17L979.76 188.15L978.76 190.25L978.03 192.46L977.49 194.77L977.13 197.14L977.02 199.66V244.88L977.13 247.49L977.45 249.97L977.91 252.33L978.65 254.58L979.54 256.68L980.66 258.69L982.02 260.56L983.58 262.3L985.32 263.93L987.3 265.33L989.51 266.71L991.45 267.61L993.46 268.43L995.55 269.17L997.76 269.9L1000.01 270.53L1002.42 271.06L1004.9 271.53L1007.51 271.91L1010.18 272.16L1012.97 272.31L1015.85 272.38L1020.46 272.27L1022.74 272.11L1024.92 271.91L1029.23 271.26L1031.28 270.86L1033.28 270.33L1035.22 269.75L1037.05 269.12L1038.79 268.39L1040.24 267.38L1041.78 266.33L1043.34 265.24L1044.92 264.04L1046.55 262.83L1048.22 261.52L1049.96 260.16L1051.68 258.73L1053.46 257.21L1055.32 255.63L1057.14 254V188.06L1055 186.52L1052.91 185.12L1050.9 183.69L1048.92 182.38L1047.02 181.17L1045.24 180.08L1043.5 179.03L1041.87 178.14L1040.35 177.36L1038.95 176.67L1037.63 176.13L1035.74 175.42L1033.84 174.77L1031.9 174.19L1029.92 173.68L1027.93 173.26L1025.88 172.94L1023.78 172.63L1021.73 172.41L1019.57 172.25L1015.27 172.16L1012.55 172.21L1009.82 172.32Z" fill="white"/>
<path d="M1347.51 117.63C1358.9 126.19 1364.77 138.32 1364.77 153.06C1364.77 159.88 1361.94 163.3 1356.23 163.3C1352.28 163.3 1349.45 159.88 1347.73 153.06C1346.57 147.4 1344.32 142.29 1341.49 136.94C1336.34 127.86 1325.36 123.71 1308.33 123.71C1293.36 123.71 1283.13 127.13 1276.88 134.48C1271.22 141.31 1267.81 151.74 1267.81 167.06C1267.81 173.04 1267.81 220.63 1267.81 226.56C1267.81 242.1 1271.22 252.9 1277.46 259.72C1284.29 267.12 1294.68 271.05 1309.46 271.05C1331.83 271.05 1344.9 263.13 1347.73 247.61C1348.87 241.88 1349.45 239.05 1349.45 238.47C1350.56 235.06 1352.86 233.38 1356.23 233.38C1361.94 233.38 1364.77 236.8 1364.77 243.62C1364.77 258 1359.1 268.8 1346.99 277.36C1337.27 283.6 1325.16 287.02 1309.26 287.02C1290.89 287.02 1276.68 283.02 1266.29 274.46C1254.7 266.54 1249.03 252.9 1249.03 235.06C1249.03 192.15 1249.03 168.27 1249.03 163.5C1249.03 125.76 1268.54 107.41 1308.53 107.41C1324.63 107.41 1337.12 110.82 1347.51 117.63Z" fill="white"/>
<path d="M1172.05 155.58L1176.4 156.09L1180.55 156.87L1184.5 157.83L1188.22 158.99L1191.72 160.4L1195.05 161.98L1198.08 163.81L1200.95 165.86L1203.59 168.07L1205.99 170.52L1208.2 173.15L1210.25 176.03L1212.04 179.13L1213.62 182.38L1214.98 185.91L1216.12 189.56L1217.08 193.51L1217.81 197.59L1218.33 201.96L1218.64 206.47L1218.75 211.24L1218.71 212.4L1218.64 213.49L1218.55 214.54L1218.44 215.54L1218.24 216.55L1218.01 217.44L1217.75 218.33L1217.5 219.11L1217.19 219.85L1216.81 220.58L1216.39 221.21L1215.92 221.83L1215.45 222.41L1214.4 223.37L1213.13 224.11L1211.77 224.62L1210.99 224.84L1210.21 224.93L1209.36 225.04L1120.22 225.05L1120.21 242.68L1120.32 245.14L1120.52 247.54L1120.94 249.82L1121.48 251.96L1122.21 254.01L1123.04 255.95L1124.09 257.74L1125.25 259.45L1126.61 261.04L1128.08 262.55L1129.77 263.91L1131.6 265.18L1133.54 266.34L1135.68 267.39L1138 268.33L1140.41 269.18L1143.04 269.84L1145.83 270.49L1148.75 270.96L1151.85 271.32L1155.11 271.63L1158.52 271.78L1162.09 271.85H1163.4L1164.72 271.78H1165.97L1168.49 271.7L1169.69 271.58L1170.85 271.54L1173.15 271.32L1174.26 271.23L1175.35 271.05L1178.5 270.58L1180.51 270.16L1182.4 269.76L1183.29 269.49L1184.19 269.26L1185.08 269.02L1185.9 268.71L1187.17 268.28L1187.64 268.06L1188.15 267.9L1188.69 267.66L1189.27 267.44L1189.85 267.17L1190.47 266.86L1191.1 266.59L1192.46 265.88L1193.19 265.5L1193.93 265.07L1194.71 264.65L1195.51 264.18L1196.34 263.71L1197.19 263.2L1198.08 262.66L1198.97 262.08L1199.91 261.46L1201.91 260.19L1202.92 259.52L1203.97 258.78L1204.59 258.2L1205.26 257.62L1205.84 257.11L1206.48 256.58L1207.04 256.11L1207.62 255.68L1208.67 254.84L1209.16 254.48L1209.67 254.1L1210.14 253.79L1210.57 253.48L1210.99 253.21L1211.41 253.01L1211.77 252.74L1212.51 252.43L1212.82 252.27L1213.44 252.07L1213.71 252L1213.93 251.96H1214.76L1215.34 252L1215.87 252.07L1216.81 252.27L1217.28 252.43L1217.7 252.58L1218.13 252.81L1218.48 253.01L1218.79 253.28L1219.44 253.9L1219.69 254.21L1219.95 254.59L1220.38 255.42L1220.53 255.88L1220.69 256.42L1220.91 257.47L1220.96 258.05L1221 258.67V259.99L1220.91 260.68L1220.85 261.35L1220.69 261.97L1220.53 262.66L1220.33 263.36L1220.07 264.02L1219.75 264.65L1219.44 265.34L1219.06 266.03L1218.24 267.39L1217.75 268.02L1217.23 268.71L1216.07 270.07L1214.02 272.12L1211.66 274.15L1210.77 274.88L1207.85 276.98L1206.26 277.98L1204.59 278.99L1202.92 279.88L1201.13 280.77L1199.28 281.55L1197.39 282.33L1195.45 283.07L1193.42 283.76L1191.32 284.38L1189.16 284.96L1186.95 285.54L1184.7 286.01L1182.4 286.44L1179.97 286.86L1177.52 287.17L1175 287.48L1172.41 287.68L1169.8 287.91L1164.34 288.11H1161.51L1156.62 288.06L1151.96 287.8L1147.5 287.37L1143.24 286.75L1139.25 286.01L1135.44 285.08L1131.8 283.96L1128.46 282.67L1125.25 281.24L1122.3 279.61L1119.58 277.83L1117.06 275.84L1114.77 273.72L1112.65 271.43L1110.82 268.91L1109.15 266.28L1107.72 263.44L1106.52 260.46L1105.51 257.27L1104.73 253.94L1104.22 250.44L1103.84 246.72L1103.73 242.84V197.01L1103.8 195.72L1103.84 194.34L1103.95 193.09L1104.11 191.77L1104.31 190.46L1104.84 187.94L1105.2 186.73L1105.58 185.48L1106 184.28L1106.47 183.08L1106.98 181.92L1108.14 179.6L1108.83 178.46L1109.5 177.34L1110.24 176.25L1111.09 175.2L1111.87 174.16L1112.76 173.11L1114.66 171.1L1115.7 170.1L1117.06 168.8L1118.49 167.58L1120.01 166.37L1121.52 165.28L1123.15 164.23L1124.89 163.23L1126.61 162.29L1128.46 161.4L1130.29 160.62L1132.23 159.82L1134.23 159.15L1138.43 157.88L1140.57 157.36L1142.82 156.87L1145.09 156.47L1147.44 156.16L1149.87 155.83L1152.32 155.58L1154.79 155.42L1157.36 155.27L1159.99 155.2L1162.67 155.16L1167.48 155.27L1172.05 155.58ZM1151.69 171.64L1147.61 172.3L1143.67 173.31L1139.9 174.56L1136.22 176.1L1132.76 177.88L1129.35 180.4L1126.52 183.01L1124.24 185.84L1122.46 188.78L1121.21 191.88L1120.48 195.14L1120.21 198.55V208.21H1202.07L1201.22 198.4L1198.66 190.06L1194.4 183.23L1188.42 177.92L1180.77 174.09L1171.32 171.84L1160.19 171.06L1155.89 171.21L1151.69 171.64Z" fill="white"/>
</g>
</g>
<defs>
<clipPath id="clip0_70_29">
<rect width="2300" height="440" fill="white"/>
</clipPath>
<clipPath id="clip1_70_29">
<rect width="2100" height="240" fill="white" transform="translate(100 100)"/>
</clipPath>
</defs>
</svg>
