<svg width="600" height="600" viewBox="0 0 600 600" fill="none" xmlns="http://www.w3.org/2000/svg">
<g clip-path="url(#clip0_110_7)">
<g clip-path="url(#clip1_110_7)">
<path d="M82 161.77C82 140.614 90.4043 120.324 105.364 105.364C120.324 90.4043 140.614 82 161.77 82H438.212C448.689 81.9976 459.064 84.0592 468.744 88.0669C478.424 92.0746 487.22 97.9501 494.63 105.358C502.039 112.765 507.916 121.56 511.926 131.239C515.936 140.918 518 151.293 518 161.77V438.212C518.002 448.691 515.94 459.067 511.931 468.748C507.922 478.43 502.045 487.226 494.636 494.636C487.226 502.045 478.43 507.922 468.748 511.931C459.067 515.94 448.691 518.002 438.212 518H161.77C151.293 518 140.918 515.936 131.239 511.926C121.56 507.916 112.765 502.039 105.358 494.63C97.9501 487.22 92.0746 478.424 88.0669 468.744C84.0592 459.064 81.9976 448.689 82 438.212V161.77Z" fill="url(#paint0_linear_110_7)"/>
<path fill-rule="evenodd" clip-rule="evenodd" d="M440.616 108.239C454.184 108.239 467.196 113.629 476.79 123.222C486.384 132.816 491.773 145.828 491.773 159.396V440.616C491.773 454.184 486.384 467.196 476.79 476.79C467.196 486.384 454.184 491.773 440.616 491.773H159.396C145.828 491.773 132.816 486.384 123.222 476.79C113.629 467.196 108.239 454.184 108.239 440.616V159.396C108.239 145.828 113.629 132.816 123.222 123.222C132.816 113.629 145.828 108.239 159.396 108.239H440.616ZM213.46 237.585L354.288 305.311L213.46 373.018V423.921L387.079 340.427V270.195L213.46 186.701V237.585Z" fill="#1E1E2E"/>
</g>
</g>
<defs>
<linearGradient id="paint0_linear_110_7" x1="518" y1="201.664" x2="82" y2="381.641" gradientUnits="userSpaceOnUse">
<stop stop-color="#EE4D5D"/>
<stop offset="0.328" stop-color="#B381DD"/>
<stop offset="0.476" stop-color="#207CFE"/>
</linearGradient>
<clipPath id="clip0_110_7">
<rect width="600" height="600" fill="white"/>
</clipPath>
<clipPath id="clip1_110_7">
<rect width="436" height="436" fill="white" transform="translate(82 82)"/>
</clipPath>
</defs>
</svg>
