<svg width="600" height="600" viewBox="0 0 600 600" fill="none" xmlns="http://www.w3.org/2000/svg">
<g clip-path="url(#clip0_111_7)">
<mask id="mask0_111_7" style="mask-type:luminance" maskUnits="userSpaceOnUse" x="0" y="0" width="600" height="600">
<path d="M600 0H0V600H600V0Z" fill="white"/>
</mask>
<g mask="url(#mask0_111_7)">
<path d="M455 0H145C64.9187 0 0 64.9187 0 145V455C0 535.081 64.9187 600 145 600H455C535.081 600 600 535.081 600 455V145C600 64.9187 535.081 0 455 0Z" fill="black"/>
</g>
<path d="M247.201 355.203L401.459 240.688C409.021 235.074 419.831 237.264 423.434 245.984C442.399 291.973 433.926 347.24 396.193 385.186C358.46 423.132 305.959 431.453 257.971 412.501L205.549 436.909C280.738 488.592 372.041 475.81 429.096 418.393C474.352 372.882 488.368 310.846 475.262 254.903L475.381 255.022C456.376 172.84 480.053 139.99 528.556 72.8179C529.703 71.2252 530.854 69.6325 532 68L468.175 132.186V131.987L247.162 355.243" fill="white"/>
<path d="M215.368 383.036C161.402 331.193 170.706 250.961 216.754 204.694C250.805 170.45 306.593 156.475 355.293 177.02L407.596 152.732C398.173 145.883 386.097 138.517 372.239 133.341C309.602 107.419 234.611 120.32 183.693 171.486C134.715 220.74 119.314 296.473 145.762 361.096C165.52 409.395 133.132 443.558 100.507 478.04C88.9451 490.264 77.3442 502.488 68 515.429L215.329 383.076" fill="white"/>
</g>
<defs>
<clipPath id="clip0_111_7">
<rect width="600" height="600" fill="white"/>
</clipPath>
</defs>
</svg>
