<svg xmlns="http://www.w3.org/2000/svg" viewBox="0 0 1190.55 841.89" fill="#010202" xmlns:v="https://vecta.io/nano"><path d="M146.45 451.34c0 11.12 2.44 19.66 5.63 24.82 3.45 6 9.86 9.68 16.78 9.63 8.2 0 15.71-2.04 30.17-22.04 11.58-16.03 25.23-38.53 34.42-52.63l15.55-23.9c10.8-16.6 23.31-35.05 37.65-47.56 11.71-10.21 24.33-15.88 37.04-15.88 21.34 0 41.66 12.36 57.22 35.55 17.02 25.4 25.29 57.39 25.29 90.4 0 19.63-3.87 34.05-10.45 45.44-6.36 11.02-18.75 22.02-39.6 22.02v-31.41c17.85 0 22.31-16.41 22.31-35.18 0-26.75-6.24-56.45-19.98-77.66-9.75-15.05-22.39-24.24-36.29-24.24-15.04 0-27.14 11.34-40.74 31.56-7.23 10.74-14.65 23.84-22.98 38.61l-9.17 16.25c-18.43 32.68-23.1 40.12-32.31 52.4-16.15 21.51-29.94 29.66-48.11 29.66-21.54 0-35.16-9.33-43.59-23.38-6.88-11.45-10.26-26.48-10.26-43.6l31.42 1.14z"/><path d="M139.8 361.56c14.42-22.23 35.23-37.77 59.1-37.77 13.83 0 27.56 4.09 41.91 15.81 15.7 12.81 32.42 33.9 53.3 68.67l7.48 12.48c18.07 30.1 28.34 45.58 34.36 52.88 7.74 9.38 13.15 12.17 20.19 12.17 17.85 0 22.31-16.41 22.31-35.18l27.75-.87c0 19.63-3.87 34.05-10.45 45.44-6.36 11.02-18.75 22.02-39.6 22.02-12.97 0-24.45-2.81-37.14-14.79-9.76-9.19-21.17-25.53-29.95-40.21l-26.11-43.63c-13.1-21.89-25.12-38.22-32.08-45.61-7.48-7.95-17.1-17.55-32.46-17.55-12.43 0-22.98 8.72-31.81 22.06l-26.8-15.92z"/><path d="M198.39 355.42c-12.43 0-22.98 8.72-31.81 22.06-12.49 18.84-20.13 46.91-20.13 73.87 0 11.12 2.44 19.66 5.63 24.82l-26.82 17.66c-6.89-11.45-10.27-26.48-10.27-43.6 0-31.14 8.55-63.59 24.8-88.66 14.42-22.22 35.23-37.77 59.1-37.77l-.5 31.62zm268.95-25.51h36.39l61.86 111.92 61.87-111.92h35.6v183.9h-29.68V372.86l-54.26 97.6h-27.85l-54.25-97.6V513.8h-29.68V329.91zm288.72 68.56c-21.29 0-34.11 16.02-37.17 35.86h72.24c-1.49-20.43-13.28-35.86-35.07-35.86h0zm-66.6 47.16c0-41.74 26.98-72.12 67.12-72.12 39.48 0 63.06 30 63.06 74.35v8.15H718.89c3.57 21.58 17.89 36.13 40.98 36.13 18.42 0 29.93-5.62 40.85-15.9l15.77 19.31c-14.86 13.66-33.75 21.54-57.67 21.54-43.46 0-69.36-31.68-69.36-71.46h0zm166.16-44.52H828.3v-24.3h27.32v-40.19h28.64v40.19h41.51v24.3h-41.51v61.61c0 21.03 6.72 28.51 23.25 28.51a96.44 96.44 0 0 0 18.26-1.71v24.04c-7.73 2.21-15.74 3.31-23.78 3.27-30.92 0-46.37-16.9-46.37-50.7v-65.02zm190.74 23.63c-5.75-14.52-18.58-25.22-37.44-25.22-24.51 0-40.19 17.39-40.19 45.71 0 27.61 14.44 45.84 39.02 45.84 19.32 0 33.11-11.24 38.61-25.22v-41.11zM1075 513.8h-28.12v-19.17c-7.86 11.29-22.16 22.46-45.32 22.46-37.25 0-62.14-31.18-62.14-71.85 0-41.05 25.49-71.72 63.72-71.72 18.9 0 33.72 7.55 43.74 20.89v-17.6h28.11l.01 136.99z"/></svg>