<svg width="600" height="600" viewBox="0 0 600 600" fill="none" xmlns="http://www.w3.org/2000/svg">
<g clip-path="url(#clip0_103_21)">
<g clip-path="url(#clip1_103_21)">
<path d="M300 98.7842C164.96 98.7842 97.4399 211.318 97.4399 301.344C97.4399 391.371 164.96 481.397 232.48 503.883V548.896H277.493V503.883C277.493 503.883 300 512.885 322.507 503.883V548.896H367.52V503.883C435.04 481.376 502.56 391.371 502.56 301.344C502.56 211.318 435.04 98.7842 300 98.7842Z" fill="url(#paint0_linear_103_21)"/>
<path d="M119.947 256.331C52.4479 233.824 29.9199 278.837 52.4479 323.851C74.9545 368.864 119.947 346.357 142.475 301.344C155.957 269.835 142.475 256.331 119.947 256.331Z" fill="url(#paint1_linear_103_21)"/>
<path d="M480.053 256.331C547.552 233.824 570.08 278.837 547.552 323.851C525.045 368.864 480.053 346.357 457.525 301.344C444.043 269.835 457.525 256.331 480.053 256.331Z" fill="url(#paint2_linear_103_21)"/>
<path d="M161.483 84C171.638 77.92 183.584 79.0293 195.936 84.7893C208.246 90.5493 222.027 101.301 237.259 116.533C238.523 117.798 239.234 119.513 239.234 121.301C239.234 123.09 238.523 124.805 237.259 126.069C235.994 127.334 234.279 128.044 232.491 128.044C230.703 128.044 228.987 127.334 227.723 126.069C212.939 111.285 200.438 101.792 190.24 97.0347C180.107 92.2987 173.28 92.6613 168.438 95.5627C166.912 96.342 165.148 96.5136 163.502 96.0429C161.855 95.5721 160.448 94.494 159.565 93.0263C158.682 91.5586 158.389 89.8106 158.745 88.1352C159.101 86.4599 160.08 84.982 161.483 84ZM404.043 84.8107C416.416 79.0507 428.363 77.92 438.518 84C439.921 84.982 440.899 86.4599 441.255 88.1352C441.611 89.8106 441.318 91.5586 440.435 93.0263C439.553 94.494 438.146 95.5721 436.499 96.0429C434.852 96.5136 433.088 96.342 431.563 95.5627C426.72 92.6613 419.894 92.2987 409.76 97.0347C399.563 101.792 387.062 111.285 372.299 126.069C371.673 126.697 370.929 127.195 370.111 127.535C369.292 127.875 368.414 128.051 367.528 128.052C366.641 128.053 365.763 127.879 364.944 127.541C364.125 127.203 363.38 126.706 362.752 126.08C362.125 125.454 361.627 124.71 361.286 123.892C360.946 123.073 360.771 122.195 360.77 121.309C360.769 120.422 360.942 119.544 361.281 118.725C361.619 117.906 362.115 117.161 362.742 116.533C377.974 101.301 391.755 90.5493 404.043 84.8107Z" fill="#FF4D4D"/>
<path d="M232.48 238.326C239.643 238.326 246.513 235.48 251.578 230.415C256.643 225.35 259.488 218.481 259.488 211.318C259.488 204.155 256.643 197.285 251.578 192.22C246.513 187.155 239.643 184.31 232.48 184.31C225.317 184.31 218.448 187.155 213.383 192.22C208.318 197.285 205.472 204.155 205.472 211.318C205.472 218.481 208.318 225.35 213.383 230.415C218.448 235.48 225.317 238.326 232.48 238.326ZM367.52 238.326C374.683 238.326 381.553 235.48 386.618 230.415C391.683 225.35 394.528 218.481 394.528 211.318C394.528 204.155 391.683 197.285 386.618 192.22C381.553 187.155 374.683 184.31 367.52 184.31C360.357 184.31 353.488 187.155 348.423 192.22C343.358 197.285 340.512 204.155 340.512 211.318C340.512 218.481 343.358 225.35 348.423 230.415C353.488 235.48 360.357 238.326 367.52 238.326Z" fill="#050810"/>
<path d="M236.981 218.08C239.969 218.08 242.834 216.893 244.946 214.781C247.059 212.668 248.245 209.803 248.245 206.816C248.245 203.828 247.059 200.963 244.946 198.851C242.834 196.738 239.969 195.552 236.981 195.552C233.997 195.552 231.134 196.737 229.024 198.848C226.914 200.958 225.728 203.821 225.728 206.805C225.728 209.79 226.914 212.652 229.024 214.762C231.134 216.873 233.997 218.08 236.981 218.08ZM372.021 218.08C375.006 218.08 377.868 216.894 379.979 214.784C382.089 212.673 383.275 209.811 383.275 206.826C383.275 203.842 382.089 200.98 379.979 198.869C377.868 196.759 375.006 195.573 372.021 195.573C369.04 195.573 366.18 196.758 364.072 198.866C361.963 200.974 360.779 203.834 360.779 206.816C360.779 209.797 361.963 212.657 364.072 214.766C366.18 216.874 369.04 218.08 372.021 218.08Z" fill="#00E5CC"/>
</g>
</g>
<defs>
<linearGradient id="paint0_linear_103_21" x1="29.9413" y1="53.7709" x2="620.491" y2="531.574" gradientUnits="userSpaceOnUse">
<stop stop-color="#FF4D4D"/>
<stop offset="1" stop-color="#991B1B"/>
</linearGradient>
<linearGradient id="paint1_linear_103_21" x1="43.9999" y1="250.336" x2="135.968" y2="362.912" gradientUnits="userSpaceOnUse">
<stop stop-color="#FF4D4D"/>
<stop offset="1" stop-color="#991B1B"/>
</linearGradient>
<linearGradient id="paint2_linear_103_21" x1="457.547" y1="256.331" x2="564.512" y2="352.523" gradientUnits="userSpaceOnUse">
<stop stop-color="#FF4D4D"/>
<stop offset="1" stop-color="#991B1B"/>
</linearGradient>
<clipPath id="clip0_103_21">
<rect width="512" height="512" fill="white" transform="translate(44 44)"/>
</clipPath>
<clipPath id="clip1_103_21">
<rect width="512" height="512" fill="white" transform="translate(44 44)"/>
</clipPath>
</defs>
</svg>
