<svg xmlns="http://www.w3.org/2000/svg" viewBox="0 0 2664 777" xmlns:v="https://vecta.io/nano"><path d="M248.284 630.947c38.848-1.357 73.125-9.847 102.832-25.47s52.447-37.351 68.222-65.182 23.04-59.553 21.797-95.164c-1.3-37.229-10.993-67.278-29.078-90.146s-39.615-39.943-64.589-51.226-55.743-22.228-92.308-32.836c-35.486-10.646-60.947-20.426-76.385-29.34s-23.448-21.735-24.032-38.461c-.509-14.568 5.035-25.971 16.633-34.209s27.377-12.706 47.341-13.403c48.56-1.696 90.571 17.906 126.033 58.804h0l66.975-77.699c-28.573-29.254-58.602-49.949-90.088-62.085s-65.304-17.572-101.455-16.31c-56.654 1.978-102.166 17.478-136.536 46.5S32.955 173.07 34.689 222.71c1.149 32.913 9.915 59.618 26.297 80.114s35.962 35.884 58.74 46.163 51.351 20.221 85.72 29.825c27.279 7.691 48.586 14.51 63.92 20.457s27.756 13.617 37.268 23.008 14.531 21.641 15.059 36.749c.678 19.424-5.924 35.321-19.808 47.69s-32.966 18.978-57.246 19.826c-27.517.961-53.573-6.503-78.168-22.39s-46.639-39.968-66.133-72.24h0l-85.063 70.227c26.923 43.898 60.484 76.759 100.681 98.585s84.307 31.9 132.328 30.223zm226.932 129.83c46.942-1.639 84.183-6.451 111.726-14.436s50.012-22.005 67.409-42.06 32.72-49.222 45.969-87.5h0l145.496-428.07-127.066 4.437-74.11 291.063-5.665.198-93.423-285.213-126.257 4.409 165.449 398.574c-6.894 19.148-18.916 34.559-36.066 46.232s-42.72 18.103-76.712 19.29h0l3.25 93.074zm533.547-162.869l-8.564-245.229c-.848-24.28 6.293-44.112 21.422-59.497s35.103-23.51 59.923-24.376c22.122-.773 39.6 4.695 52.433 16.401s19.675 29.7 20.522 53.98h0l8.846 253.322 118.163-4.126-9.581-274.365c-1.545-44.244-15.878-79.533-42.998-105.866s-62.262-38.747-105.427-37.24c-28.597.999-53.493 7.405-74.689 19.22s-37.958 26.851-50.285 45.108h0l-4.047.141-1.809-51.798-117.354 4.098 14.47 414.38 118.972-4.155zm566.904-19.797l-3.222-92.264-49.37 1.724c-12.949.452-22.37-2.46-28.261-8.737s-9.101-16.969-9.629-32.077h0l-7.094-203.144 85.79-2.996-2.685-76.887-85.79 2.996-5.031-144.062-118.163 4.126 5.031 144.062-57.463 2.007 2.685 76.887 57.463-2.007 8.111 232.28c1.168 33.453 10.571 59.055 28.207 76.806s42.102 26.081 73.397 24.988h0l106.023-3.702zm171.45 2.926c22.122-.773 45.158-6.304 69.108-16.594s44.787-24.658 62.51-43.104h0l1.611 46.132 104.404-3.646-9.864-282.459c-1.639-46.942-19.86-81.419-54.662-103.433s-79.721-32.06-134.756-30.138c-42.086 1.47-77.312 9.858-105.679 25.164s-52.061 36.797-71.083 64.472h0l74.79 53.301c13.927-18.854 28.978-32.615 45.152-41.283s36.401-13.426 60.681-14.274c27.517-.961 47.637 2.793 60.357 11.263s19.709 22.946 20.964 43.431c-11.757 3.652-20.585 6.121-26.482 7.407l-102.606 31.944c-21.356 7.228-41.056 15.479-59.1 24.753-50.893 27.708-75.464 66.651-73.711 116.83 1.244 35.611 14.363 63.244 39.359 82.899s57.997 28.767 99.004 27.335zm29.293-89.348c-12.41.433-22.779-2.581-31.108-9.043s-12.71-15.898-13.143-28.308c-.678-19.424 10.925-35.225 34.809-47.404 10.603-5.772 25.912-12.114 45.929-19.026l60.469-20.344h0l2.544 72.84c-12.943 16.118-28.04 28.53-45.293 37.236s-35.322 13.388-54.206 14.048zm379.48 66.16l77.889-136.423 87.216 130.658 144.062-5.031-152.163-203.75 137.693-210.631-144.062 5.031-78.002 133.186-87.103-127.42-144.062 5.031 150.431 200.569-135.961 213.811 144.062-5.031zm488.399-17.055l-4.466-127.875-143.253 5.002 4.466 127.875 143.253-5.002z" fill="#fabf46"/></svg>