<svg
  viewBox="0 0 428 110"
  xmlns="http://www.w3.org/2000/svg"
  version="1.1"
  style="shape-rendering:geometricPrecision; text-rendering:geometricPrecision; image-rendering:optimizeQuality; fill-rule:evenodd; clip-rule:evenodd"
>
  <g>
    <path
      style="opacity:1"
      fill="#c3b579"
      d="M 31.5,-0.5 C 38.1667,-0.5 44.8333,-0.5 51.5,-0.5C 62.6961,1.68183 72.5295,6.68183 81,14.5C 83.1939,17.5544 84.8605,20.8878 86,24.5C 87.6879,32.7912 89.0212,41.1245 90,49.5C 92.2798,53.4467 94.9465,57.1134 98,60.5C 98.6667,62.5 98.6667,64.5 98,66.5C 95.8627,67.4786 94.0294,68.8119 92.5,70.5C 92.9312,71.2935 93.2645,72.1268 93.5,73C 92.3931,76.2593 91.0598,79.4259 89.5,82.5C 90.9865,86.5931 90.8198,90.5931 89,94.5C 81.9166,96.562 74.7499,98.3953 67.5,100C 64.0375,102.195 62.7042,105.361 63.5,109.5C 46.5,109.5 29.5,109.5 12.5,109.5C 13.4812,106.579 14.3146,103.579 15,100.5C 15.6667,90.8333 15.6667,81.1667 15,71.5C 7.55189,64.9282 2.38522,56.9282 -0.5,47.5C -0.5,40.8333 -0.5,34.1667 -0.5,27.5C 2.25578,15.896 9.25578,7.72929 20.5,3C 24.2541,1.69123 27.9207,0.524565 31.5,-0.5 Z"
    />
  </g>
  <g>
    <path
      style="opacity:1"
      fill="#e2d5a5"
      d="M 29.5,4.5 C 9.14755,13.5328 1.14755,29.1995 5.5,51.5C 1.16718,40.4298 1.66718,29.4298 7,18.5C 12.68,10.9099 20.18,6.24324 29.5,4.5 Z"
    />
  </g>
  <g>
    <path
      style="opacity:0.906"
      fill="#553669"
      d="M 251.5,10.5 C 255.833,10.5 260.167,10.5 264.5,10.5C 264.333,34.8356 264.5,59.1689 265,83.5C 267.248,86.3512 268.082,89.6845 267.5,93.5C 263.395,93.7662 259.395,93.2662 255.5,92C 253.513,90.6811 252.346,88.8477 252,86.5C 251.5,61.1689 251.333,35.8355 251.5,10.5 Z"
    />
  </g>
  <g>
    <path
      style="opacity:0.918"
      fill="#543668"
      d="M 283.5,10.5 C 292.158,9.32702 295.992,12.9937 295,21.5C 289.924,26.756 284.924,26.756 280,21.5C 278.663,16.8721 279.83,13.2054 283.5,10.5 Z"
    />
  </g>
  <g>
    <path
      style="opacity:0.921"
      fill="#553769"
      d="M 370.5,10.5 C 381.515,10.0652 384.515,14.5652 379.5,24C 369.054,27.5418 364.887,24.0418 367,13.5C 368.145,12.3636 369.312,11.3636 370.5,10.5 Z"
    />
  </g>
  <g>
    <path
      style="opacity:0.996"
      fill="#4a4a4a"
      d="M 120.5,14.5 C 123.5,14.5 126.5,14.5 129.5,14.5C 129.5,41.1667 129.5,67.8333 129.5,94.5C 126.5,94.5 123.5,94.5 120.5,94.5C 120.5,67.8333 120.5,41.1667 120.5,14.5 Z"
    />
  </g>
  <g>
    <path
      style="opacity:1"
      fill="#e7dbaa"
      d="M 49.5,3.5 C 59.8289,4.88563 68.9956,8.88563 77,15.5C 79.4349,18.9335 81.4349,22.6002 83,26.5C 84.0944,35.2092 85.4278,43.8759 87,52.5C 89.3494,56.5278 92.1827,60.1945 95.5,63.5C 93.2672,64.7422 91.1005,66.0755 89,67.5C 88.3486,69.235 88.5153,70.9017 89.5,72.5C 88.1667,73.1667 86.8333,73.8333 85.5,74.5C 87.8962,77.2255 87.8962,80.0588 85.5,83C 88.4827,86.8018 88.1493,90.1351 84.5,93C 76.9668,92.5406 69.9668,94.2073 63.5,98C 61.0695,100.305 60.0695,103.138 60.5,106.5C 46.1667,106.5 31.8333,106.5 17.5,106.5C 19.3704,94.5734 19.8704,82.5734 19,70.5C 13.4486,66.1309 9.28196,60.7976 6.5,54.5C 8.64084,56.9677 11.3075,58.6344 14.5,59.5C 15.5466,62.4302 17.2132,64.9302 19.5,67C 23.6108,67.9383 27.6108,69.105 31.5,70.5C 32.5539,70.3201 33.5539,69.9867 34.5,69.5C 36.5204,73.7866 39.3537,74.4533 43,71.5C 43.2138,66.6908 44.7138,62.3575 47.5,58.5C 53.7868,59.7101 59.2868,58.0434 64,53.5C 64.96,51.0197 65.7934,48.5197 66.5,46C 78.6158,45.6176 83.4491,39.451 81,27.5C 78.3587,20.5211 73.8587,15.0211 67.5,11C 61.5154,8.16557 55.5154,5.66557 49.5,3.5 Z"
    />
  </g>
  <g>
    <path
      style="opacity:0.924"
      fill="#543668"
      d="M 214.5,32.5 C 229.538,32.3726 238.372,39.7059 241,54.5C 241.461,59.1841 241.295,63.8507 240.5,68.5C 227.833,68.5 215.167,68.5 202.5,68.5C 202.643,79.6416 208.309,84.975 219.5,84.5C 224.198,84.3274 228.698,83.3274 233,81.5C 233.772,81.6448 234.439,81.9781 235,82.5C 235.837,85.365 236.67,88.1983 237.5,91C 234.754,92.7497 231.754,93.7497 228.5,94C 221.833,94.6667 215.167,94.6667 208.5,94C 200.536,92.4438 195.036,87.9438 192,80.5C 187.711,66.8605 189.044,53.8605 196,41.5C 201.166,36.2868 207.333,33.2868 214.5,32.5 Z M 211.5,43.5 C 222.174,42.334 227.84,47.1674 228.5,58C 219.833,58.6667 211.167,58.6667 202.5,58C 202.886,51.3671 205.886,46.5338 211.5,43.5 Z"
    />
  </g>
  <g>
    <path
      style="opacity:0.929"
      fill="#543668"
      d="M 427.5,33.5 C 427.5,37.1667 427.5,40.8333 427.5,44.5C 426.777,46.2133 425.443,47.2133 423.5,47.5C 419.129,45.9026 414.962,46.2359 411,48.5C 410.5,63.4963 410.333,78.4963 410.5,93.5C 406.167,93.5 401.833,93.5 397.5,93.5C 397.667,77.4965 397.5,61.4965 397,45.5C 393.784,42.2258 392.617,38.2258 393.5,33.5C 400.421,31.9373 405.921,33.9373 410,39.5C 412.212,35.3058 415.712,32.9724 420.5,32.5C 422.747,33.3742 425.08,33.7076 427.5,33.5 Z"
    />
  </g>
  <g>
    <path
      style="opacity:0.904"
      fill="#543668"
      d="M 280.5,34.5 C 284.833,34.5 289.167,34.5 293.5,34.5C 293.333,50.8367 293.5,67.1701 294,83.5C 296.286,86.365 297.12,89.6983 296.5,93.5C 291.959,93.9478 287.626,93.2811 283.5,91.5C 282.416,90.3349 281.583,89.0016 281,87.5C 280.5,69.8365 280.333,52.1698 280.5,34.5 Z"
    />
  </g>
  <g>
    <path
      style="opacity:0.932"
      fill="#543668"
      d="M 305.5,34.5 C 310.179,34.3342 314.845,34.5008 319.5,35C 323.625,41.4164 327.625,47.9164 331.5,54.5C 335.5,48.1667 339.5,41.8333 343.5,35.5C 348.167,34.1667 352.833,34.1667 357.5,35.5C 351.234,45.0371 345.234,54.7038 339.5,64.5C 345.07,74.0779 351.07,83.4112 357.5,92.5C 352.869,93.6616 348.202,93.8283 343.5,93C 339.043,86.586 334.709,80.086 330.5,73.5C 326.302,79.8678 322.302,86.3678 318.5,93C 313.798,93.8283 309.131,93.6616 304.5,92.5C 310.585,82.6623 316.918,72.9957 323.5,63.5C 317.228,53.9451 311.228,44.2784 305.5,34.5 Z"
    />
  </g>
  <g>
    <path
      style="opacity:0.973"
      fill="#543669"
      d="M 367.5,34.5 C 371.5,34.5 375.5,34.5 379.5,34.5C 379.333,50.8367 379.5,67.1701 380,83.5C 381,84.1667 382,84.8333 383,85.5C 383.497,88.146 383.664,90.8127 383.5,93.5C 380.15,93.665 376.817,93.4983 373.5,93C 370.943,92.3147 369.109,90.8147 368,88.5C 367.5,70.5031 367.333,52.5031 367.5,34.5 Z"
    />
  </g>
  <g>
    <path
      style="opacity:0.881"
      fill="#4a4a4a"
      d="M 139.5,35.5 C 152.031,40.0961 164.364,45.2627 176.5,51C 177.833,54.3333 177.833,57.6667 176.5,61C 164.334,66.6635 152,71.8302 139.5,76.5C 139.5,73.5 139.5,70.5 139.5,67.5C 149.329,64.1661 158.996,60.3327 168.5,56C 159.167,52 149.833,48 140.5,44C 139.556,41.2809 139.223,38.4475 139.5,35.5 Z"
    />
  </g>
  <g>
    <path
      style="opacity:1"
      fill="#624571"
      d="M 49.5,3.5 C 55.5154,5.66557 61.5154,8.16557 67.5,11C 73.8587,15.0211 78.3587,20.5211 81,27.5C 83.4491,39.451 78.6158,45.6176 66.5,46C 65.7934,48.5197 64.96,51.0197 64,53.5C 59.2868,58.0434 53.7868,59.7101 47.5,58.5C 44.7138,62.3575 43.2138,66.6908 43,71.5C 39.3537,74.4533 36.5204,73.7866 34.5,69.5C 33.5539,69.9867 32.5539,70.3201 31.5,70.5C 27.6108,69.105 23.6108,67.9383 19.5,67C 17.2132,64.9302 15.5466,62.4302 14.5,59.5C 11.3075,58.6344 8.64084,56.9677 6.5,54.5C 6.73731,53.209 6.40397,52.209 5.5,51.5C 1.14755,29.1995 9.14755,13.5328 29.5,4.5C 36.1373,3.7243 42.8039,3.39097 49.5,3.5 Z"
    />
  </g>
  <g>
    <path
      style="opacity:1"
      fill="#8b749a"
      d="M 34.5,5.5 C 50.9886,3.99599 64.8219,9.32933 76,21.5C 80.8264,28.5309 80.6598,35.3642 75.5,42C 71.4963,42.8806 67.4963,43.714 63.5,44.5C 64.4694,51.226 61.4694,55.226 54.5,56.5C 52.3115,56.4061 50.3115,55.7394 48.5,54.5C 43.9896,58.8564 41.6563,64.1897 41.5,70.5C 40.1667,70.5 38.8333,70.5 37.5,70.5C 37.7852,68.712 37.4519,67.0453 36.5,65.5C 35.3122,66.84 33.8122,67.5066 32,67.5C 23.3386,68.8214 17.8386,65.3214 15.5,57C 10.3771,56.6662 7.54377,53.8329 7,48.5C 4.15882,26.1288 13.3255,11.7955 34.5,5.5 Z"
    />
  </g>
</svg>
