<svg xmlns="http://www.w3.org/2000/svg" width="754" height="334" xmlns:v="https://vecta.io/nano"><path d="M0 0h754v334H0V0z" fill="#fefefe"/><path d="M44 226h661v58H44v-58z" fill="#8b759a"/><path d="M161.859 54.063c12.854 11.635 17.933 26.489 18.871 43.439l.266 6.406c.671 11.568 5.513 17.955 13.211 26.318 2.272 3.515 2.297 5.662 1.793 9.773-2.596 2.666-4.477 3.826-8 5l.063 3.875c.063 3.875.063 3.875-1.062 6.125h-2v7l-2 1 .324 3.289.363 4.336.221 2.16c.379 4.861.004 8.079-2.908 12.215-3.325 1.616-6.36 2.322-10.02 2.711l-2.85.336-5.852.633c-6.958.836-12.786 2.278-18.217 7.008-1.646 3.262-1.646 3.262-2.062 11.313H65c.646-4.524 1.29-8.415 2.5-12.715 1.607-7.346 1.653-14.611 1.625-22.098l.012-3.08L69 160l-.071-3.041c-.283-5.761-.283-5.761-2.933-10.764l-2.559-2.07c-11.537-10.398-18.448-25.341-19.645-40.801-.095-2.737-.122-5.461-.105-8.199l.013-2.918c.112-7.072.794-13.539 3.3-20.207l.773-2.141c5.773-13.453 19-21.98 31.914-27.57 25.608-9.965 60.124-5.025 82.172 11.773z" fill="#e7dbaa"/><path d="M108.938 44.438l3.803-.072c9.285.014 16.757 1.979 25.26 5.635l2.342.999C152.45 56.495 162.919 64.905 169 77c1.794 6.665 2.483 15.073.023 21.586-3.196 5.275-6.321 8.105-12.336 9.602-3.977.797-7.642.985-11.687.813l.246 1.688c.41 4.958-.077 7.807-3.309 11.688-3.349 3.363-6.268 5.417-10.937 6.625-4.477-.038-8.683-.87-13-2l-.812 2.063c-.846 2.093-1.772 4.153-2.75 6.188-1.288 2.893-1.633 5.346-1.812 8.5-.346 3.987-.346 3.987-2.812 6.313-3.803 1.268-7.144 1.772-10.812-.062v-5l-2 1c-2.69.187-5.297.086-8 0l-1-1-5.687-.75c-5.716-.923-8.475-1.92-12.312-6.25-1.98-3.299-3-5.151-3-9l-3.187-.125c-3.96-.909-5.401-1.823-7.758-5.099-4.179-7.041-4.538-13.519-4.429-21.526l.031-3.237c.333-16.892 5.774-29.334 17.559-41.345 11.319-10.842 24.367-13.364 39.723-13.23z" fill="#8a749a"/><path d="M399 94c8.869 6.115 13.627 13.882 17 24 .093 1.58.131 3.163.133 4.746l.004 2.787-.012 2.904.012 2.893-.004 2.791-.003 2.545C416 139 416 139 415 143h-58c1.357 11.886 1.357 11.886 7.582 21.424 5.859 4.002 10.826 4.277 17.793 4.076l2.961.008c5.922-.079 10.995-.924 16.592-2.869C404 165 404 165 407 165c3.444 9.41 3.444 9.41 3 14-9.401 4.596-18.725 5.199-29.062 5.313l-2.793.053c-11.043-.011-21.971-3.206-29.965-11.182C337.845 160.331 336.948 143.787 338 128c1.437-10.732 5.862-22.143 14.016-29.539C364.896 88.978 384.691 85.724 399 94z" fill="#573a6a"/><path d="M517 92c6.735-1.615 13.469-2.911 20 0 6.379 6.384 10.437 14.913 14.395 22.932 1.68 3.21 3.549 6.09 5.605 9.068l.975-1.646 1.369-2.308 1.514-2.552 5.013-8.245c1.846-3.03 3.556-6.027 5.039-9.25 1.776-3.492 2.947-5.639 6.09-8 6.267-1.374 12.683-.688 19 0-1.245 4.296-2.756 7.356-5.5 10.875-3.905 5.2-7.371 10.578-10.761 16.126-1.988 3.242-4.003 6.426-6.224 9.515l-2.266 3.172-2.047 2.762c-1.507 2.46-1.507 2.46-.521 4.835 1.507 3.106 3.272 5.862 5.205 8.724l1.152 1.716 3.649 5.402 13.395 20.117 1.714 2.644C595 180 595 180 595 182c-16.714 2.35-16.714 2.35-21.653-1.182-2.872-3.39-4.525-7.442-6.265-11.493-2.003-4.304-4.619-8.25-7.145-12.262l-2.848-4.652L555 149l-.881 1.761-2.635 5.25-2.888 5.971c-8.836 18.509-8.836 18.509-15.201 21.064-5.947.954-11.543.174-17.396-1.045 3.739-7.021 7.939-13.672 12.313-20.312l2.002-3.068 8.479-12.608 2.207-3.137 1.875-2.57c1.334-2.26 1.334-2.26.988-4.852-.923-2.623-1.997-4.365-3.676-6.578-3.633-4.988-6.922-10.143-10.187-15.375-3.793-6.069-7.639-12.025-11.891-17.785C517 94 517 94 517 92z" fill="#573b6a"/><path d="M161.859 54.063c12.854 11.635 17.933 26.489 18.871 43.439l.266 6.406c.671 11.568 5.513 17.955 13.211 26.318 2.272 3.515 2.297 5.662 1.793 9.773-2.596 2.666-4.477 3.826-8 5l.063 3.875c.063 3.875.063 3.875-1.062 6.125h-2v7l-2 1 .324 3.289.363 4.336.221 2.16c.379 4.861.004 8.079-2.908 12.215-3.325 1.616-6.36 2.322-10.02 2.711l-2.85.336-5.852.633c-6.958.836-12.786 2.278-18.217 7.008-1.646 3.262-1.646 3.262-2.062 11.313H65c.646-4.524 1.29-8.415 2.5-12.715 1.607-7.346 1.653-14.611 1.625-22.098l.012-3.08L69 160l-.071-3.041c-.283-5.761-.283-5.761-2.933-10.764l-2.559-2.07c-11.537-10.398-18.448-25.341-19.645-40.801-.095-2.737-.122-5.461-.105-8.199l.013-2.918c.112-7.072.794-13.539 3.3-20.207l.773-2.141c5.773-13.453 19-21.98 31.914-27.57 25.608-9.965 60.124-5.025 82.172 11.773zM57.613 62.906c-7.725 10.026-8.955 20.872-8.863 33.156l-.023 3.143C48.764 114.141 53.84 125.367 63 137l1.453 1.887c1.905 2.393 3.523 4.099 6.159 5.688 3.08 3.129 2.966 4.874 2.98 9.127l-.069 2.674-.014 2.789-.134 8.836-.043 5.855c-.088 9.451-.545 18.697-1.332 28.145h65l3-9c7.007-7.496 15.722-8.455 25.377-9.172 5.121-.456 8.995-1.566 13.623-3.828l.063-3.875.035-2.18c.029-2.027.029-2.027-1.098-3.945-.259-4.051-.304-5.543 2-9-.296-3.849-1.519-6.088-4-9h7l-1-11 8-2c.932-2.206.932-2.206 1-5-1.495-2.173-2.896-3.918-4.687-5.812-7.851-8.461-9.829-15.271-10.312-26.812-1.019-16.684-3.692-30.88-16.437-42.812C152.49 52.707 144.585 49.994 136 47l-3.312-1.312c-3.209-.821-5.492-.448-8.687.313v-2c-22.638-7.546-50.611 1.881-66.387 18.906z" fill="#bfb37c"/><path d="M434 56h18v112l4 2 2 1v12c-7.057.403-14.102.387-20-4-4.11-6.595-4.559-11.799-4.454-19.465l-.002-3.403.065-11.07.017-7.701.085-18.157.087-20.685L434 56z" fill="#573b6a"/><path d="M705 92c.252 6.054-.169 11.203-2 17l-2 2c-2.34-.286-4.672-.63-7-1-5.237-.255-9.779.13-15 1v72h-19l.003-6.79-.084-22.236-.04-13.478-.058-13.013-.002-4.959-.047-6.958-.013-3.997c-.891-4.187-2.222-5.56-5.417-8.23C653 102 653 102 652.414 99.008l.211-2.883.164-2.93L653 91c14.084-1.231 14.084-1.231 18.773 1.781 2.102 2.219 2.102 2.219 3.844 4.469L677 99h2l2.25-2.812c6.259-7.696 15.051-7.756 23.75-4.187z" fill="#583c6c"/><path d="M612 92h19l.028 6.929.156 22.643.087 13.731.097 13.247.024 5.058.062 7.075-.015 2.121c.003 2.177.003 2.177.561 5.196 1.917 1.814 1.917 1.814 4 3 .391 2.699.391 2.699.25 5.688l-.109 3.012L636 182c-15.492.774-15.492.774-21-4-2.677-5.096-3.428-9.283-3.341-15.047l-.001-2.338.049-7.58.013-5.284.074-13.854.06-14.158L612 92zm-134 0h19l.028 6.929.156 22.643.087 13.731.097 13.247.024 5.058.062 7.075-.015 2.121c.003 2.177.003 2.177.561 5.196 1.917 1.814 1.917 1.814 4 3 .391 2.699.391 2.699.25 5.688l-.109 3.012L502 182c-13.963.689-13.963.689-17.687-1.75-4.074-3.964-6.223-6.757-6.433-12.61l.007-4.233v-2.336l.016-7.645.004-5.301.025-13.952.02-14.237L478 92z" fill="#5b3f6d"/><path d="M232 61h12v123h-12V61z" fill="#505050"/><path d="M261 94c6.821 2.161 13.323 4.756 19.871 7.633l3.041 1.325 9.525 4.167 6.475 2.824 11.781 5.149 2.381 1.043A98.69 98.69 0 0 1 318 118v14l-4.8 2.057-4.303 1.844-11.905 5.101L276.035 150l-2.958 1.274-5.296 2.287C262.112 156 262.112 156 261 156v-12c8.937-4.131 17.976-7.966 27.063-11.75l6.35-2.65 5.689-2.372c1.652-.7 3.294-1.425 4.898-2.228-8.93-4.766-18.262-8.503-27.625-12.312l-4.777-1.955L261 106V94z" fill="#4f4f4f"/><path d="M108.938 44.438l3.803-.072c9.285.014 16.757 1.979 25.26 5.635l2.342.999C152.45 56.495 162.919 64.905 169 77c1.794 6.665 2.483 15.073.023 21.586-3.196 5.275-6.321 8.105-12.336 9.602-3.977.797-7.642.985-11.687.813l.246 1.688c.41 4.958-.077 7.807-3.309 11.688-3.349 3.363-6.268 5.417-10.937 6.625-4.477-.038-8.683-.87-13-2l-.812 2.063c-.846 2.093-1.772 4.153-2.75 6.188-1.288 2.893-1.633 5.346-1.812 8.5-.346 3.987-.346 3.987-2.812 6.313-3.803 1.268-7.144 1.772-10.812-.062v-5l-2 1c-2.69.187-5.297.086-8 0l-1-1-5.687-.75c-5.716-.923-8.475-1.92-12.312-6.25-1.98-3.299-3-5.151-3-9l-3.187-.125c-3.96-.909-5.401-1.823-7.758-5.099-4.179-7.041-4.538-13.519-4.429-21.526l.031-3.237c.333-16.892 5.774-29.334 17.559-41.345 11.319-10.842 24.367-13.364 39.723-13.23zM67.625 63.094C57.454 75.025 54.838 87.136 54.75 102.438l-.062 2.697C54.644 112.523 55.862 118.793 60 125c2.1.462 2.1.462 4.438.625 2.449.453 2.449.453 4.563 1.375 1.221 2.239 1.739 4.329 2.328 6.805.99 3.236 2.837 4.494 5.672 6.195 2.811.937 4.147 1.037 7 .875 3.783-.076 3.783-.076 5.688 1.688L91 144c4.488-.121 7.447-2.438 11-5v9l7-1 .125-3.75c.686-6.347 3.511-11.886 6.875-17.25l3-2 3 1c6.23.812 11.583 1.063 16.75-2.875 3.062-3.081 3.725-5.246 3.75-9.562-.127-1.525-.281-3.048-.5-4.562l3.762-.734 4.926-1.016 2.475-.477c5.674-1.194 9.607-2.679 13.131-7.566 1.027-3.207 1.009-6.159 1.02-9.52l.051-3.863c-.702-7.394-3.992-12.171-8.926-17.387l-1.613-1.719C152.371 61.118 147.788 57.781 142 55l-2.785-1.391c-22.673-10.853-53.706-9.393-71.59 9.484z" fill="#5d4365"/><path d="M259 235c18 0 18 0 24 3 4.868 5.036 4.236 11.851 4.313 18.438l.088 2.525c.056 5.491-.554 8.809-4.4 13.037-6 3-6 3-24 3v-40zm-82.75.188c3.055 2.014 4.704 3.783 6.75 6.813.799 4.283.603 8.588.563 12.938l.072 3.537c-.016 9.547-.016 9.547-3.057 13.256-4.244 3.736-6.735 4.686-12.551 4.523-4.143-.519-7.068-2.196-9.84-5.254-3.028-5.099-2.447-10.565-2.5-16.312l-.088-3.131c-.052-6.196.227-9.861 4.4-14.557 4.999-4.166 10.424-3.941 16.25-1.812z" fill="#faf8fb"/><path d="M390.273 107.5c3.416 2.968 5.312 6.257 6.727 10.5v12h-40c0-7.884.454-13.734 5.578-19.898 7.85-7.249 18.883-8.781 27.695-2.602z" fill="#fcfafc"/><path d="M53 235c19 0 19 0 25 3 2.138 2.17 2.9 3.398 3.398 6.402-.083 8.95-.083 8.95-3.398 12.598-5.202 3.68-9.864 3.249-16 3v15h-9v-40z" fill="#f9f6f9"/><path d="M473 235h11l4.218 14.197 1.435 4.824 2.063 6.956.647 2.16c1.158 3.935 2.058 7.803 2.638 11.864h-9l-1-8h-13l-2 8h-8c.603-4.757 1.506-9.265 2.777-13.887l1.057-3.842.55-1.97 1.646-5.983c2.716-9.809 2.716-9.809 4.971-14.318z" fill="#faf7fa"/><path d="M384.375 235.625c2.91 2.632 4.252 4.713 5.625 8.375v4h-9l-2-5h-6v24h6l2-6h9c-.383 5.643-.779 8.899-5 13-4.475 2.71-8.909 2.658-14 2-4.115-2.058-6.339-3.735-8-8-.478-4.279-.416-8.572-.437-12.875l-.1-3.551c-.06-9.64-.06-9.64 2.814-13.27 5.94-5.028 11.935-6.128 19.098-2.68z" fill="#f8f5f9"/><path d="M589.434 236.734c1.976 1.596 2.199 2.8 2.566 5.266l-4 3-1.625-.937c-2.803-1.254-5.328-1.731-8.375-2.062l-2 1c.005 2.421.005 2.421 1 5 2.845 1.707 2.845 1.707 6.313 2.938 7.488 3.218 7.488 3.218 9.5 6 1.426 3.679 1.686 6.147 1.188 10.063-1.511 3.165-3.249 5.8-6 8-5.899 1.838-11.925 2-17.5-.687-2.571-2.378-3.572-3.971-4.5-7.312 2.25-1.625 2.25-1.625 5-3 2.125.688 2.125.688 4 2 3.224 2.149 4.267 2.383 8 2 2.287-1.839 2.287-1.839 2.125-4.625L585 261l-1.758-.516c-5.972-1.853-11-3.793-15.117-8.734-1.509-3.689-1.849-6.821-1.125-10.75 5.472-8.989 13.842-8.502 22.434-4.266z" fill="#faf7fa"/><path d="M666 235h29v7h-10v33h-9v-33h-10v-7z" fill="#fdfafd"/><path d="M124 45l-2.548.028-9.556.179-4.099.063c-15.441.17-27.957 3.313-39.423 13.917C56.673 71.514 52.84 85.234 52.688 101.75l-.088 3.133c-.062 7.563.878 14.81 5.821 20.854 1.703 1.566 1.703 1.566 5.017 1.888C67 129 67 129 68.273 131.02c.678 1.578 1.315 3.175 1.902 4.789.819 2.429.819 2.429 2.824 5.191-5.378.474-5.378.474-8.125-1.617-11.323-13.635-16.052-25.477-16.062-43.195l-.037-3.158C48.752 80.5 51.218 69.753 60 60.375 73.543 47.747 106.014 33.009 124 45z" fill="#e2d4ac"/><path d="M628 56c2.82 1.821 4.503 3.007 6 6 .472 4.721.734 7.66-2.312 11.438-3.597 3.429-6.597 4.042-11.551 3.969-4.055-.771-6.678-3.192-9.137-6.406-1.187-3.5-1.187-3.5-1-7 4.088-8.175 9.42-10.332 18-8z" fill="#553968"/><path d="M494 56c2.82 1.821 4.503 3.007 6 6 .472 4.721.734 7.66-2.312 11.438-3.592 3.425-6.595 4.053-11.547 3.961-3.361-.626-5.415-2.135-7.848-4.484-1.978-2.928-2.075-5.333-1.789-8.797.747-3.188 2.104-4.925 4.496-7.117 4.379-2.671 8.148-2.22 13-1z" fill="#563b69"/><path d="M268 242c6 0 6 0 7.813 1.375 2.568 3.514 2.405 6.735 2.438 10.938l.078 3.988c-.366 4.123-1.386 6.757-4.328 9.699h-6v-26z" fill="#8f7c9c"/><path d="M170.063 241.813C173 242 173 242 174 243c.253 3.973.185 7.958.188 11.938l.037 3.404.006 3.248.012 2.996C174 267 174 267 172 269c-3.125-.375-3.125-.375-6-1-1.492-4.475-1.184-8.876-1.187-13.562l-.037-2.943-.006-2.811-.012-2.576c.422-3.658 1.796-4.08 5.305-4.295z" fill="#8b7899"/><path d="M71 146l3 1v37l-3 1-.482-16.18-.166-5.509-.231-7.901-.082-2.503L70 147l1-1z" fill="#bdaf74"/><path d="M62 241c6 0 6 0 8.375 1.063C72 244 72 244 72.375 247.563 72 251 72 251 70 253c-2.688.27-5.291.087-8 0v-12z" fill="#92819f"/><path d="M660 109h1l.031 2.561.308 23.882.158 12.278.156 11.846.056 4.522.086 6.328.047 3.64c.031 3.003.031 3.003 1.158 5.942l2.875-.125C669 180 669 180 671 182h-11v-73z" fill="#523a61"/><path d="M478 243h1l1.5 6.25.844 3.516C482 256 482 256 482 260h-8c.55-6.048 1.904-11.306 4-17z" fill="#9484a0"/><path d="M108.75 37.625l3.174-.004c8.19.119 8.19.119 12.076 2.379l-2.323-.016-10.427-.047-3.656-.025-3.516-.01-3.237-.016c-2.477.099-4.474.444-6.841 1.114h-2l-.625 1.938C90 45 90 45 86.875 45.75L84 46l1-2h-7c6.968-6.968 21.61-6.374 30.75-6.375z" fill="#c0b480"/><path d="M579 259l6 2c1.312 4.414 1.312 4.414 0 6.875-3.103 1.745-5.627.825-9 .125l1-7h2v-2z" fill="#907e9d"/><path d="M142 110h2c1.509 3.018 1.5 4.623 1 8-2.622 3.974-5.609 7.159-9.687 9.625-2.83.459-3.86-.272-6.312-1.625l1.609-.734c5.91-2.714 5.91-2.714 10.391-7.266.608-2.703.815-5.218 1-8z" fill="#5a4062"/><path d="M623.688 55.438l2.449.309L628 56l-1 2-3.187-.125c-3.553.116-5.661.597-8.812 2.125l1 3 2 1-2.437.688L613 66c-.894 2.548-.894 2.548-1 5-2-3-2-3-1.937-5.812 1.229-4.179 2.897-6.074 5.938-9.187 3.095-1.032 4.526-.975 7.688-.562z" fill="#624d72"/><path d="M100 45l11.813-.125 3.393-.051 3.252-.02 2.999-.032C124 45 124 45 127 47c-1 1-1 1-3.5 1.022l-3.285-.143-3.545-.146-3.732-.17-3.744-.158L100 47v-2z" fill="#553b5d"/><path d="M101 140v9h-2v-4l-2 1-4 .25-2.125.078L89 146l-2-3 3.75.188c4.341.023 6.51-3.187 10.25-3.187z" fill="#563c62"/><path d="M100 45v2h21v1l-29 1v-2l-2-1c3.38-1.04 6.478-1.08 10-1z" fill="#674d71"/><path d="M51 96h1l.078 3.586C52.407 109.852 53.16 118.241 59 127c-1.824-.191-1.824-.191-4-1-6.619-9.103-5.177-19.512-4-30z" fill="#cfbda7"/><path d="M584 242l-2 1-.375 1.938C581 247 581 247 578.938 248.25L577 249l-2-2c.25-2.562.25-2.562 1-5 2.862-1.431 4.934-.6 8 0z" fill="#917f9d"/><path d="M108.063 37.813l3.299-.037 3.174-.006 2.887-.012c2.663.251 4.296.887 6.578 2.243l-2.355-.016-10.52-.047-3.707-.025-3.535-.01-3.269-.016C98.018 39.821 98.018 39.821 96 41a75.68 75.68 0 0 1-5-1v-1c5.691-1.296 11.252-1.184 17.063-1.187z" fill="#c3b98d"/><path d="M183 142c2 1 2 1 3.188 3.813.777 3.047.913 4.325-.187 7.188h-2c-2.09-3.396-2.263-6.052-2-10l1-1z" fill="#bcaf74"/><path d="M74 142l6.875.875 3.867.492C88 144 88 144 90 146l5 1-1 2h-6l-1-4H75l-1-3z" fill="#e3d4b8"/><path d="M166 102l2 4-2.375.875c-2.722.974-2.722.974-4.625 3.125l-7-1 7.125-3.5c2.911-1.336 2.911-1.336 4.875-3.5z" fill="#e3d3b6"/><path d="M92 47l-1 3c-8.571 1.286-8.571 1.286-12 0 4.622-2.219 7.768-3.383 13-3z" fill="#614765"/><path d="M127.5 124.688l3.5.313 2 3c-6.4 1.231-6.4 1.231-9.437.063L122 127c2-2 2-2 5.5-2.312z" fill="#69516d"/><path d="M166 78l3 1c.961 2.882 1.106 4.699 1.063 7.688l-.027 2.449L170 91l-2 1-2-14z" fill="#573b5f"/><path d="M480 253c2 3 2 3 2 7h-7v-2h2l.938-1.937C479 254 479 254 480 253z" fill="#897895"/><path d="M57 127l10 2 1 4h-4l-1-4h-6v-2z" fill="#e2d2b5"/><path d="M55 74l2 2-1.375 3.5C54.075 83.613 52.993 87.721 52 92c-1.425-3.847-.579-6.779.375-10.687l.836-3.512C54 75 54 75 55 74z" fill="#e1cfb8"/><path d="M100 139h2v9l7-1v2l-3.875 1.125-2.18.633L101 151l-2-2h2l-1-10z" fill="#654b72"/><path d="M167 84h1l1 7h1l-1 7-2 1V84z" fill="#644a6a"/><path d="M134 50l3.875.75 2.18.422C142 52 142 52 143.258 54.078L144 56l-4.437-1.312-2.496-.738L135 53l-1-3z" fill="#593f63"/><path d="M72 47l-4.375 2.938-2.461 1.652C63 53 63 53 61 54l1-4h2v-2c3.144-1.909 4.521-2.045 8-1z" fill="#f9f6e3"/><path d="M161 54l6 5-1.937.375L163 60l-1 2c-.976-2.928-1.082-4.956-1-8z" fill="#c1b784"/><path d="M127 40l7 1c-3.08 3.672-5.248 4.568-10 5l1-3h3l-1-3z" fill="#c1b487"/><path d="M404 165h3c2.092 4.431 2.092 4.431 1.625 7.313L408 174l-1.375-2.437c-1.372-2.651-1.372-2.651-3.625-3.562l1-3z" fill="#665374"/><path d="M191 127c2.375.625 2.375.625 5 2 1.438 2.875 1.438 2.875 2 6-.875 2.375-.875 2.375-2 4l-.812-3.75c-.826-3.353-1.814-5.661-4.187-8.25z" fill="#f9f5e4"/><path d="M169 66c3 2 3 2 3.688 4.625L173 73l-3 1-2-6 1-2z" fill="#bbaf74"/><path d="M623 177l6 4v1h-7l-2-2h3v-3z" fill="#5b456c"/><path d="M99 145l1 6-3-1v-2l-7-1v-1l9-1z" fill="#c5b4a6"/><path d="M181 143h1l1 9h-5l3-9z" fill="#e1d39f"/><path d="M87 140l3 3c-2.751.917-4.359 1.109-7.187 1.063L79 144v-1l2.875-.937c2.986-.936 2.986-.936 5.125-2.062z" fill="#644a6d"/><path d="M653 92h5l-1.5 1c-2.382 3.176-1.692 6.102-1.5 10l-2-1V92z" fill="#523e61"/><path d="M164 71c2.799 2.528 4.458 4.204 5 8l-2 1c-2.294-3.441-3-4.723-3-9z" fill="#614861"/><path d="M73 234h6v5l-7-3 1-2z" fill="#90819b"/><path d="M411 108c2.503 2.938 3.469 5.179 4 9h-3v-6l-2-1 1-2z" fill="#5d486c"/><path d="M567 107l1 3 2 1-2 4-3-3 2-5z" fill="#5e446f"/><path d="M84 48a56.54 56.54 0 0 1-7 4l-1-3c4.625-2.125 4.625-2.125 8-1z" fill="#dccbac"/></svg>
