<svg width="600" height="600" viewBox="0 0 600 600" fill="none" xmlns="http://www.w3.org/2000/svg">
<g clip-path="url(#clip0_111_7)">
<mask id="mask0_111_7" style="mask-type:luminance" maskUnits="userSpaceOnUse" x="0" y="0" width="600" height="600">
<path d="M600 0H0V600H600V0Z" fill="white"/>
</mask>
<g mask="url(#mask0_111_7)">
<path d="M455 0H145C64.9187 0 0 64.9187 0 145V455C0 535.081 64.9187 600 145 600H455C535.081 600 600 535.081 600 455V145C600 64.9187 535.081 0 455 0Z" fill="white"/>
</g>
<path d="M536.264 161.931H531.709C507.74 161.894 488.288 181.305 488.288 205.272V302.201C488.288 321.557 472.289 337.236 453.248 337.236C441.935 337.236 430.641 331.543 423.94 321.986L324.944 180.596C316.73 168.856 303.364 161.856 288.896 161.856C266.327 161.856 246.016 181.044 246.016 204.731V302.219C246.016 321.576 230.149 337.254 210.977 337.254C199.627 337.254 188.351 331.561 181.649 322.005L70.8749 163.779C68.3733 160.195 62.7544 161.969 62.7544 166.336V250.871C62.7544 255.146 64.0613 259.29 66.5065 262.798L175.526 418.486C181.967 427.687 191.469 434.519 202.427 437.002C229.85 443.236 255.089 422.126 255.089 395.229V297.796C255.089 278.44 270.77 262.761 290.128 262.761H290.184C301.852 262.761 312.791 268.454 319.493 278.011L418.507 419.382C426.74 431.141 439.415 438.122 454.536 438.122C477.61 438.122 497.379 418.915 497.379 395.247V297.777C497.379 278.422 513.06 262.742 532.418 262.742H536.282C538.709 262.742 540.67 260.782 540.67 258.356V166.317C540.67 163.891 538.709 161.931 536.282 161.931H536.264Z" fill="#0B100F"/>
</g>
<defs>
<clipPath id="clip0_111_7">
<rect width="600" height="600" fill="white"/>
</clipPath>
</defs>
</svg>
