<svg viewBox="0 0 2000 1000" fill="none" xmlns="http://www.w3.org/2000/svg">
<rect width="2000" height="1000" fill="white"/>
<line x1="249" y1="205" x2="249" y2="803" stroke="#EA0000" stroke-opacity="0.4" stroke-width="2" stroke-linecap="round"/>
<line x1="699" y1="205" x2="699" y2="803" stroke="#EA0000" stroke-opacity="0.4" stroke-width="2" stroke-linecap="round"/>
<line x1="774" y1="205" x2="774" y2="803" stroke="#EA0000" stroke-opacity="0.4" stroke-width="2" stroke-linecap="round"/>
<line x1="1749" y1="205" x2="1749" y2="803" stroke="#EA0000" stroke-opacity="0.4" stroke-width="2" stroke-linecap="round"/>
<line x1="1822" y1="280" x2="174" y2="280" stroke="#EA0000" stroke-opacity="0.4" stroke-width="2" stroke-linecap="round"/>
<line x1="1822" y1="355" x2="174" y2="355" stroke="#EA0000" stroke-opacity="0.4" stroke-width="2" stroke-linecap="round"/>
<line x1="1822" y1="430" x2="174" y2="430" stroke="#EA0000" stroke-opacity="0.4" stroke-width="2" stroke-linecap="round"/>
<line x1="1822" y1="580" x2="174" y2="580" stroke="#EA0000" stroke-opacity="0.4" stroke-width="2" stroke-linecap="round"/>
<line x1="1822" y1="655" x2="174" y2="655" stroke="#EA0000" stroke-opacity="0.4" stroke-width="2" stroke-linecap="round"/>
<line x1="1822" y1="730" x2="174" y2="730" stroke="#EA0000" stroke-opacity="0.4" stroke-width="2" stroke-linecap="round"/>
<path d="M194 675L224 705M224 675L194 705" stroke="black"/>
<path d="M194 600L224 630M224 600L194 630" stroke="black"/>
<path d="M194 525L224 555M224 525L194 555" stroke="black"/>
<path d="M194 450L224 480M224 450L194 480" stroke="black"/>
<path d="M1774 600L1804 630M1804 600L1774 630" stroke="black"/>
<path d="M194 375L224 405M224 375L194 405" stroke="black"/>
<path d="M1774 525L1804 555M1804 525L1774 555" stroke="black"/>
<path d="M1774 450L1804 480M1804 450L1774 480" stroke="black"/>
<path d="M194 300L224 330M224 300L194 330" stroke="black"/>
<path d="M1774 375L1804 405M1804 375L1774 405" stroke="black"/>
<path d="M300 753L270 783M300 783L270 753" stroke="black"/>
<path d="M827 225L797 255M827 255L797 225" stroke="black"/>
<path d="M1277 225L1247 255M1277 255L1247 225" stroke="black"/>
<path d="M902 225L872 255M902 255L872 225" stroke="black"/>
<path d="M375 753L345 783M375 783L345 753" stroke="black"/>
<path d="M977 225L947 255M977 255L947 225" stroke="black"/>
<path d="M1352 225L1322 255M1352 255L1322 225" stroke="black"/>
<path d="M1052 225L1022 255M1052 255L1022 225" stroke="black"/>
<path d="M450 753L420 783M450 783L420 753" stroke="black"/>
<path d="M1127 225L1097 255M1127 255L1097 225" stroke="black"/>
<path d="M1427 225L1397 255M1427 255L1397 225" stroke="black"/>
<path d="M1202 225L1172 255M1202 255L1172 225" stroke="black"/>
<path d="M525 753L495 783M525 783L495 753" stroke="black"/>
<path d="M1502 225L1472 255M1502 255L1472 225" stroke="black"/>
<path d="M600 753L570 783M600 783L570 753" stroke="black"/>
<path d="M1577 225L1547 255M1577 255L1547 225" stroke="black"/>
<path d="M675 753L645 783M675 783L645 753" stroke="black"/>
<path d="M1652 225L1622 255M1652 255L1622 225" stroke="black"/>
<path d="M1727 225L1697 255M1727 255L1697 225" stroke="black"/>
<path d="M847.448 582.367C833.237 582.367 820.511 578.851 809.27 571.818C798.028 564.785 789.12 555.194 782.545 543.046C776.182 530.898 773 517.258 773 502.126C773 486.781 776.182 473.034 782.545 460.886C789.12 448.738 797.922 439.147 808.951 432.114C820.193 425.081 833.025 421.564 847.448 421.564C858.478 421.564 868.34 423.802 877.037 428.278C885.945 432.754 893.05 439.041 898.353 447.139C903.868 455.025 906.837 463.976 907.261 473.993V528.98C906.837 538.996 903.974 548.054 898.671 556.153C893.369 564.252 886.263 570.646 877.355 575.334C868.446 580.023 858.478 582.367 847.448 582.367ZM854.448 543.685C862.295 543.685 869.083 541.98 874.81 538.57C880.748 534.947 885.309 530.045 888.49 523.865C891.884 517.471 893.581 510.118 893.581 501.806C893.581 493.707 891.884 486.568 888.49 480.387C885.309 473.993 880.748 469.091 874.81 465.681C869.083 462.058 862.401 460.247 854.766 460.247C846.918 460.247 840.025 462.058 834.086 465.681C828.359 469.305 823.799 474.206 820.405 480.387C817.223 486.568 815.633 493.707 815.633 501.806C815.633 510.118 817.223 517.471 820.405 523.865C823.799 530.045 828.465 534.947 834.404 538.57C840.343 541.98 847.024 543.685 854.448 543.685ZM932.714 579.171H891.354V537.611L898.035 499.888L891.035 462.804V354H932.714V579.171Z" fill="#CFCFCF"/>
<path d="M1023.79 582.367C1009.79 582.367 997.166 578.851 985.925 571.818C974.684 564.785 965.881 555.194 959.518 543.046C953.155 530.898 949.974 517.258 949.974 502.126C949.974 486.781 953.155 473.034 959.518 460.886C965.881 448.738 974.684 439.147 985.925 432.114C997.166 425.081 1009.79 421.564 1023.79 421.564C1034.81 421.564 1044.68 423.802 1053.37 428.278C1062.07 432.754 1068.96 439.041 1074.05 447.139C1079.36 455.025 1082.22 463.976 1082.64 473.993V529.619C1082.22 539.849 1079.36 548.907 1074.05 556.792C1068.96 564.678 1062.07 570.965 1053.37 575.654C1044.68 580.13 1034.81 582.367 1023.79 582.367ZM1031.42 543.685C1043.09 543.685 1052.53 539.849 1059.74 532.176C1066.95 524.291 1070.55 514.167 1070.55 501.806C1070.55 493.707 1068.86 486.568 1065.46 480.387C1062.28 473.993 1057.72 469.091 1051.78 465.681C1046.06 462.058 1039.27 460.247 1031.42 460.247C1023.79 460.247 1017 462.058 1011.06 465.681C1005.33 469.091 1000.77 473.993 997.379 480.387C994.197 486.568 992.606 493.707 992.606 501.806C992.606 510.118 994.197 517.471 997.379 523.865C1000.77 530.045 1005.33 534.947 1011.06 538.57C1017 541.98 1023.79 543.685 1031.42 543.685ZM1068.33 579.171V537.611L1075.01 499.888L1068.33 462.804V429L1109.69 429V579.171H1068.33Z" fill="#CFCFCF"/>
<path d="M1130.82 579.171V429H1172.81V579.171H1130.82ZM1151.82 401.953C1145.03 401.953 1139.41 399.715 1134.95 395.24C1130.5 390.551 1128.27 384.797 1128.27 377.977C1128.27 371.37 1130.5 365.722 1134.95 361.033C1139.41 356.344 1145.03 354 1151.82 354C1158.82 354 1164.44 356.344 1168.68 361.033C1173.13 365.722 1175.36 371.37 1175.36 377.977C1175.36 384.797 1173.13 390.551 1168.68 395.24C1164.44 399.715 1158.82 401.953 1151.82 401.953Z" fill="#CFCFCF"/>
<path d="M1250.84 582.687C1242.15 582.687 1233.56 581.515 1225.07 579.171C1216.8 576.826 1209.16 573.629 1202.16 569.58C1195.16 565.317 1189.12 560.202 1184.03 554.235L1208.85 528.98C1214.15 534.947 1220.3 539.423 1227.3 542.406C1234.3 545.39 1242.04 546.882 1250.52 546.882C1257.31 546.882 1262.4 545.923 1265.8 544.005C1269.4 542.087 1271.2 539.21 1271.2 535.373C1271.2 531.111 1269.29 527.807 1265.48 525.463C1261.87 523.119 1257.1 521.2 1251.16 519.709C1245.22 518.004 1238.96 516.192 1232.39 514.274C1226.03 512.143 1219.87 509.479 1213.94 506.282C1208 502.872 1203.12 498.289 1199.3 492.535C1195.69 486.568 1193.89 478.895 1193.89 469.518C1193.89 459.714 1196.23 451.189 1200.89 443.943C1205.77 436.696 1212.66 431.049 1221.57 426.999C1230.48 422.95 1240.98 420.925 1253.07 420.925C1265.8 420.925 1277.25 423.163 1287.43 427.639C1297.82 432.114 1306.41 438.828 1313.2 447.779L1288.07 473.034C1283.4 467.28 1278.1 463.124 1272.16 460.566C1266.43 458.009 1260.17 456.73 1253.39 456.73C1247.24 456.73 1242.46 457.689 1239.07 459.607C1235.89 461.525 1234.3 464.19 1234.3 467.6C1234.3 471.436 1236.1 474.42 1239.71 476.551C1243.52 478.682 1248.4 480.6 1254.34 482.305C1260.28 483.797 1266.43 485.609 1272.79 487.74C1279.37 489.658 1285.52 492.429 1291.25 496.052C1297.19 499.675 1301.96 504.47 1305.56 510.438C1309.38 516.405 1311.29 524.078 1311.29 533.455C1311.29 548.587 1305.88 560.629 1295.07 569.58C1284.25 578.318 1269.51 582.687 1250.84 582.687Z" fill="#CFCFCF"/>
<path d="M1384.23 580.449L1321.32 429H1366.5L1407.77 543.685L1390.38 541.558L1435 429H1480.5L1413.82 580.449H1384.23ZM1335.44 654L1388.36 544.325L1413.82 580.449L1379.66 654H1335.44Z" fill="#CFCFCF"/>
<path d="M1594.42 582.367C1576.82 582.367 1561.12 578.531 1547.34 570.859C1533.76 562.973 1523.05 552.21 1515.2 538.57C1507.35 524.93 1503.43 509.479 1503.43 492.215V354H1546.7V493.494C1546.7 503.511 1548.71 512.143 1552.74 519.389C1556.99 526.635 1562.71 532.283 1569.92 536.332C1577.35 540.169 1585.51 542.087 1594.42 542.087C1603.54 542.087 1611.6 540.169 1618.6 536.332C1625.6 532.283 1631.12 526.635 1635.15 519.389C1639.39 512.143 1641.51 503.618 1641.51 493.814V354H1685.1V492.535C1685.1 509.798 1681.17 525.25 1673.32 538.89C1665.48 552.317 1654.77 562.973 1641.19 570.859C1627.83 578.531 1612.24 582.367 1594.42 582.367Z" fill="#CFCFCF"/>
<path d="M1706.73 579V354H1750V579H1706.73Z" fill="#CFCFCF"/>
<path d="M396.425 319.167C390.7 327.599 386.15 337.381 383.152 348.514C374.533 380.527 349.527 405.533 317.514 414.153C306.381 417.15 296.598 421.7 288.166 427.426C276.214 364.913 333.912 307.215 396.425 319.167Z" fill="#CFCFCF"/>
<path d="M288.167 427.425C290.081 437.436 293.781 447.571 299.533 457.563C316.075 486.294 316.075 521.658 299.533 550.39C293.781 560.382 290.081 570.516 288.167 580.528C235.513 544.775 235.513 463.178 288.167 427.425Z" fill="#CFCFCF"/>
<path d="M396.425 688.786C390.7 680.354 386.15 670.571 383.152 659.438C374.533 627.425 349.527 602.419 317.514 593.8C306.381 590.802 296.598 586.252 288.166 580.526C276.214 643.039 333.912 700.737 396.425 688.786Z" fill="#CFCFCF"/>
<path d="M549.529 688.785C539.518 686.871 529.384 683.171 519.392 677.418C490.66 660.876 455.296 660.876 426.565 677.418C416.573 683.171 406.438 686.871 396.427 688.785C432.179 741.439 513.777 741.439 549.529 688.785Z" fill="#CFCFCF"/>
<path d="M657.788 580.527C649.356 586.253 639.574 590.802 628.441 593.8C596.428 602.419 571.422 627.425 562.802 659.439C559.805 670.571 555.255 680.354 549.529 688.786C612.041 700.737 669.739 643.039 657.788 580.527Z" fill="#CFCFCF"/>
<path d="M657.787 427.426C655.873 437.437 652.173 447.571 646.42 457.563C629.879 486.294 629.879 521.658 646.42 550.39C652.173 560.382 655.873 570.516 657.787 580.527C710.44 544.775 710.44 463.179 657.787 427.426Z" fill="#CFCFCF"/>
<path d="M549.529 319.166C555.255 327.599 559.805 337.381 562.802 348.514C571.422 380.527 596.428 405.533 628.441 414.153C639.574 417.15 649.356 421.7 657.788 427.425C669.739 364.913 612.041 307.216 549.529 319.166Z" fill="#CFCFCF"/>
<path d="M396.427 319.167C406.438 321.081 416.572 324.781 426.564 330.534C455.296 347.075 490.66 347.075 519.391 330.534C529.383 324.781 539.517 321.081 549.528 319.167C513.775 266.514 432.179 266.514 396.427 319.167Z" fill="#CFCFCF"/>
<path fill-rule="evenodd" clip-rule="evenodd" d="M383.155 348.514C386.152 337.381 390.702 327.598 396.428 319.166C406.438 321.08 416.573 324.78 426.564 330.533C455.296 347.074 490.66 347.074 519.391 330.533C529.383 324.78 539.518 321.08 549.529 319.166C555.255 327.598 559.805 337.381 562.802 348.514C571.422 380.527 596.428 405.533 628.441 414.152C639.573 417.15 649.356 421.699 657.788 427.425C655.874 437.436 652.174 447.571 646.421 457.562C629.879 486.294 629.879 521.658 646.421 550.39C652.174 560.381 655.874 570.516 657.788 580.527C649.356 586.253 639.573 590.802 628.441 593.8C596.428 602.419 571.422 627.425 562.802 659.438C559.805 670.571 555.255 680.354 549.529 688.786C539.518 686.872 529.383 683.172 519.391 677.419C490.66 660.878 455.296 660.878 426.564 677.419C416.573 683.172 406.438 686.872 396.428 688.786C390.702 680.354 386.152 670.571 383.155 659.438C374.535 627.425 349.529 602.419 317.516 593.8C306.383 590.802 296.6 586.252 288.168 580.526C290.082 570.516 293.782 560.381 299.534 550.39C316.076 521.658 316.076 486.294 299.534 457.562C293.782 447.571 290.082 437.437 288.168 427.426C296.6 421.7 306.383 417.15 317.516 414.152C349.529 405.533 374.535 380.527 383.155 348.514Z" fill="#CFCFCF"/>
<path d="M84.8125 519.328C82.8848 519.328 81.1621 518.897 79.6445 518.036C78.127 517.175 76.9238 516.02 76.0352 514.57C75.1602 513.121 74.7227 511.521 74.7227 509.771C74.7227 508.883 74.8389 507.987 75.0713 507.085C75.3174 506.169 75.6592 505.267 76.0967 504.378C76.5342 503.476 77.0469 502.607 77.6348 501.773L86.7402 488.771H90.9648L81.9414 501.445L81.0801 501.281C81.6133 500.789 82.2627 500.427 83.0283 500.194C83.8076 499.962 84.5938 499.846 85.3867 499.846C87.0957 499.846 88.668 500.263 90.1035 501.097C91.5527 501.917 92.7148 503.059 93.5898 504.521C94.4648 505.971 94.9023 507.639 94.9023 509.525C94.9023 511.398 94.458 513.073 93.5693 514.55C92.6807 516.026 91.4707 517.195 89.9395 518.057C88.4219 518.904 86.7129 519.328 84.8125 519.328ZM84.8535 515.965C86.0566 515.965 87.1367 515.685 88.0938 515.124C89.0645 514.55 89.8301 513.777 90.3906 512.807C90.9648 511.836 91.252 510.742 91.252 509.525C91.252 508.281 90.9717 507.188 90.4111 506.244C89.8506 505.287 89.085 504.542 88.1143 504.009C87.1572 503.476 86.0703 503.209 84.8535 503.209C83.6504 503.209 82.5566 503.469 81.5723 503.988C80.6016 504.508 79.8223 505.246 79.2344 506.203C78.6602 507.146 78.373 508.254 78.373 509.525C78.373 510.77 78.6533 511.877 79.2139 512.848C79.7881 513.818 80.5605 514.584 81.5312 515.145C82.5156 515.691 83.623 515.965 84.8535 515.965Z" fill="#CFCFCF"/>
<path d="M472.812 923.328C470.885 923.328 469.162 922.897 467.645 922.036C466.127 921.175 464.924 920.02 464.035 918.57C463.16 917.121 462.723 915.521 462.723 913.771C462.723 912.883 462.839 911.987 463.071 911.085C463.317 910.169 463.659 909.267 464.097 908.378C464.534 907.476 465.047 906.607 465.635 905.773L474.74 892.771H478.965L469.941 905.445L469.08 905.281C469.613 904.789 470.263 904.427 471.028 904.194C471.808 903.962 472.594 903.846 473.387 903.846C475.096 903.846 476.668 904.263 478.104 905.097C479.553 905.917 480.715 907.059 481.59 908.521C482.465 909.971 482.902 911.639 482.902 913.525C482.902 915.398 482.458 917.073 481.569 918.55C480.681 920.026 479.471 921.195 477.939 922.057C476.422 922.904 474.713 923.328 472.812 923.328ZM472.854 919.965C474.057 919.965 475.137 919.685 476.094 919.124C477.064 918.55 477.83 917.777 478.391 916.807C478.965 915.836 479.252 914.742 479.252 913.525C479.252 912.281 478.972 911.188 478.411 910.244C477.851 909.287 477.085 908.542 476.114 908.009C475.157 907.476 474.07 907.209 472.854 907.209C471.65 907.209 470.557 907.469 469.572 907.988C468.602 908.508 467.822 909.246 467.234 910.203C466.66 911.146 466.373 912.254 466.373 913.525C466.373 914.77 466.653 915.877 467.214 916.848C467.788 917.818 468.561 918.584 469.531 919.145C470.516 919.691 471.623 919.965 472.854 919.965Z" fill="#CFCFCF"/>
<path d="M1914.09 519V500.174L1914.26 495.006H1914.09L1911.8 498.697L1904.91 508.992V509.156H1921.48V512.355H1900.19V510.264L1914.59 488.771H1917.79V519H1914.09Z" fill="#CFCFCF"/>
<path d="M1248.95 116V89.2988L1249.69 90.0781L1242.68 93.3594V89.627L1251.29 85.7715H1252.56V116H1248.95ZM1242.02 116V112.637H1258.26V116H1242.02ZM1273.44 116.328C1271.67 116.328 1270.05 115.959 1268.58 115.221C1267.1 114.482 1265.92 113.457 1265.03 112.145C1264.15 110.818 1263.72 109.273 1263.72 107.51L1267.41 107.428C1267.41 108.521 1267.67 109.485 1268.21 110.319C1268.75 111.153 1269.48 111.803 1270.38 112.268C1271.28 112.732 1272.29 112.965 1273.4 112.965C1274.53 112.965 1275.56 112.719 1276.47 112.227C1277.39 111.734 1278.11 111.064 1278.65 110.217C1279.19 109.369 1279.47 108.412 1279.47 107.346C1279.47 106.293 1279.19 105.35 1278.63 104.516C1278.08 103.682 1277.28 103.025 1276.23 102.547C1275.17 102.055 1273.89 101.809 1272.37 101.809H1271.18L1271.22 98.6094H1272.62C1273.74 98.6094 1274.72 98.3701 1275.55 97.8916C1276.4 97.3994 1277.05 96.7568 1277.52 95.9639C1278 95.1572 1278.24 94.2754 1278.24 93.3184C1278.24 92.375 1278.03 91.5684 1277.62 90.8984C1277.21 90.2285 1276.64 89.7158 1275.92 89.3604C1275.19 88.9912 1274.37 88.8066 1273.44 88.8066C1272.45 88.8066 1271.58 88.998 1270.83 89.3809C1270.08 89.7637 1269.49 90.3037 1269.07 91.001C1268.65 91.6846 1268.43 92.4844 1268.43 93.4004H1264.82C1264.82 91.9102 1265.18 90.5635 1265.89 89.3604C1266.62 88.1572 1267.61 87.207 1268.88 86.5098C1270.17 85.7988 1271.66 85.4434 1273.36 85.4434C1274.97 85.4434 1276.42 85.7646 1277.72 86.4072C1279.02 87.0361 1280.05 87.9248 1280.82 89.0732C1281.59 90.2217 1281.97 91.5547 1281.97 93.0723C1281.97 94.5488 1281.61 95.8613 1280.88 97.0098C1280.17 98.1445 1279.22 99.0332 1278.03 99.6758C1276.86 100.305 1275.57 100.592 1274.18 100.537V99.7168C1275.87 99.6484 1277.4 99.9492 1278.75 100.619C1280.1 101.275 1281.18 102.205 1281.97 103.408C1282.76 104.611 1283.16 105.992 1283.16 107.551C1283.16 109.191 1282.73 110.675 1281.87 112.001C1281 113.327 1279.84 114.38 1278.36 115.159C1276.9 115.938 1275.26 116.328 1273.44 116.328Z" fill="#CFCFCF"/>
</svg>
