<svg viewBox="0 0 1653 600" fill="none" xmlns="http://www.w3.org/2000/svg">
<path opacity="0.7" d="M224.143 116.09C218.428 124.507 213.887 134.27 210.895 145.382C202.292 177.334 177.333 202.293 145.381 210.896C134.269 213.888 124.505 218.429 116.088 224.144C104.16 161.75 161.748 104.162 224.143 116.09Z" fill="white"/>
<path opacity="0.7" d="M116.09 224.144C118 234.136 121.693 244.251 127.434 254.224C143.945 282.901 143.945 318.198 127.434 346.875C121.693 356.848 118 366.963 116.089 376.955C63.5354 341.271 63.5354 259.828 116.09 224.144Z" fill="white"/>
<path opacity="0.7" d="M224.143 485.009C218.428 476.593 213.887 466.829 210.895 455.717C202.292 423.765 177.333 398.806 145.381 390.203C134.269 387.211 124.505 382.67 116.088 376.955C104.16 439.349 161.748 496.938 224.143 485.009Z" fill="white"/>
<path opacity="0.7" d="M376.953 485.008C366.961 483.097 356.846 479.404 346.873 473.663C318.196 457.152 282.899 457.152 254.222 473.663C244.249 479.404 234.134 483.098 224.142 485.008C259.826 537.562 341.269 537.562 376.953 485.008Z" fill="white"/>
<path opacity="0.7" d="M485.01 376.956C476.594 382.671 466.83 387.212 455.719 390.203C423.767 398.806 398.808 423.765 390.205 455.718C387.213 466.829 382.672 476.593 376.957 485.009C439.35 496.937 496.938 439.349 485.01 376.956Z" fill="white"/>
<path opacity="0.7" d="M485.007 224.145C483.096 234.136 479.403 244.251 473.662 254.224C457.151 282.901 457.151 318.198 473.662 346.875C479.404 356.848 483.097 366.963 485.007 376.955C537.56 341.27 537.56 259.829 485.007 224.145Z" fill="white"/>
<path opacity="0.7" d="M376.957 116.09C382.672 124.506 387.213 134.27 390.205 145.382C398.808 177.334 423.767 202.293 455.719 210.896C466.83 213.888 476.594 218.429 485.01 224.144C496.938 161.75 439.35 104.162 376.957 116.09Z" fill="white"/>
<path opacity="0.7" d="M224.142 116.091C234.134 118.001 244.249 121.695 254.222 127.436C282.899 143.947 318.196 143.947 346.873 127.436C356.845 121.695 366.96 118.002 376.952 116.091C341.267 63.5383 259.826 63.5383 224.142 116.091Z" fill="white"/>
<path fill-rule="evenodd" clip-rule="evenodd" d="M210.898 145.383C213.89 134.271 218.431 124.507 224.146 116.091C234.138 118.001 244.253 121.694 254.225 127.436C282.902 143.946 318.199 143.946 346.876 127.436C356.849 121.694 366.965 118.001 376.957 116.091C382.672 124.507 387.213 134.271 390.205 145.383C398.808 177.335 423.766 202.294 455.719 210.897C466.83 213.889 476.594 218.43 485.01 224.144C483.1 234.136 479.407 244.252 473.665 254.225C457.155 282.902 457.155 318.199 473.665 346.876C479.407 356.848 483.1 366.964 485.01 376.956C476.594 382.67 466.83 387.211 455.719 390.203C423.766 398.806 398.808 423.765 390.205 455.717C387.213 466.829 382.672 476.593 376.957 485.009C366.965 483.099 356.849 479.406 346.876 473.664C318.199 457.154 282.902 457.154 254.225 473.664C244.253 479.406 234.138 483.099 224.146 485.009C218.431 476.593 213.89 466.829 210.898 455.717C202.295 423.765 177.337 398.806 145.384 390.203C134.272 387.211 124.508 382.67 116.092 376.955C118.002 366.963 121.695 356.848 127.437 346.876C143.947 318.199 143.947 282.902 127.437 254.225C121.695 244.252 118.002 234.137 116.092 224.145C124.508 218.43 134.272 213.889 145.384 210.897C177.337 202.294 202.295 177.335 210.898 145.383Z" fill="white"/>
<path d="M282.871 325.91C286.999 330.482 294.318 333.735 300.478 333.735C306.637 333.735 313.957 330.482 318.084 325.91" stroke="black" stroke-width="12" stroke-linecap="round"/>
<rect x="200.037" y="267.221" width="31.3006" height="15.6503" rx="7.82514" transform="rotate(45 200.037 267.221)" fill="black"/>
<rect x="192.883" y="271.134" width="58.6886" height="58.6886" rx="29.3443" fill="black"/>
<circle cx="215.814" cy="286.609" r="11.7377" fill="white"/>
<circle cx="237.849" cy="302.64" r="5.86885" fill="white"/>
<circle cx="230.524" cy="314.853" r="3.91257" fill="white"/>
<rect x="412.18" y="278.288" width="31.3006" height="15.6503" rx="7.82514" transform="rotate(135 412.18 278.288)" fill="black"/>
<rect x="349.385" y="271.134" width="58.6886" height="58.6886" rx="29.3443" fill="black"/>
<rect x="365.035" y="286.785" width="27.388" height="27.388" rx="13.694" fill="black"/>
<circle cx="372.318" cy="286.609" r="11.7377" fill="white"/>
<circle cx="394.353" cy="302.64" r="5.86885" fill="white"/>
<circle cx="387.028" cy="314.853" r="3.91257" fill="white"/>
<path d="M674.448 378.367C660.237 378.367 647.511 374.851 636.27 367.818C625.028 360.785 616.12 351.194 609.545 339.046C603.182 326.898 600 313.258 600 298.126C600 282.781 603.182 269.034 609.545 256.886C616.12 244.738 624.922 235.147 635.951 228.114C647.193 221.081 660.025 217.564 674.448 217.564C685.478 217.564 695.34 219.802 704.037 224.278C712.945 228.754 720.05 235.041 725.353 243.139C730.868 251.025 733.837 259.976 734.261 269.993V324.98C733.837 334.996 730.974 344.054 725.671 352.153C720.369 360.252 713.263 366.646 704.355 371.334C695.446 376.023 685.478 378.367 674.448 378.367ZM681.448 339.685C689.295 339.685 696.083 337.98 701.81 334.57C707.748 330.947 712.309 326.045 715.49 319.865C718.884 313.471 720.581 306.118 720.581 297.806C720.581 289.707 718.884 282.568 715.49 276.387C712.309 269.993 707.748 265.091 701.81 261.681C696.083 258.058 689.401 256.247 681.766 256.247C673.918 256.247 667.025 258.058 661.086 261.681C655.359 265.305 650.799 270.206 647.405 276.387C644.223 282.568 642.633 289.707 642.633 297.806C642.633 306.118 644.223 313.471 647.405 319.865C650.799 326.045 655.465 330.947 661.404 334.57C667.343 337.98 674.024 339.685 681.448 339.685ZM759.714 375.171H718.354V333.611L725.035 295.888L718.035 258.804V150H759.714V375.171Z" fill="white"/>
<path d="M850.785 378.367C836.787 378.367 824.166 374.851 812.925 367.818C801.684 360.785 792.881 351.194 786.518 339.046C780.155 326.898 776.974 313.258 776.974 298.126C776.974 282.781 780.155 269.034 786.518 256.886C792.881 244.738 801.684 235.147 812.925 228.114C824.166 221.081 836.787 217.564 850.785 217.564C861.815 217.564 871.678 219.802 880.374 224.278C889.07 228.754 895.963 235.041 901.054 243.139C906.356 251.025 909.22 259.976 909.644 269.993V325.619C909.22 335.849 906.356 344.907 901.054 352.792C895.963 360.678 889.07 366.965 880.374 371.654C871.678 376.13 861.815 378.367 850.785 378.367ZM858.421 339.685C870.087 339.685 879.525 335.849 886.737 328.176C893.948 320.291 897.554 310.167 897.554 297.806C897.554 289.707 895.857 282.568 892.464 276.387C889.282 269.993 884.722 265.091 878.783 261.681C873.056 258.058 866.269 256.247 858.421 256.247C850.785 256.247 843.998 258.058 838.059 261.681C832.332 265.091 827.772 269.993 824.379 276.387C821.197 282.568 819.606 289.707 819.606 297.806C819.606 306.118 821.197 313.471 824.379 319.865C827.772 326.045 832.332 330.947 838.059 334.57C843.998 337.98 850.785 339.685 858.421 339.685ZM895.327 375.171V333.611L902.008 295.888L895.327 258.804V225L936.687 225V375.171H895.327Z" fill="white"/>
<path d="M957.818 375.171V225H999.814V375.171H957.818ZM978.816 197.953C972.029 197.953 966.408 195.715 961.954 191.24C957.5 186.551 955.273 180.797 955.273 173.977C955.273 167.37 957.5 161.722 961.954 157.033C966.408 152.344 972.029 150 978.816 150C985.816 150 991.436 152.344 995.678 157.033C1000.13 161.722 1002.36 167.37 1002.36 173.977C1002.36 180.797 1000.13 186.551 995.678 191.24C991.436 195.715 985.816 197.953 978.816 197.953Z" fill="white"/>
<path d="M1077.84 378.687C1069.15 378.687 1060.56 377.515 1052.07 375.171C1043.8 372.826 1036.16 369.629 1029.16 365.58C1022.16 361.317 1016.12 356.202 1011.03 350.235L1035.85 324.98C1041.15 330.947 1047.3 335.423 1054.3 338.406C1061.3 341.39 1069.04 342.882 1077.52 342.882C1084.31 342.882 1089.4 341.923 1092.8 340.005C1096.4 338.087 1098.2 335.21 1098.2 331.373C1098.2 327.111 1096.29 323.807 1092.48 321.463C1088.87 319.119 1084.1 317.2 1078.16 315.709C1072.22 314.004 1065.96 312.192 1059.39 310.274C1053.03 308.143 1046.87 305.479 1040.94 302.282C1035 298.872 1030.12 294.289 1026.3 288.535C1022.69 282.568 1020.89 274.895 1020.89 265.518C1020.89 255.714 1023.23 247.189 1027.89 239.943C1032.77 232.696 1039.66 227.049 1048.57 222.999C1057.48 218.95 1067.98 216.925 1080.07 216.925C1092.8 216.925 1104.25 219.163 1114.43 223.639C1124.82 228.114 1133.41 234.828 1140.2 243.779L1115.07 269.034C1110.4 263.28 1105.1 259.124 1099.16 256.566C1093.43 254.009 1087.17 252.73 1080.39 252.73C1074.24 252.73 1069.46 253.689 1066.07 255.607C1062.89 257.525 1061.3 260.19 1061.3 263.6C1061.3 267.436 1063.1 270.42 1066.71 272.551C1070.52 274.682 1075.4 276.6 1081.34 278.305C1087.28 279.797 1093.43 281.609 1099.79 283.74C1106.37 285.658 1112.52 288.429 1118.25 292.052C1124.19 295.675 1128.96 300.47 1132.56 306.438C1136.38 312.405 1138.29 320.078 1138.29 329.455C1138.29 344.587 1132.88 356.629 1122.07 365.58C1111.25 374.318 1096.51 378.687 1077.84 378.687Z" fill="white"/>
<path d="M1211.23 376.449L1148.32 225H1193.5L1234.77 339.685L1217.38 337.558L1262 225H1307.5L1240.82 376.449H1211.23ZM1162.44 450L1215.36 340.325L1240.82 376.449L1206.66 450H1162.44Z" fill="white"/>
<path d="M1421.42 378.367C1403.82 378.367 1388.12 374.531 1374.34 366.859C1360.76 358.973 1350.05 348.21 1342.2 334.57C1334.35 320.93 1330.43 305.479 1330.43 288.215V150H1373.7V289.494C1373.7 299.511 1375.71 308.143 1379.74 315.389C1383.99 322.635 1389.71 328.283 1396.92 332.332C1404.35 336.169 1412.51 338.087 1421.42 338.087C1430.54 338.087 1438.6 336.169 1445.6 332.332C1452.6 328.283 1458.12 322.635 1462.15 315.389C1466.39 308.143 1468.51 299.618 1468.51 289.814V150H1512.1V288.535C1512.1 305.798 1508.17 321.25 1500.32 334.89C1492.48 348.317 1481.77 358.973 1468.19 366.859C1454.83 374.531 1439.24 378.367 1421.42 378.367Z" fill="white"/>
<path d="M1533.73 375V150H1577V375H1533.73Z" fill="white"/>
</svg>
