<svg xmlns="http://www.w3.org/2000/svg" viewBox="0 0 1653 600" xmlns:v="https://vecta.io/nano"><style><![CDATA[.B{fill:#000}.C{fill:#fff}.D{fill-rule:evenodd}.E{fill:#ffa17a}.F{fill:#ffab89}.G{stroke-width:12}.H{stroke-linecap:round}]]></style><svg x="75" y="75" width="450" height="450" fill="none"><g opacity=".7"><path d="M148.425 40.167c-5.725 8.432-10.275 18.215-13.273 29.347-8.619 32.013-33.625 57.019-65.638 65.639-11.133 2.997-20.916 7.547-29.348 13.273C28.214 85.913 85.913 28.215 148.425 40.167z" fill="#ffd819"/><path d="M40.167 148.425c1.914 10.011 5.614 20.146 11.366 30.138 16.542 28.731 16.542 64.095 0 92.827-5.753 9.992-9.453 20.126-11.367 30.138-52.654-35.753-52.654-117.35 0-153.103z" fill="#ffe029"/><path d="M148.425 409.786c-5.725-8.432-10.275-18.215-13.273-29.348A93.02 93.02 0 0 0 69.514 314.8c-11.133-2.998-20.916-7.548-29.348-13.274-11.951 62.513 45.747 120.211 108.259 108.26z" fill="#ffc141"/><path d="M301.528 409.785c-10.011-1.914-20.145-5.614-30.137-11.366-28.732-16.542-64.096-16.542-92.827 0-9.992 5.752-20.127 9.453-30.138 11.366 35.752 52.654 117.35 52.654 153.102 0z" fill="#ffb655"/><path d="M409.787 301.527c-8.432 5.726-18.214 10.275-29.347 13.273-32.013 8.619-57.019 33.625-65.639 65.639-2.997 11.132-7.547 20.915-13.273 29.347 62.512 11.951 120.21-45.747 108.259-108.259z" fill="#ffb35b"/><path d="M409.787 148.426c-1.914 10.011-5.614 20.145-11.367 30.137a93.03 93.03 0 0 0 0 92.827c5.753 9.992 9.453 20.126 11.367 30.137 52.653-35.752 52.653-117.348 0-153.101z" fill="#ffb656"/><path d="M301.528 40.166c5.726 8.432 10.276 18.215 13.273 29.348a93.03 93.03 0 0 0 65.639 65.639c11.133 2.997 20.915 7.547 29.347 13.272C421.738 85.913 364.04 28.216 301.528 40.166z" fill="#ffc042"/><path d="M148.426 40.167c10.011 1.914 20.145 5.614 30.137 11.367 28.732 16.542 64.096 16.542 92.827 0 9.992-5.752 20.126-9.452 30.137-11.366-35.753-52.653-117.349-52.653-153.101 0z" fill="#ffce2a"/></g><path d="M135.155 69.514c2.997-11.133 7.547-20.915 13.273-29.347 10.01 1.914 20.145 5.614 30.136 11.366 28.732 16.542 64.096 16.542 92.827 0 9.992-5.753 20.127-9.453 30.138-11.367 5.726 8.432 10.276 18.215 13.273 29.348 8.62 32.013 33.626 57.019 65.639 65.638 11.132 2.998 20.915 7.547 29.347 13.273-1.914 10.011-5.614 20.146-11.367 30.137-16.542 28.732-16.542 64.096 0 92.828 5.753 9.991 9.453 20.126 11.367 30.137-8.432 5.726-18.215 10.275-29.347 13.273-32.013 8.619-57.019 33.625-65.639 65.638-2.997 11.133-7.547 20.916-13.273 29.348-10.011-1.914-20.146-5.614-30.138-11.367a93.03 93.03 0 0 0-92.827 0c-9.991 5.753-20.126 9.453-30.136 11.367-5.726-8.432-10.276-18.215-13.273-29.348-8.62-32.013-33.626-57.019-65.639-65.638-11.133-2.998-20.916-7.548-29.348-13.274 1.914-10.01 5.614-20.145 11.366-30.136 16.542-28.732 16.542-64.096 0-92.828-5.752-9.991-9.452-20.125-11.366-30.136 8.432-5.726 18.215-10.276 29.348-13.274 32.013-8.619 57.019-33.625 65.639-65.638z" fill="url(#A)" class="D"/><rect x="313.369" y="252.866" width="31.301" height="15.65" rx="7.825" transform="rotate(60 313.369 252.866)" class="E"/><rect x="293.808" y="252.866" width="31.301" height="15.65" rx="7.825" transform="rotate(60 293.808 252.866)" class="E"/><rect x="154.911" y="252.866" width="31.301" height="15.65" rx="7.825" transform="rotate(60 154.911 252.866)" class="F"/><rect x="135.348" y="252.866" width="31.301" height="15.65" rx="7.825" transform="rotate(60 135.348 252.866)" class="F"/><g><rect x="296.044" y="164.833" width="31.301" height="15.65" rx="7.825" transform="rotate(15 296.044 164.833)" class="E"/><animateTransform attributeName="transform" type="translate" values="0,0; 0,-3; 0,0; 0,0; 0,0" dur="5s" repeatCount="indefinite"/></g><g><rect x="123.752" y="172.934" width="31.301" height="15.65" rx="7.825" transform="rotate(345 123.752 172.934)" class="F"/><animateTransform attributeName="transform" type="translate" values="0,0; 0,-3; 0,0; 0,0; 0,0" dur="5s" repeatCount="indefinite"/></g><use href="#B" stroke="#8b2c0c" stroke-opacity=".05" class="G H"/><use href="#B" y="-1.956" stroke="#d05b34" class="G H"/><g><rect x="125.037" y="192.221" width="31.301" height="15.65" rx="7.825" transform="rotate(45 125.037 192.221)" class="B"/><rect x="117.882" y="196.134" width="58.689" height="58.689" rx="29.344" class="B"/><rect x="117.882" y="198.089" width="58.689" height="58.689" rx="29.344" fill-opacity=".05" class="B"/><path d="M125.086 233.301c3.223-9.117 11.918-15.649 22.139-15.649s18.917 6.533 22.14 15.652c-3.223 9.116-11.919 15.648-22.139 15.648s-18.918-6.533-22.14-15.651z" fill="#784012" class="D"/><path d="M166.831 238.399c2.448-3.706 3.873-8.147 3.873-12.921 0-12.965-10.511-23.476-23.476-23.476a23.48 23.48 0 0 0-23.475 23.476c0 4.28 1.145 8.293 3.146 11.748 4.201-6.359 11.412-10.555 19.603-10.555 8.685 0 16.269 4.717 20.329 11.728z" fill-opacity=".35" class="B D"/><rect x="133.532" y="211.784" width="27.388" height="27.388" rx="13.694" class="B"/><circle cx="140.814" cy="211.609" r="11.738" class="C"/><circle cx="162.848" cy="227.64" r="5.869" class="C"/><circle cx="155.525" cy="239.853" r="3.913" class="C"/><rect x="337.181" y="203.288" width="31.301" height="15.65" rx="7.825" transform="rotate(135 337.181 203.288)" class="B"/><rect x="274.385" y="198.09" width="58.689" height="58.689" rx="29.344" fill-opacity=".05" class="B"/><rect x="274.385" y="196.134" width="58.689" height="58.689" rx="29.344" class="B"/><path d="M281.629 233.41c3.035-9.451 11.896-16.29 22.355-16.29 10.182 0 18.849 6.482 22.102 15.544-3.035 9.45-11.897 16.29-22.355 16.29-10.182 0-18.85-6.482-22.102-15.544z" fill="#784012" class="D"/><path d="M323.862 237.557a23.36 23.36 0 0 0 3.342-12.078c0-12.965-10.511-23.476-23.476-23.476a23.48 23.48 0 0 0-23.475 23.476c0 4.589 1.317 8.87 3.593 12.487 4.105-6.829 11.586-11.397 20.134-11.397 8.376 0 15.728 4.387 19.882 10.988z" fill-opacity=".35" class="B D"/><rect x="290.035" y="211.785" width="27.388" height="27.388" rx="13.694" class="B"/><circle cx="297.318" cy="211.609" r="11.738" class="C"/><circle cx="319.352" cy="227.64" r="5.869" class="C"/><circle cx="312.029" cy="239.853" r="3.913" class="C"/><animate attributeName="display" values="inline;none;inline" keyTimes="0;0.97;1" dur="15s" repeatCount="indefinite"/></g><g stroke="#000" display="none" class="G H"><use href="#C"/><use href="#C" x="-156"/><animate attributeName="display" values="none;inline;none" keyTimes="0;0.97;1" dur="15s" repeatCount="indefinite"/></g><defs><radialGradient id="A" cx="0" cy="0" r="1" gradientUnits="userSpaceOnUse" gradientTransform="translate(40.0037 40.0027) rotate(45) scale(522.888 522.888)"><stop stop-color="#ffe600"/><stop offset="1" stop-color="#ffa573"/></radialGradient><path id="B" d="M207.872 252.866c4.127 4.572 11.447 7.825 17.607 7.825s13.479-3.253 17.606-7.825"/><path id="C" d="M326 224c0-11.598-10.074-21-22.5-21s-22.5 9.402-22.5 21"/></defs></svg><svg x="600" y="150" width="977" height="300" class="C"><path d="M74.448 228.367c-14.211 0-26.937-3.516-38.179-10.549s-20.15-16.624-26.725-28.772C3.182 176.898 0 163.258 0 148.126c0-15.345 3.182-29.092 9.545-41.24 6.575-12.148 15.377-21.739 26.407-28.772 11.241-7.033 24.074-10.55 38.497-10.55 11.029 0 20.892 2.238 29.589 6.713 8.908 4.476 16.013 10.763 21.316 18.862 5.515 7.886 8.484 16.837 8.908 26.853v54.987c-.424 10.016-3.287 19.074-8.59 27.173s-12.408 14.493-21.316 19.181-18.877 7.033-29.907 7.033zm6.999-38.682c7.848 0 14.635-1.705 20.362-5.115a36.46 36.46 0 0 0 13.68-14.705c3.394-6.394 5.091-13.747 5.091-22.059 0-8.099-1.697-15.238-5.091-21.419-3.181-6.394-7.742-11.296-13.68-14.706-5.727-3.623-12.409-5.434-20.044-5.434-7.848 0-14.741 1.811-20.68 5.434-5.727 3.624-10.287 8.525-13.681 14.706-3.181 6.181-4.772 13.32-4.772 21.419 0 8.312 1.591 15.665 4.772 22.059 3.394 6.18 8.06 11.082 13.999 14.705 5.939 3.41 12.62 5.115 20.044 5.115zm78.266 35.486h-41.36v-41.56l6.681-37.723-7-37.084V0h41.679v225.171zm91.072 3.196c-13.998 0-26.619-3.516-37.86-10.549s-20.044-16.624-26.407-28.772-9.544-25.788-9.544-40.92c0-15.345 3.181-29.092 9.544-41.24s15.166-21.739 26.407-28.772 23.862-10.55 37.86-10.55c11.03 0 20.893 2.238 29.589 6.713s15.589 10.763 20.68 18.862c5.302 7.886 8.166 16.837 8.59 26.853v55.626c-.424 10.23-3.288 19.288-8.59 27.173-5.091 7.886-11.984 14.173-20.68 18.862-8.696 4.476-18.559 6.713-29.589 6.713zm7.636-38.682c11.666 0 21.104-3.836 28.316-11.509 7.211-7.885 10.817-18.009 10.817-30.37 0-8.099-1.697-15.238-5.09-21.419-3.182-6.394-7.742-11.296-13.681-14.706-5.727-3.623-12.514-5.434-20.362-5.434-7.636 0-14.423 1.811-20.362 5.434-5.727 3.41-10.287 8.312-13.68 14.706-3.182 6.181-4.773 13.32-4.773 21.419 0 8.312 1.591 15.665 4.773 22.059 3.393 6.18 7.953 11.082 13.68 14.705 5.939 3.41 12.726 5.115 20.362 5.115zm36.906 35.486v-41.56l6.681-37.723-6.681-37.084V75h41.36v150.171h-41.36zm62.491 0V75h41.996v150.171h-41.996zm20.998-177.218c-6.787 0-12.408-2.238-16.862-6.713-4.454-4.689-6.681-10.443-6.681-17.263 0-6.607 2.227-12.255 6.681-16.943S372.029 0 378.816 0c7 0 12.62 2.344 16.862 7.033 4.455 4.689 6.682 10.337 6.682 16.943 0 6.82-2.227 12.574-6.682 17.263-4.242 4.476-9.862 6.713-16.862 6.713zm99.026 180.734c-8.696 0-17.287-1.172-25.771-3.516-8.272-2.345-15.907-5.542-22.907-9.591-6.999-4.263-13.044-9.378-18.135-15.345l24.816-25.255c5.303 5.967 11.454 10.443 18.453 13.426s14.742 4.476 23.226 4.476c6.787 0 11.877-.959 15.271-2.877 3.606-1.918 5.409-4.795 5.409-8.632 0-4.262-1.909-7.566-5.727-9.91-3.606-2.344-8.378-4.263-14.317-5.754l-18.771-5.435c-6.363-2.131-12.514-4.795-18.453-7.992-5.939-3.41-10.817-7.993-14.635-13.747-3.606-5.967-5.409-13.64-5.409-23.017 0-9.804 2.333-18.329 6.999-25.575 4.879-7.246 11.772-12.894 20.681-16.943s19.407-6.074 31.497-6.074c12.726 0 24.18 2.238 34.361 6.713 10.393 4.476 18.983 11.189 25.77 20.14l-25.134 25.255c-4.666-5.754-9.969-9.91-15.908-12.468-5.727-2.557-11.984-3.836-18.771-3.836-6.151 0-10.923.959-14.317 2.877-3.182 1.918-4.772 4.583-4.772 7.993 0 3.836 1.803 6.82 5.408 8.951 3.818 2.131 8.697 4.049 14.635 5.754 5.939 1.492 12.09 3.304 18.453 5.435 6.576 1.918 12.727 4.689 18.453 8.312a42.12 42.12 0 0 1 14.317 14.386c3.818 5.967 5.727 13.64 5.727 23.017 0 15.132-5.408 27.174-16.226 36.125-10.817 8.738-25.558 13.107-44.223 13.107zm133.386-2.238L548.322 75H593.5l41.272 114.685-17.391-2.127L662.004 75H707.5l-66.683 151.449h-29.589zM562.436 300l52.928-109.675 25.453 36.124L606.659 300h-44.223zm258.986-71.633c-17.604 0-33.3-3.836-47.087-11.508-13.574-7.886-24.285-18.649-32.133-32.289s-11.772-29.091-11.772-46.355V0h43.269v139.494c0 10.017 2.015 18.649 6.045 25.895 4.242 7.246 9.969 12.894 17.18 16.943 7.424 3.837 15.59 5.755 24.498 5.755 9.121 0 17.181-1.918 24.18-5.755 7-4.049 12.514-9.697 16.544-16.943 4.242-7.246 6.363-15.771 6.363-25.575V0h43.587v138.535c0 17.263-3.924 32.715-11.771 46.355-7.848 13.427-18.559 24.083-32.134 31.969-13.362 7.672-28.952 11.508-46.769 11.508zM933.731 225V0H977v225h-43.269z"/></svg></svg>