<svg viewBox="0 0 450 450" fill="none" xmlns="http://www.w3.org/2000/svg">
<path opacity="0.7" d="M148.425 40.1667C142.7 48.5988 138.15 58.3812 135.152 69.5141C126.533 101.527 101.527 126.533 69.5137 135.153C58.3806 138.15 48.5979 142.7 40.1656 148.426C28.2144 85.9133 85.9125 28.2153 148.425 40.1667Z" fill="#FFD819"/>
<path opacity="0.7" d="M40.1668 148.425C42.0807 158.436 45.7808 168.571 51.5333 178.563C68.0751 207.294 68.0751 242.658 51.5333 271.39C45.7806 281.382 42.0805 291.516 40.1667 301.528C-12.4873 265.775 -12.4872 184.178 40.1668 148.425Z" fill="#FFE029"/>
<path opacity="0.7" d="M148.425 409.786C142.7 401.354 138.15 391.571 135.152 380.438C126.533 348.425 101.527 323.419 69.5137 314.8C58.3806 311.802 48.5979 307.252 40.1656 301.526C28.2144 364.039 85.9125 421.737 148.425 409.786Z" fill="#FFC141"/>
<path opacity="0.7" d="M301.529 409.785C291.518 407.871 281.384 404.171 271.392 398.418C242.66 381.876 207.296 381.876 178.565 398.418C168.573 404.171 158.438 407.871 148.427 409.785C184.179 462.439 265.777 462.439 301.529 409.785Z" fill="#FFB655"/>
<path opacity="0.7" d="M409.788 301.527C401.356 307.253 391.574 311.802 380.441 314.8C348.428 323.419 323.422 348.425 314.802 380.439C311.805 391.571 307.255 401.354 301.529 409.786C364.041 421.737 421.739 364.039 409.788 301.527Z" fill="#FFB35B"/>
<path opacity="0.7" d="M409.787 148.426C407.873 158.437 404.173 168.571 398.42 178.563C381.879 207.294 381.879 242.658 398.42 271.39C404.173 281.382 407.873 291.516 409.787 301.527C462.44 265.775 462.44 184.179 409.787 148.426Z" fill="#FFB656"/>
<path opacity="0.7" d="M301.529 40.1664C307.255 48.5986 311.805 58.3811 314.802 69.5141C323.422 101.527 348.428 126.533 380.441 135.153C391.574 138.15 401.356 142.7 409.788 148.425C421.739 85.9132 364.041 28.216 301.529 40.1664Z" fill="#FFC042"/>
<path opacity="0.7" d="M148.427 40.1671C158.438 42.081 168.572 45.781 178.564 51.5336C207.296 68.0754 242.66 68.0755 271.391 51.5336C281.383 45.7812 291.517 42.0812 301.528 40.1673C265.775 -12.4858 184.179 -12.4858 148.427 40.1671Z" fill="#FFCE2A"/>
<path fill-rule="evenodd" clip-rule="evenodd" d="M135.155 69.5136C138.152 58.3808 142.702 48.5984 148.428 40.1662C158.438 42.0801 168.573 45.7802 178.564 51.5326C207.296 68.0744 242.66 68.0744 271.391 51.5326C281.383 45.78 291.518 42.0798 301.529 40.166C307.255 48.5982 311.805 58.3807 314.802 69.5136C323.422 101.527 348.428 126.533 380.441 135.152C391.573 138.15 401.356 142.699 409.788 148.425C407.874 158.436 404.174 168.571 398.421 178.562C381.879 207.294 381.879 242.658 398.421 271.39C404.174 281.381 407.874 291.516 409.788 301.527C401.356 307.253 391.573 311.802 380.441 314.8C348.428 323.419 323.422 348.425 314.802 380.438C311.805 391.571 307.255 401.354 301.529 409.786C291.518 407.872 281.383 404.172 271.391 398.419C242.66 381.878 207.296 381.878 178.564 398.419C168.573 404.172 158.438 407.872 148.428 409.786C142.702 401.354 138.152 391.571 135.155 380.438C126.535 348.425 101.529 323.419 69.5161 314.8C58.383 311.802 48.6003 307.252 40.168 301.526C42.0819 291.516 45.7819 281.381 51.5344 271.39C68.0762 242.658 68.0762 207.294 51.5344 178.562C45.7819 168.571 42.0819 158.437 40.168 148.426C48.6002 142.7 58.3829 138.15 69.5161 135.152C101.529 126.533 126.535 101.527 135.155 69.5136Z" fill="url(#paint0_radial_109_5758)"/>
<g>
  <path d="M207.977 251C212.079 249.247 219.354 248 225.477 248C231.599 248 238.874 249.247 242.977 251" stroke="#8B2C0C" stroke-opacity="0.05" stroke-width="11.7377" stroke-linecap="round"/>
  <path d="M207.977 252C212.079 250.247 219.354 249 225.477 249C231.599 249 238.874 250.247 242.977 252" stroke="#D05B34" stroke-width="11.7377" stroke-linecap="round"/>
  <path d="M129 219H166.5" stroke="black" stroke-width="12" stroke-linecap="round"/>

  <g>
    <circle cx="142" cy="225" r="12" fill="black"/>
    <circle cx="298" cy="225" r="12" fill="black"/>
    <animateTransform
      attributeName="transform"
      type="translate"
      values="0 0; 10 0; 10 0; 0 0; 0 0"
      keyTimes="0; 0.167; 0.333; 0.5; 1"
      dur="6s"
      repeatCount="indefinite"
    />
  </g>
  <animateTransform
    attributeName="transform"
    type="rotate"
    values="0 220 225; -5 220 225; -5 220 225; 0 220 225; 0 220 225"
    keyTimes="0; 0.5; 0.667; 0.833; 1"
    dur="6s"
    repeatCount="indefinite"
  />
  <path d="M285 219H322.5" stroke="black" stroke-width="12" stroke-linecap="round"/>
</g>
  <path d="M139 117C139 117 139 129.35 134.5 134C130.291 138.35 117 139 117 139" stroke="#C35C55" stroke-width="10" stroke-linecap="round"/>
  <path d="M160.557 157.113C160.557 157.113 151.824 148.38 151.718 141.91C151.619 135.858 160.557 126 160.557 126" stroke="#C35C55" stroke-width="10" stroke-linecap="round"/>
  <path d="M117 155.789C117 155.789 128.55 151.417 134.492 153.979C140.05 156.375 145.364 168.575 145.364 168.575" stroke="#C35C55" stroke-width="10" stroke-linecap="round"/>

<defs>
<radialGradient id="paint0_radial_109_5758" cx="0" cy="0" r="1" gradientUnits="userSpaceOnUse" gradientTransform="translate(40.0037 40.0027) rotate(45) scale(522.888 522.888)">
<stop stop-color="#FFE600"/>
<stop offset="1" stop-color="#FFA573"/>
</radialGradient>
</defs>
</svg>
