<svg viewBox="0 0 450 450" fill="none" xmlns="http://www.w3.org/2000/svg">
<path opacity="0.7" d="M149.143 41.0904C143.428 49.5065 138.887 59.2704 135.895 70.3821C127.292 102.334 102.333 127.293 70.3808 135.896C59.2688 138.888 49.5047 143.429 41.0884 149.144C29.1599 86.7502 86.7484 29.1617 149.143 41.0904Z" fill="white"/>
<path opacity="0.7" d="M41.0895 149.144C42.9998 159.136 46.6928 169.251 52.4345 179.224C68.9449 207.901 68.9449 243.198 52.4345 271.875C46.6927 281.848 42.9996 291.963 41.0894 301.955C-11.4646 266.271 -11.4646 184.828 41.0895 149.144Z" fill="white"/>
<path opacity="0.7" d="M149.143 410.009C143.428 401.593 138.887 391.829 135.895 380.717C127.292 348.765 102.333 323.806 70.3808 315.203C59.2688 312.211 49.5047 307.67 41.0884 301.955C29.1599 364.349 86.7484 421.938 149.143 410.009Z" fill="white"/>
<path opacity="0.7" d="M301.953 410.008C291.961 408.097 281.846 404.404 271.873 398.663C243.196 382.152 207.899 382.152 179.222 398.663C169.249 404.404 159.134 408.098 149.142 410.008C184.826 462.562 266.269 462.562 301.953 410.008Z" fill="white"/>
<path opacity="0.7" d="M410.01 301.956C401.594 307.671 391.83 312.212 380.719 315.203C348.767 323.806 323.808 348.765 315.205 380.718C312.213 391.829 307.672 401.593 301.957 410.009C364.35 421.937 421.938 364.349 410.01 301.956Z" fill="white"/>
<path opacity="0.7" d="M410.007 149.145C408.096 159.136 404.403 169.251 398.662 179.224C382.151 207.901 382.151 243.198 398.662 271.875C404.404 281.848 408.097 291.963 410.007 301.955C462.56 266.27 462.56 184.829 410.007 149.145Z" fill="white"/>
<path opacity="0.7" d="M301.957 41.0902C307.672 49.5064 312.213 59.2703 315.205 70.3821C323.808 102.334 348.767 127.293 380.719 135.896C391.83 138.888 401.594 143.429 410.01 149.144C421.938 86.7501 364.35 29.1625 301.957 41.0902Z" fill="white"/>
<path opacity="0.7" d="M149.142 41.0913C159.134 43.0015 169.249 46.6945 179.222 52.4362C207.899 68.9466 243.196 68.9466 271.873 52.4362C281.845 46.6947 291.96 43.0017 301.952 41.0914C266.267 -11.4617 184.826 -11.4617 149.142 41.0913Z" fill="white"/>
<path fill-rule="evenodd" clip-rule="evenodd" d="M135.898 70.3827C138.89 59.2711 143.431 49.5072 149.146 41.091C159.138 43.0013 169.253 46.6943 179.225 52.4359C207.902 68.9463 243.199 68.9463 271.876 52.4359C281.849 46.6941 291.965 43.001 301.957 41.0908C307.672 49.507 312.213 59.271 315.205 70.3827C323.808 102.335 348.766 127.294 380.719 135.897C391.83 138.889 401.594 143.43 410.01 149.144C408.1 159.136 404.407 169.252 398.665 179.225C382.155 207.902 382.155 243.199 398.665 271.876C404.407 281.848 408.1 291.964 410.01 301.956C401.594 307.67 391.83 312.211 380.719 315.203C348.766 323.806 323.808 348.765 315.205 380.717C312.213 391.829 307.672 401.593 301.957 410.009C291.965 408.099 281.849 404.406 271.876 398.664C243.199 382.154 207.902 382.154 179.225 398.664C169.253 404.406 159.138 408.099 149.146 410.009C143.431 401.593 138.89 391.829 135.898 380.717C127.295 348.765 102.337 323.806 70.3842 315.203C59.2722 312.211 49.5081 307.67 41.0918 301.955C43.0021 291.963 46.6951 281.848 52.4367 271.876C68.9471 243.199 68.9471 207.902 52.4367 179.225C46.6951 169.252 43.0021 159.137 41.0918 149.145C49.5081 143.43 59.2722 138.889 70.3842 135.897C102.337 127.294 127.295 102.335 135.898 70.3827Z" fill="white"/>
<path d="M207.871 250.91C211.999 255.482 219.318 258.735 225.478 258.735C231.637 258.735 238.957 255.482 243.084 250.91" stroke="black" stroke-width="12" stroke-linecap="round"/>
<rect x="125.037" y="192.221" width="31.3006" height="15.6503" rx="7.82514" transform="rotate(45 125.037 192.221)" fill="black"/>
<rect x="117.883" y="196.134" width="58.6886" height="58.6886" rx="29.3443" fill="black"/>
<circle cx="140.814" cy="211.609" r="11.7377" fill="white"/>
<circle cx="162.849" cy="227.64" r="5.86885" fill="white"/>
<circle cx="155.524" cy="239.853" r="3.91257" fill="white"/>
<rect x="337.18" y="203.288" width="31.3006" height="15.6503" rx="7.82514" transform="rotate(135 337.18 203.288)" fill="black"/>
<rect x="274.385" y="196.134" width="58.6886" height="58.6886" rx="29.3443" fill="black"/>
<rect x="290.035" y="211.785" width="27.388" height="27.388" rx="13.694" fill="black"/>
<circle cx="297.318" cy="211.609" r="11.7377" fill="white"/>
<circle cx="319.353" cy="227.64" r="5.86885" fill="white"/>
<circle cx="312.028" cy="239.853" r="3.91257" fill="white"/>
</svg>
