<svg aria-label="daisyUI logotype" viewBox="0 0 977 300" fill="white" xmlns="http://www.w3.org/2000/svg">
  <path d="M74.4482 228.367C60.2373 228.367 47.5111 224.851 36.2696 217.818C25.0282 210.785 16.1198 201.194 9.54464 189.046C3.18155 176.898 0 163.258 0 148.126C0 132.781 3.18155 119.034 9.54464 106.886C16.1198 94.7379 24.9221 85.1473 35.9515 78.1142C47.1929 71.081 60.0252 67.5645 74.4482 67.5645C85.4776 67.5645 95.3404 69.8023 104.037 74.2779C112.945 78.7535 120.05 85.0407 125.353 93.1395C130.868 101.025 133.837 109.976 134.261 119.993V174.98C133.837 184.996 130.974 194.054 125.671 202.153C120.369 210.252 113.263 216.646 104.355 221.334C95.4464 226.023 85.4776 228.367 74.4482 228.367ZM81.4476 189.685C89.2954 189.685 96.0827 187.98 101.81 184.57C107.748 180.947 112.309 176.045 115.49 169.865C118.884 163.471 120.581 156.118 120.581 147.806C120.581 139.707 118.884 132.568 115.49 126.387C112.309 119.993 107.748 115.091 101.81 111.681C96.0827 108.058 89.4015 106.247 81.7658 106.247C73.918 106.247 67.0246 108.058 61.0857 111.681C55.3589 115.305 50.7987 120.206 47.405 126.387C44.2235 132.568 42.6327 139.707 42.6327 147.806C42.6327 156.118 44.2235 163.471 47.405 169.865C50.7987 176.045 55.465 180.947 61.4039 184.57C67.3428 187.98 74.024 189.685 81.4476 189.685ZM159.714 225.171H118.354V183.611L125.035 145.888L118.035 108.804V0H159.714V225.171Z"/>
  <path d="M250.785 228.367C236.787 228.367 224.166 224.851 212.925 217.818C201.684 210.785 192.881 201.194 186.518 189.046C180.155 176.898 176.974 163.258 176.974 148.126C176.974 132.781 180.155 119.034 186.518 106.886C192.881 94.7379 201.684 85.1473 212.925 78.1142C224.166 71.081 236.787 67.5645 250.785 67.5645C261.815 67.5645 271.678 69.8023 280.374 74.2779C289.07 78.7535 295.963 85.0407 301.054 93.1395C306.356 101.025 309.22 109.976 309.644 119.993V175.619C309.22 185.849 306.356 194.907 301.054 202.792C295.963 210.678 289.07 216.965 280.374 221.654C271.678 226.13 261.815 228.367 250.785 228.367ZM258.421 189.685C270.087 189.685 279.525 185.849 286.737 178.176C293.948 170.291 297.554 160.167 297.554 147.806C297.554 139.707 295.857 132.568 292.464 126.387C289.282 119.993 284.722 115.091 278.783 111.681C273.056 108.058 266.269 106.247 258.421 106.247C250.785 106.247 243.998 108.058 238.059 111.681C232.332 115.091 227.772 119.993 224.379 126.387C221.197 132.568 219.606 139.707 219.606 147.806C219.606 156.118 221.197 163.471 224.379 169.865C227.772 176.045 232.332 180.947 238.059 184.57C243.998 187.98 250.785 189.685 258.421 189.685ZM295.327 225.171V183.611L302.008 145.888L295.327 108.804V75L336.687 75V225.171H295.327Z"/>
  <path d="M357.818 225.171V75H399.814V225.171H357.818ZM378.816 47.9531C372.029 47.9531 366.408 45.7153 361.954 41.2397C357.5 36.5509 355.273 30.7966 355.273 23.9766C355.273 17.3697 357.5 11.7219 361.954 7.03314C366.408 2.34439 372.029 0 378.816 0C385.816 0 391.436 2.34439 395.678 7.03314C400.133 11.7219 402.36 17.3697 402.36 23.9766C402.36 30.7966 400.133 36.5509 395.678 41.2397C391.436 45.7153 385.816 47.9531 378.816 47.9531Z"/>
  <path d="M477.842 228.687C469.146 228.687 460.555 227.515 452.071 225.171C443.799 222.826 436.164 219.629 429.164 215.58C422.165 211.317 416.12 206.202 411.029 200.235L435.845 174.98C441.148 180.947 447.299 185.423 454.298 188.406C461.298 191.39 469.04 192.882 477.524 192.882C484.311 192.882 489.401 191.923 492.795 190.005C496.401 188.087 498.204 185.21 498.204 181.373C498.204 177.111 496.295 173.807 492.477 171.463C488.871 169.119 484.099 167.2 478.16 165.709C472.221 164.004 465.964 162.192 459.389 160.274C453.026 158.143 446.875 155.479 440.936 152.282C434.997 148.872 430.119 144.289 426.301 138.535C422.695 132.568 420.892 124.895 420.892 115.518C420.892 105.714 423.225 97.1889 427.891 89.9426C432.77 82.6964 439.663 77.0486 448.572 72.9992C457.48 68.9498 467.979 66.9251 480.069 66.9251C492.795 66.9251 504.249 69.1629 514.43 73.6385C524.823 78.1142 533.413 84.8276 540.2 93.7789L515.066 119.034C510.4 113.28 505.097 109.124 499.158 106.566C493.431 104.009 487.174 102.73 480.387 102.73C474.236 102.73 469.464 103.689 466.07 105.607C462.888 107.525 461.298 110.19 461.298 113.6C461.298 117.436 463.101 120.42 466.706 122.551C470.524 124.682 475.403 126.6 481.341 128.305C487.28 129.797 493.431 131.609 499.794 133.74C506.37 135.658 512.521 138.429 518.247 142.052C524.186 145.675 528.959 150.47 532.564 156.438C536.382 162.405 538.291 170.078 538.291 179.455C538.291 194.587 532.883 206.629 522.065 215.58C511.248 224.318 496.507 228.687 477.842 228.687Z"/>
  <path d="M611.228 226.449L548.322 75H593.5L634.772 189.685L617.381 187.558L662.004 75H707.5L640.817 226.449H611.228ZM562.436 300L615.364 190.325L640.817 226.449L606.659 300H562.436Z"/>
  <path d="M821.422 228.367C803.818 228.367 788.122 224.531 774.335 216.859C760.761 208.973 750.05 198.21 742.202 184.57C734.354 170.93 730.43 155.479 730.43 138.215V0H773.699V139.494C773.699 149.511 775.714 158.143 779.744 165.389C783.986 172.635 789.713 178.283 796.924 182.332C804.348 186.169 812.514 188.087 821.422 188.087C830.543 188.087 838.603 186.169 845.602 182.332C852.602 178.283 858.116 172.635 862.146 165.389C866.388 158.143 868.509 149.618 868.509 139.814V0H912.096V138.535C912.096 155.798 908.172 171.25 900.325 184.89C892.477 198.317 881.766 208.973 868.191 216.859C854.829 224.531 839.239 228.367 821.422 228.367Z"/>
  <path d="M933.731 225V0H977V225H933.731Z"/>
</svg>
