<svg xmlns="http://www.w3.org/2000/svg" viewBox="0 0 977 300" fill="white" xmlns:v="https://vecta.io/nano"><path d="M74.448 228.367c-14.211 0-26.937-3.516-38.179-10.549s-20.15-16.624-26.725-28.772C3.182 176.898 0 163.258 0 148.126c0-15.345 3.182-29.092 9.545-41.24 6.575-12.148 15.377-21.739 26.407-28.772 11.241-7.033 24.074-10.55 38.497-10.55 11.029 0 20.892 2.238 29.589 6.713 8.908 4.476 16.013 10.763 21.316 18.862 5.515 7.886 8.484 16.837 8.908 26.853v54.987c-.424 10.016-3.287 19.074-8.59 27.173s-12.408 14.493-21.316 19.181-18.877 7.033-29.907 7.033zm6.999-38.682c7.848 0 14.635-1.705 20.362-5.115a36.46 36.46 0 0 0 13.68-14.705c3.394-6.394 5.091-13.747 5.091-22.059 0-8.099-1.697-15.238-5.091-21.419-3.181-6.394-7.742-11.296-13.68-14.706-5.727-3.623-12.409-5.434-20.044-5.434-7.848 0-14.741 1.811-20.68 5.434-5.727 3.624-10.287 8.525-13.681 14.706-3.181 6.181-4.772 13.32-4.772 21.419 0 8.312 1.591 15.665 4.772 22.059 3.394 6.18 8.06 11.082 13.999 14.705 5.939 3.41 12.62 5.115 20.044 5.115zm78.266 35.486h-41.36v-41.56l6.681-37.723-7-37.084V0h41.679v225.171zm91.072 3.196c-13.998 0-26.619-3.516-37.86-10.549s-20.044-16.624-26.407-28.772-9.544-25.788-9.544-40.92c0-15.345 3.181-29.092 9.544-41.24s15.166-21.739 26.407-28.772 23.862-10.55 37.86-10.55c11.03 0 20.893 2.238 29.589 6.713s15.589 10.763 20.68 18.862c5.302 7.886 8.166 16.837 8.59 26.853v55.626c-.424 10.23-3.288 19.288-8.59 27.173-5.091 7.886-11.984 14.173-20.68 18.862-8.696 4.476-18.559 6.713-29.589 6.713zm7.636-38.682c11.666 0 21.104-3.836 28.316-11.509 7.211-7.885 10.817-18.009 10.817-30.37 0-8.099-1.697-15.238-5.09-21.419-3.182-6.394-7.742-11.296-13.681-14.706-5.727-3.623-12.514-5.434-20.362-5.434-7.636 0-14.423 1.811-20.362 5.434-5.727 3.41-10.287 8.312-13.68 14.706-3.182 6.181-4.773 13.32-4.773 21.419 0 8.312 1.591 15.665 4.773 22.059 3.393 6.18 7.953 11.082 13.68 14.705 5.939 3.41 12.726 5.115 20.362 5.115zm36.906 35.486v-41.56l6.681-37.723-6.681-37.084V75h41.36v150.171h-41.36zm62.491 0V75h41.996v150.171h-41.996zm20.998-177.218c-6.787 0-12.408-2.238-16.862-6.713-4.454-4.689-6.681-10.443-6.681-17.263 0-6.607 2.227-12.255 6.681-16.943S372.029 0 378.816 0c7 0 12.62 2.344 16.862 7.033 4.455 4.689 6.682 10.337 6.682 16.943 0 6.82-2.227 12.574-6.682 17.263-4.242 4.476-9.862 6.713-16.862 6.713zm99.026 180.734c-8.696 0-17.287-1.172-25.771-3.516-8.272-2.345-15.907-5.542-22.907-9.591-6.999-4.263-13.044-9.378-18.135-15.345l24.816-25.255c5.303 5.967 11.454 10.443 18.453 13.426s14.742 4.476 23.226 4.476c6.787 0 11.877-.959 15.271-2.877 3.606-1.918 5.409-4.795 5.409-8.632 0-4.262-1.909-7.566-5.727-9.91-3.606-2.344-8.378-4.263-14.317-5.754l-18.771-5.435c-6.363-2.131-12.514-4.795-18.453-7.992-5.939-3.41-10.817-7.993-14.635-13.747-3.606-5.967-5.409-13.64-5.409-23.017 0-9.804 2.333-18.329 6.999-25.575 4.879-7.246 11.772-12.894 20.681-16.943s19.407-6.074 31.497-6.074c12.726 0 24.18 2.238 34.361 6.713 10.393 4.476 18.983 11.189 25.77 20.14l-25.134 25.255c-4.666-5.754-9.969-9.91-15.908-12.468-5.727-2.557-11.984-3.836-18.771-3.836-6.151 0-10.923.959-14.317 2.877-3.182 1.918-4.772 4.583-4.772 7.993 0 3.836 1.803 6.82 5.408 8.951 3.818 2.131 8.697 4.049 14.635 5.754 5.939 1.492 12.09 3.304 18.453 5.435 6.576 1.918 12.727 4.689 18.453 8.312a42.12 42.12 0 0 1 14.317 14.386c3.818 5.967 5.727 13.64 5.727 23.017 0 15.132-5.408 27.174-16.226 36.125-10.817 8.738-25.558 13.107-44.223 13.107zm133.386-2.238L548.322 75H593.5l41.272 114.685-17.391-2.127L662.004 75H707.5l-66.683 151.449h-29.589zM562.436 300l52.928-109.675 25.453 36.124L606.659 300h-44.223zm258.986-71.633c-17.604 0-33.3-3.836-47.087-11.508-13.574-7.886-24.285-18.649-32.133-32.289s-11.772-29.091-11.772-46.355V0h43.269v139.494c0 10.017 2.015 18.649 6.045 25.895 4.242 7.246 9.969 12.894 17.18 16.943 7.424 3.837 15.59 5.755 24.498 5.755 9.121 0 17.181-1.918 24.18-5.755 7-4.049 12.514-9.697 16.544-16.943 4.242-7.246 6.363-15.771 6.363-25.575V0h43.587v138.535c0 17.263-3.924 32.715-11.771 46.355-7.848 13.427-18.559 24.083-32.134 31.969-13.362 7.672-28.952 11.508-46.769 11.508zM933.731 225V0H977v225h-43.269z"/></svg>